<?xml version="1.0" standalone="no"?>
<!DOCTYPE svg PUBLIC "-//W3C//DTD SVG 1.1//EN" "http://www.w3.org/Graphics/SVG/1.1/DTD/svg11.dtd" >
<svg xmlns="http://www.w3.org/2000/svg" xmlns:xlink="http://www.w3.org/1999/xlink" version="1.1">
<metadata>
Created by FontForge 20191116 at Wed Jan 14 08:07:58 2015
 By Jimmy Wärting
\(c\) 2014 Apple Inc. All rights reserved.
</metadata>
<defs>
<font id="SanFranciscoDisplay-Semibold" horiz-adv-x="0" >
  <font-face 
    font-family="San Francisco Display"
    font-weight="600"
    font-stretch="normal"
    units-per-em="2048"
    panose-1="0 0 0 0 0 0 0 0 0 0"
    ascent="1638"
    descent="-410"
    x-height="1058"
    cap-height="1365"
    bbox="-658 -490 2052 1995"
    underline-thickness="50"
    underline-position="-75"
    stemh="222"
    stemv="273"
    unicode-range="U+000D-FB02"
  />
<missing-glyph horiz-adv-x="1293" 
d="M120 0v1365h1053v-1365h-1053zM501 313c0 -63 49 -107 120 -107c74 0 122 43 122 107c0 65 -48 108 -122 108c-72 0 -120 -44 -120 -108zM339 888h169c1 79 49 130 125 130c72 0 120 -43 120 -110c0 -51 -20 -78 -103 -138c-92 -65 -125 -129 -118 -221l1 -18h166v15
c0 64 15 87 107 153c97 70 133 130 133 218c0 151 -117 250 -296 250c-190 0 -310 -109 -304 -279z" />
    <glyph glyph-name=".notdef" horiz-adv-x="1293" 
d="M120 0v1365h1053v-1365h-1053zM501 313c0 -63 49 -107 120 -107c74 0 122 43 122 107c0 65 -48 108 -122 108c-72 0 -120 -44 -120 -108zM339 888h169c1 79 49 130 125 130c72 0 120 -43 120 -110c0 -51 -20 -78 -103 -138c-92 -65 -125 -129 -118 -221l1 -18h166v15
c0 64 15 87 107 153c97 70 133 130 133 218c0 151 -117 250 -296 250c-190 0 -310 -109 -304 -279z" />
    <glyph glyph-name=".null" 
 />
    <glyph glyph-name="CR" unicode="&#xd;" 
 />
    <glyph glyph-name="space" unicode=" " horiz-adv-x="405" 
 />
    <glyph glyph-name="exclam" unicode="!" horiz-adv-x="544" 
d="M125 112c0 79 60 132 146 132c91 0 149 -53 149 -132c0 -77 -58 -131 -149 -131c-86 0 -146 54 -146 131zM143 1365h262l-29 -953h-205z" />
    <glyph glyph-name="quotedbl" unicode="&#x22;" horiz-adv-x="910" 
d="M99 1365h259l-32 -537h-195zM552 1365h259l-32 -537h-195z" />
    <glyph glyph-name="numbersign" unicode="#" horiz-adv-x="1218" 
d="M1159 828h-211l-56 -277h201l-35 -177h-202l-75 -374h-181l75 374h-247l-76 -374h-181l75 374h-199l35 177h200l56 277h-191l34 176h193l72 361h182l-73 -361h248l72 361h181l-72 -361h209zM510 842l-62 -305h272l62 305h-272z" />
    <glyph glyph-name="dollar" unicode="$" horiz-adv-x="1144" 
d="M307 1016c0 -79 49 -141 154 -179c15 -5 29 -10 45 -15v386c-114 -14 -199 -80 -199 -192zM870 379c0 95 -51 158 -196 201c-8 3 -17 5 -27 7v-415c132 12 223 85 223 207zM648 -129h-144v126c-305 22 -435 203 -437 388h207c7 -108 85 -193 232 -212v444l-80 20
c-169 40 -328 146 -328 363c0 234 178 360 407 383v130h144v-130c232 -23 400 -165 406 -379h-203c-4 100 -78 185 -205 203v-417l82 -20c206 -49 350 -148 350 -373c0 -240 -178 -377 -431 -399v-127z" />
    <glyph glyph-name="percent" unicode="%" horiz-adv-x="1390" 
d="M163 1038v-9c0 -128 50 -208 132 -208s133 78 133 206v9c0 127 -49 205 -132 205c-86 0 -133 -82 -133 -203zM7 1019v29c0 184 108 331 289 331s288 -145 288 -333v-29c0 -181 -104 -335 -291 -335c-181 0 -286 148 -286 337zM965 343v-10c0 -127 49 -207 132 -207
c81 0 132 78 132 205v10c0 126 -48 204 -131 204c-87 0 -133 -82 -133 -202zM808 323v29c0 185 109 332 290 332c180 0 288 -146 288 -334v-29c0 -180 -104 -334 -291 -334c-182 0 -287 147 -287 336zM261 0h-184l544 704l503 661h185l-538 -696z" />
    <glyph glyph-name="ampersand" unicode="&#x26;" horiz-adv-x="1336" 
d="M1078 0l-113 121c-118 -104 -276 -148 -425 -148c-272 0 -467 147 -467 384c0 176 108 285 257 368l57 30c-92 96 -168 189 -168 312c0 177 157 310 368 310c195 0 365 -116 365 -309c0 -172 -133 -270 -281 -350l289 -315c40 73 54 180 54 311v58h200v-68
c0 -178 -35 -334 -113 -446l246 -258h-269zM460 608c-98 -55 -167 -124 -167 -234c0 -150 127 -226 269 -226c93 0 208 33 278 108l-340 372c-14 -7 -28 -13 -40 -20zM558 833c113 58 194 117 194 222c0 97 -70 160 -164 160c-96 0 -163 -67 -163 -161
c0 -66 33 -122 133 -221z" />
    <glyph glyph-name="quotesingle" unicode="'" horiz-adv-x="457" 
d="M99 1365h259l-32 -537h-195z" />
    <glyph glyph-name="parenleft" unicode="(" horiz-adv-x="657" 
d="M385 1363h211c-80 -91 -236 -359 -236 -795c0 -434 148 -682 233 -830h-217c-105 130 -255 390 -255 828c0 440 143 644 264 797z" />
    <glyph glyph-name="parenright" unicode=")" horiz-adv-x="657" 
d="M61 1363h209c121 -153 266 -357 266 -797c0 -438 -152 -698 -257 -828h-216c85 148 232 396 232 830c0 436 -156 704 -234 795z" />
    <glyph glyph-name="asterisk" unicode="*" horiz-adv-x="761" 
d="M449 736h-137l21 231l-192 -132l-69 119l211 99l-211 98l69 121l193 -136l-22 234h137l-21 -234l193 136l68 -120l-211 -99l211 -99l-68 -119l-192 132z" />
    <glyph glyph-name="plus" unicode="+" horiz-adv-x="1144" 
d="M673 449v-430h-200v430h-398v198h398v413h200v-413h400v-198h-400z" />
    <glyph glyph-name="comma" unicode="," horiz-adv-x="445" 
d="M192 -248h-176l104 485h237z" />
    <glyph glyph-name="hyphen" unicode="-" horiz-adv-x="787" 
d="M709 455h-630v210h630v-210z" />
    <glyph glyph-name="period" unicode="." horiz-adv-x="518" 
d="M117 120c0 84 63 138 141 138c82 0 144 -55 144 -138c0 -84 -63 -139 -144 -139c-77 0 -141 55 -141 139z" />
    <glyph glyph-name="slash" unicode="/" horiz-adv-x="687" 
d="M213 -296h-211l476 1733h211z" />
    <glyph glyph-name="zero" unicode="0" horiz-adv-x="1180" 
d="M326 730v-95c0 -301 102 -462 264 -462s265 162 265 462v95c0 300 -103 461 -265 461s-264 -160 -264 -461zM84 633v98c0 398 183 661 509 661s503 -261 503 -661v-98c0 -386 -173 -660 -507 -660c-327 0 -505 262 -505 660z" />
    <glyph glyph-name="one" unicode="1" horiz-adv-x="830" 
d="M658 0h-239v1125h-8c-49 -27 -251 -157 -316 -202v233c70 50 260 171 332 209h231v-1365z" />
    <glyph glyph-name="two" unicode="2" horiz-adv-x="1131" 
d="M332 967h-231v11c0 208 150 414 456 414c274 0 453 -163 453 -380c0 -182 -117 -296 -237 -433l-327 -373v-6h589v-200h-920v151l500 553c73 81 154 170 154 287c0 122 -93 204 -217 204c-139 0 -221 -101 -221 -216c0 -3 1 -10 1 -12z" />
    <glyph glyph-name="three" unicode="3" horiz-adv-x="1153" 
d="M416 608v191h137c138 0 232 86 231 206c-1 114 -89 196 -225 196c-150 0 -218 -105 -224 -198h-227c5 206 162 389 457 389c267 0 454 -149 458 -353c4 -193 -142 -305 -247 -320v-8c123 -10 290 -110 293 -329c4 -244 -225 -410 -513 -410c-318 0 -470 184 -476 400h224
c13 -115 100 -206 259 -206c168 0 265 96 264 224c-2 128 -98 218 -266 218h-145z" />
    <glyph glyph-name="four" unicode="4" horiz-adv-x="1192" 
d="M619 1365h347v-904h170v-199h-170v-262h-228v262h-661v198c162 302 358 605 542 905zM300 461h438v715h-8c-144 -224 -300 -475 -430 -713v-2z" />
    <glyph glyph-name="five" unicode="5" horiz-adv-x="1202" 
d="M120 360h225c18 -121 121 -192 261 -192c130 0 269 100 269 278c0 169 -118 276 -267 276c-146 0 -227 -83 -260 -156h-211l68 800h808v-198h-613l-37 -375h7c33 46 138 117 294 117c240 0 450 -177 450 -454c0 -292 -220 -483 -516 -483c-301 0 -468 178 -478 387z" />
    <glyph glyph-name="six" unicode="6" horiz-adv-x="1159" 
d="M1052 1033h-231c-8 72 -82 163 -214 163c-176 0 -292 -180 -296 -502h9c38 95 148 199 328 199c223 0 437 -158 437 -446c0 -301 -217 -473 -487 -473c-313 0 -516 226 -516 671c0 491 214 745 531 745c276 0 427 -191 439 -357zM341 436c0 -173 120 -268 259 -268
c133 0 253 89 253 268c0 178 -123 270 -255 270c-140 0 -257 -99 -257 -270z" />
    <glyph glyph-name="seven" unicode="7" horiz-adv-x="1097" 
d="M81 1365h918v-206l-555 -1159h-255l574 1159v6h-682v200z" />
    <glyph glyph-name="eight" unicode="8" horiz-adv-x="1204" 
d="M603 154c156 0 275 95 275 235s-119 237 -275 237s-276 -97 -276 -237s120 -235 276 -235zM603 797c132 0 228 85 228 208c0 122 -96 204 -228 204s-229 -82 -229 -204c0 -123 97 -208 229 -208zM599 -27c-307 0 -511 163 -511 401c0 216 162 317 283 343v7
c-110 34 -229 129 -229 306c0 209 187 362 461 362s461 -153 461 -362c0 -180 -124 -274 -230 -306v-7c122 -26 283 -128 283 -342c0 -237 -209 -402 -518 -402z" />
    <glyph glyph-name="nine" unicode="9" horiz-adv-x="1159" 
d="M100 344h230c11 -85 92 -175 231 -175c205 0 300 219 296 502h-11c-35 -100 -147 -198 -337 -198c-221 0 -425 155 -425 448c0 299 227 469 480 469c319 0 522 -209 522 -688c0 -453 -195 -727 -531 -727c-299 0 -445 202 -455 369zM829 924c0 179 -114 273 -256 273
c-133 0 -257 -91 -257 -270c0 -177 116 -268 252 -268c142 0 261 110 261 265z" />
    <glyph glyph-name="colon" unicode=":" horiz-adv-x="550" 
d="M130 814c0 83 63 138 141 138c82 0 144 -56 144 -138c0 -84 -63 -139 -144 -139c-77 0 -141 55 -141 139zM130 120c0 84 63 138 141 138c82 0 144 -55 144 -138c0 -84 -63 -139 -144 -139c-77 0 -141 55 -141 139z" />
    <glyph glyph-name="semicolon" unicode=";" horiz-adv-x="549" 
d="M132 814c0 83 64 138 142 138c81 0 144 -56 144 -138c0 -84 -63 -139 -144 -139c-78 0 -142 55 -142 139zM234 -280h-178l100 486h236z" />
    <glyph glyph-name="less" unicode="&#x3c;" horiz-adv-x="1144" 
d="M120 439v164l901 513v-240l-634 -343v-11l634 -331v-236z" />
    <glyph glyph-name="equal" unicode="=" horiz-adv-x="1144" 
d="M1023 252h-901v187h901v-187zM1023 658h-901v188h901v-188z" />
    <glyph glyph-name="greater" unicode="&#x3e;" horiz-adv-x="1144" 
d="M1022 603v-164l-902 -484v236l636 331v11l-636 343v240z" />
    <glyph glyph-name="question" unicode="?" horiz-adv-x="967" 
d="M310 112c0 79 60 132 146 132c91 0 149 -53 149 -132c0 -77 -58 -131 -149 -131c-85 0 -146 54 -146 131zM50 993c-6 297 225 401 439 401c225 0 428 -116 428 -357c0 -170 -101 -251 -197 -322c-116 -87 -159 -120 -159 -232v-55h-218l-1 69c-7 147 74 239 182 316
c93 69 153 114 153 212c0 126 -97 178 -200 178c-137 0 -206 -92 -207 -210h-220z" />
    <glyph glyph-name="at" unicode="@" horiz-adv-x="1697" 
d="M1265 133c-131 0 -222 64 -241 142h-10c-21 -76 -111 -142 -225 -142c-171 0 -273 130 -273 329v103c0 191 103 322 278 322c123 0 188 -73 206 -134h8v120h170v-493c0 -73 48 -110 110 -110c88 0 171 101 171 331v32c0 292 -215 544 -581 544h-8
c-356 0 -615 -246 -615 -638v-42c0 -426 283 -621 605 -621h9c136 0 236 18 301 47v-145c-53 -24 -157 -45 -308 -45h-9c-426 0 -761 259 -761 758v55c0 471 326 775 778 775h8c477 0 740 -327 740 -682v-50c0 -271 -141 -456 -353 -456zM697 487c0 -146 61 -203 150 -203
c85 0 148 51 148 193v81c0 127 -68 186 -150 186c-85 0 -148 -62 -148 -199v-58z" />
    <glyph glyph-name="A" unicode="A" horiz-adv-x="1241" 
d="M261 0h-244l466 1365h275l465 -1365h-259l-116 368h-471zM618 1120h-9l-179 -568h366z" />
    <glyph glyph-name="B" unicode="B" horiz-adv-x="1247" 
d="M150 0v1365h553c235 0 396 -123 396 -336c0 -170 -100 -266 -229 -299v-11c175 -20 302 -139 302 -334c0 -251 -205 -385 -476 -385h-546zM391 1178v-387h187c188 0 282 63 282 197c0 129 -89 190 -210 190h-259zM391 614v-426h211c192 0 323 45 323 207
c0 144 -100 219 -257 219h-277z" />
    <glyph glyph-name="C" unicode="C" horiz-adv-x="1270" 
d="M340 761v-163c0 -288 127 -417 321 -417c189 0 287 123 287 268h234v-20c0 -225 -179 -456 -527 -456s-559 223 -559 624v165c0 403 214 630 560 630c337 0 526 -227 526 -474v-19h-234c0 144 -101 286 -291 286c-189 0 -317 -139 -317 -424z" />
    <glyph glyph-name="D" unicode="D" horiz-adv-x="1317" 
d="M150 1365h481c440 0 607 -280 607 -680c0 -396 -163 -685 -607 -685h-481v1365zM392 1164v-962h210c254 0 387 142 387 479c0 284 -96 483 -387 483h-210z" />
    <glyph glyph-name="E" unicode="E" horiz-adv-x="1118" 
d="M1012 202v-202h-862v1365h862v-202h-621v-375h584v-191h-584v-395h621z" />
    <glyph glyph-name="F" unicode="F" horiz-adv-x="1057" 
d="M392 0h-242v1365h852v-203h-610v-406h557v-199h-557v-557z" />
    <glyph glyph-name="G" unicode="G" horiz-adv-x="1295" 
d="M1196 934h-236c-20 167 -144 252 -295 252c-184 0 -326 -125 -326 -412v-176c0 -251 101 -419 326 -419c182 0 303 114 303 262v99h-302v188h533v-275c0 -203 -136 -480 -536 -480c-388 0 -567 257 -567 625v177c0 381 218 617 572 617c342 0 517 -221 528 -458z" />
    <glyph glyph-name="H" unicode="H" horiz-adv-x="1392" 
d="M1242 0h-242v598h-608v-598h-242v1365h242v-563h608v563h242v-1365z" />
    <glyph glyph-name="I" unicode="I" horiz-adv-x="543" 
d="M392 0h-242v1365h242v-1365z" />
    <glyph glyph-name="J" unicode="J" horiz-adv-x="1034" 
d="M25 367h234c3 -112 86 -178 188 -178c123 0 202 67 202 225v951h242v-941c0 -305 -177 -451 -442 -451c-274 0 -424 175 -424 394z" />
    <glyph glyph-name="K" unicode="K" horiz-adv-x="1236" 
d="M1212 1365l-493 -586l516 -779h-294l-400 616l-149 -165v-451h-242v1365h242v-626h11l540 626h269z" />
    <glyph glyph-name="L" unicode="L" horiz-adv-x="1010" 
d="M986 208v-208h-836v1365h242v-1157h594z" />
    <glyph glyph-name="M" unicode="M" horiz-adv-x="1617" 
d="M371 0h-217v1365h244l408 -932h7l408 932h242v-1365h-218v929h-9l-344 -775h-168l-344 775h-9v-929z" />
    <glyph glyph-name="N" unicode="N" horiz-adv-x="1375" 
d="M381 0h-231v1365h209l627 -955h8v955h230v-1365h-207l-629 958h-7v-958z" />
    <glyph glyph-name="O" unicode="O" horiz-adv-x="1338" 
d="M340 770v-185c0 -276 139 -407 329 -407c189 0 328 131 328 407v185c0 276 -139 417 -328 417c-190 0 -329 -141 -329 -417zM96 586v182c0 388 220 624 574 624c355 0 572 -237 572 -624v-182c0 -386 -220 -613 -575 -613s-571 227 -571 613z" />
    <glyph glyph-name="P" unicode="P" horiz-adv-x="1183" 
d="M150 1365h532c284 0 453 -191 453 -446c0 -259 -171 -443 -455 -443h-288v-476h-242v1365zM392 1168v-498h175c202 0 322 52 322 249c0 159 -92 249 -247 249h-250z" />
    <glyph glyph-name="Q" unicode="Q" horiz-adv-x="1342" 
d="M98 592v180c0 386 224 620 572 620c350 0 574 -235 574 -620v-180c0 -209 -66 -372 -181 -478l177 -255h-247l-108 153c-63 -25 -136 -39 -215 -39c-348 0 -572 233 -572 619zM336 772v-182c0 -283 141 -421 329 -423c39 0 72 6 103 19l-153 216h235l75 -101
c50 67 81 162 81 289v182c0 278 -144 416 -336 416c-191 0 -334 -138 -334 -416z" />
    <glyph glyph-name="R" unicode="R" horiz-adv-x="1246" 
d="M680 1365c318 0 467 -191 467 -424c0 -225 -142 -341 -250 -383l276 -558h-272l-243 519h-268v-519h-240v1365h530zM390 706h251c163 0 256 81 256 228c0 157 -103 237 -251 237h-256v-465z" />
    <glyph glyph-name="S" unicode="S" horiz-adv-x="1191" 
d="M60 382h235c10 -114 110 -212 299 -212c173 0 273 80 273 204c0 101 -70 154 -214 189l-219 53c-180 41 -339 147 -339 371c0 263 229 408 499 408c275 0 492 -150 496 -401h-230c-9 111 -96 205 -268 205c-152 0 -254 -72 -254 -193c0 -87 63 -148 188 -177l220 -53
c204 -47 363 -144 363 -381c0 -268 -216 -422 -532 -422c-385 0 -513 223 -517 409z" />
    <glyph glyph-name="T" unicode="T" horiz-adv-x="1067" 
d="M653 0h-240v1160h-396v205h1033v-205h-397v-1160z" />
    <glyph glyph-name="U" unicode="U" horiz-adv-x="1352" 
d="M377 1365v-873c0 -196 117 -311 299 -311c181 0 300 116 300 311v873h241v-892c0 -301 -215 -500 -541 -500s-541 201 -541 503v889h242z" />
    <glyph glyph-name="V" unicode="V" horiz-adv-x="1234" 
d="M759 0h-282l-466 1365h279l329 -1084h9l326 1084h270z" />
    <glyph glyph-name="W" unicode="W" horiz-adv-x="1726" 
d="M595 0h-222l-364 1365h266l220 -1002h9l250 1002h219l249 -1002h10l219 1002h266l-365 -1365h-222l-263 983h-9z" />
    <glyph glyph-name="X" unicode="X" horiz-adv-x="1167" 
d="M1175 1365l-440 -686l433 -679h-281l-305 500h-12l-306 -500h-265l429 688l-425 677h286l302 -506h11l299 506h274z" />
    <glyph glyph-name="Y" unicode="Y" horiz-adv-x="1132" 
d="M687 0h-242v539l-456 826h270l305 -587h8l308 587h264l-457 -822v-543z" />
    <glyph glyph-name="Z" unicode="Z" horiz-adv-x="1167" 
d="M84 0v161l681 993v9h-661v202h955v-160l-678 -993v-9h697v-203h-994z" />
    <glyph glyph-name="bracketleft" unicode="[" horiz-adv-x="695" 
d="M121 1365h499v-174h-273v-1245h286v-174h-512v1593z" />
    <glyph glyph-name="backslash" unicode="\" horiz-adv-x="687" 
d="M689 -296h-211l-476 1733h211z" />
    <glyph glyph-name="bracketright" unicode="]" horiz-adv-x="695" 
d="M74 1365h500v-1593h-512v174h287v1245h-275v174z" />
    <glyph glyph-name="asciicircum" unicode="^" horiz-adv-x="838" 
d="M798 795h-204l-171 382h-8l-174 -382h-200l275 570h209z" />
    <glyph glyph-name="underscore" unicode="_" horiz-adv-x="850" 
d="M877 -285h-904v182h904v-182z" />
    <glyph glyph-name="grave" unicode="`" horiz-adv-x="947" 
d="M624 1221h-195l-248 283h240z" />
    <glyph glyph-name="a" unicode="a" horiz-adv-x="1086" 
d="M722 136c-45 -80 -138 -152 -294 -152c-205 0 -347 122 -347 320c0 189 131 312 375 312h264v112c0 111 -68 160 -187 160c-122 0 -179 -58 -188 -147h-225c9 182 125 334 421 334c245 0 414 -100 414 -352v-723h-223v136h-10zM502 162c123 0 218 82 218 193v108h-220
c-124 0 -183 -60 -183 -145c0 -107 90 -156 185 -156z" />
    <glyph glyph-name="b" unicode="b" horiz-adv-x="1182" 
d="M687 -14c-163 0 -269 76 -307 176h-9v-162h-231v1437h236v-531h9c43 86 129 167 306 167c257 0 402 -187 402 -488v-110c0 -313 -152 -489 -406 -489zM617 178c139 0 235 105 235 306v85c0 203 -90 312 -235 312c-148 0 -241 -124 -241 -302v-103
c0 -160 78 -298 241 -298z" />
    <glyph glyph-name="c" unicode="c" horiz-adv-x="1054" 
d="M88 480v105c0 283 166 491 461 491c271 0 425 -167 427 -358h-221c-9 78 -76 168 -200 168c-156 0 -231 -134 -231 -306v-100c0 -177 84 -302 231 -302c131 0 190 70 205 149h221c-5 -199 -175 -345 -432 -345c-293 0 -461 197 -461 498z" />
    <glyph glyph-name="d" unicode="d" horiz-adv-x="1184" 
d="M494 1073c163 0 269 -73 304 -167h9v531h236v-1437h-231v162h-9c-28 -94 -141 -176 -309 -176c-260 0 -405 191 -405 484v120c0 289 143 483 405 483zM565 881c-157 0 -235 -127 -235 -316v-71c0 -192 80 -317 239 -317c147 0 238 113 238 315v79c0 192 -91 310 -242 310
z" />
    <glyph glyph-name="e" unicode="e" horiz-adv-x="1089" 
d="M561 -18c-305 0 -473 193 -473 500v89c0 307 170 505 459 505c298 0 458 -204 458 -504v-95h-684v-33c0 -147 78 -275 239 -275c129 0 192 67 206 141h228c-17 -142 -134 -328 -433 -328zM321 636h454v2c0 149 -85 256 -226 256c-142 0 -228 -108 -228 -256v-2z" />
    <glyph glyph-name="f" unicode="f" horiz-adv-x="726" 
d="M213 0v865h-155v185h155v106c0 209 107 298 344 298c54 0 85 -4 104 -7v-173c-15 1 -28 3 -61 3c-105 0 -156 -34 -156 -141v-86h204v-185h-201v-865h-234z" />
    <glyph glyph-name="g" unicode="g" horiz-adv-x="1155" 
d="M549 -212c166 0 247 87 247 239v151h-9c-40 -92 -151 -165 -300 -165c-234 0 -407 173 -407 470v116c0 293 170 474 409 474c171 0 262 -79 303 -167h9v152h230v-1040c0 -298 -223 -412 -489 -412c-301 0 -433 155 -439 317h232c12 -74 81 -135 214 -135zM564 881
c-149 0 -244 -115 -244 -303v-88c0 -189 102 -295 245 -295c147 0 230 125 230 287v97c0 174 -87 302 -231 302z" />
    <glyph glyph-name="h" unicode="h" horiz-adv-x="1191" 
d="M141 0v1437h236v-528h10c29 71 120 166 294 166c230 0 380 -160 380 -408v-667h-237v614c0 163 -83 257 -219 257c-138 0 -228 -90 -228 -258v-613h-236z" />
    <glyph glyph-name="i" unicode="i" horiz-adv-x="554" 
d="M159 0v1058h236v-1058h-236zM135 1320c0 73 58 126 140 126c86 0 143 -53 143 -126s-56 -126 -143 -126c-82 0 -140 53 -140 126z" />
    <glyph glyph-name="j" unicode="j" horiz-adv-x="553" 
d="M135 1320c0 73 58 126 140 126c86 0 143 -53 143 -126s-56 -126 -143 -126c-82 0 -140 53 -140 126zM394 1058v-1078c0 -245 -130 -348 -330 -348c-36 0 -89 4 -106 8v174c15 -3 39 -5 60 -5c98 0 141 52 141 174v1075h235z" />
    <glyph glyph-name="k" unicode="k" horiz-adv-x="1075" 
d="M376 375v-375h-237v1437h237v-831h10l377 452h268l-395 -457l422 -601h-278l-322 463z" />
    <glyph glyph-name="l" unicode="l" horiz-adv-x="525" 
d="M145 0v1437h236v-1437h-236z" />
    <glyph glyph-name="m" unicode="m" horiz-adv-x="1767" 
d="M137 0v1058h232v-145h12c30 76 121 162 274 162c164 0 261 -71 299 -179h10c36 91 147 179 323 179c220 0 348 -140 348 -353v-722h-236v660c0 135 -74 214 -197 214c-127 0 -201 -87 -201 -225v-649h-230v649c0 155 -81 225 -198 225c-111 0 -200 -73 -200 -223v-651
h-236z" />
    <glyph glyph-name="n" unicode="n" horiz-adv-x="1185" 
d="M137 0v1058h232v-149h9c36 81 140 166 305 166c210 0 370 -130 370 -376v-699h-237v625c0 173 -84 246 -219 246c-138 0 -224 -86 -224 -253v-618h-236z" />
    <glyph glyph-name="o" unicode="o" horiz-adv-x="1126" 
d="M564 1076c318 0 475 -208 475 -507v-76c0 -309 -157 -511 -475 -511s-476 200 -476 511v75c0 291 158 508 476 508zM564 890c-184 0 -239 -159 -239 -330v-61c0 -170 54 -329 239 -329c184 0 236 158 236 329v61c0 172 -53 330 -236 330z" />
    <glyph glyph-name="p" unicode="p" horiz-adv-x="1180" 
d="M688 -14c-164 0 -260 73 -304 163h-10v-506h-236v1416h231v-153h9c42 97 149 167 314 167c237 0 398 -173 398 -481v-127c0 -307 -159 -479 -402 -479zM616 178c137 0 233 101 233 307v89c0 200 -91 307 -237 307c-147 0 -238 -117 -238 -295v-108
c0 -170 90 -300 242 -300z" />
    <glyph glyph-name="q" unicode="q" horiz-adv-x="1179" 
d="M493 1073c161 0 265 -68 308 -167h9v152h231v-1416h-236v507h-9c-42 -96 -150 -163 -305 -163c-251 0 -402 180 -402 480v130c0 294 158 477 404 477zM567 880c-153 0 -237 -112 -237 -305v-92c0 -194 89 -307 238 -307c155 0 237 133 237 304v96c0 190 -90 304 -238 304
z" />
    <glyph glyph-name="r" unicode="r" horiz-adv-x="752" 
d="M150 0v1058h236v-137h9c26 66 84 153 251 153c32 0 57 -3 78 -7v-207c-19 6 -59 8 -98 8c-176 0 -236 -104 -236 -246v-622h-240z" />
    <glyph glyph-name="s" unicode="s" horiz-adv-x="1014" 
d="M93 749c0 232 197 327 416 327c249 0 395 -130 395 -321h-211c-7 71 -53 154 -190 154c-111 0 -184 -53 -184 -139c0 -115 154 -130 270 -151c197 -33 346 -99 346 -297c0 -214 -170 -340 -443 -340c-258 0 -419 122 -419 311h230c11 -82 79 -142 200 -142
c143 0 202 64 202 143c0 107 -122 124 -263 151c-193 39 -349 97 -349 304z" />
    <glyph glyph-name="t" unicode="t" horiz-adv-x="715" 
d="M203 1050v264h230v-264h206v-185h-206v-543c0 -112 44 -144 160 -144c20 0 39 0 52 2v-179c-19 -3 -62 -8 -110 -8c-260 0 -336 92 -336 305v567h-148v185h152z" />
    <glyph glyph-name="u" unicode="u" horiz-adv-x="1181" 
d="M1043 1058v-1058h-231v150h-10c-35 -83 -133 -166 -306 -166c-217 0 -366 125 -366 372v702h237v-638c0 -181 103 -234 217 -234c128 0 223 83 223 237v635h236z" />
    <glyph glyph-name="v" unicode="v" horiz-adv-x="1026" 
d="M376 0l-358 1058h258l226 -832h10l247 832h250l-375 -1058h-258z" />
    <glyph glyph-name="w" unicode="w" horiz-adv-x="1532" 
d="M1508 1058l-277 -1058h-242l-215 772h-7l-211 -772h-244l-288 1058h253l164 -797h10l208 797h222l214 -797h10l168 797h235z" />
    <glyph glyph-name="x" unicode="x" horiz-adv-x="1060" 
d="M748 0l-219 369h-10l-220 -369h-254l337 525l-346 533h276l214 -367h10l221 367h262l-350 -521l348 -537h-269z" />
    <glyph glyph-name="y" unicode="y" horiz-adv-x="1072" 
d="M1036 1058c0 0 -353 -1031 -356 -1039l-27 -72c-67 -180 -159 -327 -413 -327c-52 0 -106 6 -134 11v175c17 -3 57 -6 84 -6c129 0 176 55 197 151l12 43l-373 1064h261l243 -848h9l247 848h250z" />
    <glyph glyph-name="z" unicode="z" horiz-adv-x="989" 
d="M88 0v140l524 723v12h-521v183h809v-151l-512 -711v-11h522v-185h-822z" />
    <glyph glyph-name="braceleft" unicode="{" horiz-adv-x="766" 
d="M284 597v-26c122 -11 186 -88 186 -230v-277c0 -145 50 -201 210 -201h41v-176h-82c-256 0 -392 95 -392 351v234c0 137 -30 199 -162 199v225c132 0 162 63 162 199v204c0 254 136 342 392 342h82v-175h-41c-160 0 -210 -56 -210 -201v-248c0 -143 -64 -208 -186 -220z
" />
    <glyph glyph-name="bar" unicode="|" horiz-adv-x="691" 
d="M450 -302h-209v1739h209v-1739z" />
    <glyph glyph-name="braceright" unicode="}" horiz-adv-x="766" 
d="M482 571v26c-121 12 -186 77 -186 220v248c0 145 -50 201 -210 201h-41v175h83c255 0 390 -88 390 -342v-204c0 -136 31 -199 164 -199v-225c-133 0 -164 -62 -164 -199v-234c0 -256 -135 -351 -390 -351h-83v176h41c160 0 210 56 210 201v277c0 142 65 219 186 230z" />
    <glyph glyph-name="asciitilde" unicode="~" horiz-adv-x="1114" 
d="M751 483c-87 0 -155 41 -227 106c-53 47 -100 94 -154 94c-90 0 -118 -81 -123 -163h-183c0 198 82 364 297 364c89 0 157 -39 227 -104c50 -48 97 -93 153 -93c91 0 119 78 124 162h183c0 -197 -87 -366 -297 -366z" />
    <glyph glyph-name="nonbreakingspace" unicode="&#xa0;" horiz-adv-x="405" 
 />
    <glyph glyph-name="exclamdown" unicode="&#xa1;" horiz-adv-x="544" 
d="M402 -277h-262l28 953h206zM421 973c0 -76 -59 -130 -149 -130c-86 0 -147 54 -147 130c0 80 61 133 147 133c90 0 149 -53 149 -133z" />
    <glyph glyph-name="cent" unicode="&#xa2;" horiz-adv-x="1144" 
d="M1014 475c-4 -170 -137 -313 -348 -335v-225h-182v225c-214 23 -375 187 -375 464v158c0 267 163 432 375 457v234h182v-235c212 -24 339 -182 343 -343h-218c-9 67 -68 167 -217 167c-156 0 -244 -116 -244 -282v-157c0 -173 96 -279 246 -279c142 0 206 73 221 151h217
z" />
    <glyph glyph-name="sterling" unicode="&#xa3;" horiz-adv-x="1144" 
d="M1079 193v-193h-986v202c104 6 166 32 166 232v169h-183v167h183v265c0 227 167 356 408 356c249 0 400 -129 405 -353h-222c-5 89 -68 160 -182 160c-127 0 -183 -86 -183 -189v-239h294v-167h-294l-1 -178c-1 -106 -19 -187 -77 -218v-14h672z" />
    <glyph glyph-name="currency" unicode="&#xa4;" horiz-adv-x="1144" 
d="M948 143l-167 167c-61 -37 -133 -59 -209 -59c-79 0 -152 22 -214 62l-169 -170l-123 124l168 169c-41 62 -64 136 -64 216c0 78 22 150 61 211l-165 165l124 124l163 -164c63 42 138 66 219 66c79 0 153 -23 215 -63l161 161l124 -124l-162 -161c40 -62 63 -136 63 -215
c0 -81 -24 -157 -67 -220l166 -165zM343 652c0 -126 102 -228 229 -228c125 0 229 102 229 228s-104 229 -229 229c-127 0 -229 -103 -229 -229z" />
    <glyph glyph-name="yen" unicode="&#xa5;" horiz-adv-x="1144" 
d="M982 232h-289v-232h-241v232h-286v153h286v130h-286v153h218l-389 697h270l304 -587h11l306 587h264l-390 -697h222v-153h-289v-130h289v-153z" />
    <glyph glyph-name="brokenbar" unicode="&#xa6;" horiz-adv-x="514" 
d="M361 781h-208v656h208v-656zM361 -302h-208v681h208v-681z" />
    <glyph glyph-name="section" unicode="&#xa7;" horiz-adv-x="931" 
d="M650 72c0 111 -122 135 -262 172c-171 46 -316 115 -316 302c0 137 93 210 167 249v8c-80 45 -160 120 -160 257c0 220 184 333 394 333c232 0 381 -135 381 -321h-200c-5 67 -67 147 -187 147c-102 0 -171 -60 -171 -147c0 -113 127 -141 257 -173
c160 -40 323 -97 323 -301c0 -127 -81 -212 -153 -260v-8c75 -46 146 -110 146 -237c0 -207 -164 -344 -408 -344c-226 0 -399 119 -401 318h206c12 -85 78 -143 195 -143c136 0 189 71 189 148zM557 390c61 26 106 97 106 169c0 97 -77 143 -194 169c-21 5 -47 10 -69 14
c-55 -18 -117 -86 -117 -165c0 -101 81 -139 192 -167c26 -7 53 -13 82 -20z" />
    <glyph glyph-name="dieresis" unicode="&#xa8;" horiz-adv-x="947" 
d="M164 1325c0 66 45 111 110 111c67 0 112 -45 112 -111c0 -63 -44 -109 -112 -109c-65 0 -110 46 -110 109zM544 1325c0 66 45 111 110 111c68 0 113 -45 113 -111c0 -63 -45 -109 -113 -109c-65 0 -110 46 -110 109z" />
    <glyph glyph-name="copyright" unicode="&#xa9;" horiz-adv-x="1640" 
d="M493 632v99c0 212 141 332 339 332c193 0 308 -129 311 -260h-154c-6 50 -45 122 -156 122c-115 0 -182 -62 -182 -200v-94c0 -131 74 -190 182 -190c105 0 150 46 160 105h154c-4 -128 -110 -249 -315 -249c-198 0 -339 117 -339 335zM235 641c0 -335 235 -579 590 -579
s593 244 593 579v106c0 309 -241 558 -593 558s-590 -248 -590 -558v-106zM826 -64c-426 0 -720 302 -720 708v103c0 382 300 685 720 685c421 0 720 -307 720 -685v-103c0 -406 -293 -708 -720 -708z" />
    <glyph glyph-name="ordfeminine" unicode="&#xaa;" horiz-adv-x="649" 
d="M260 765c-125 0 -206 66 -206 178c0 107 72 176 224 176h146v51c0 54 -39 79 -99 79c-59 0 -89 -23 -95 -57h-151c6 96 72 176 250 176c146 0 255 -53 255 -202v-392h-153v74h-7c-24 -43 -73 -83 -164 -83zM311 878c62 0 113 38 113 92v54h-111c-66 1 -100 -26 -100 -70
c0 -52 47 -76 98 -76z" />
    <glyph glyph-name="guillemotleft" unicode="&#xab;" horiz-adv-x="1279" 
d="M592 565l344 404h233l-339 -403v-6l339 -405h-242l-335 402v8zM99 565l344 404h233l-339 -403v-6l339 -405h-242l-335 402v8z" />
    <glyph glyph-name="logicalnot" unicode="&#xac;" horiz-adv-x="1144" 
d="M1067 91h-205v358h-788v189h993v-547z" />
    <glyph glyph-name="registered" unicode="&#xae;" horiz-adv-x="1158" 
d="M579 414c-287 0 -496 203 -496 477v69c0 257 213 462 496 462c282 0 496 -207 496 -462v-69c0 -274 -207 -477 -496 -477zM579 517c227 0 391 160 391 374v68c0 199 -165 361 -391 361s-390 -161 -390 -361v-68c0 -214 163 -374 390 -374zM504 1087v-142h77
c44 0 94 9 94 72c0 45 -33 70 -84 70h-87zM504 689h-109v480h231c98 0 162 -65 162 -150c0 -72 -42 -127 -95 -142l110 -188h-123l-95 175h-81v-175z" />
    <glyph glyph-name="macron" unicode="&#xaf;" horiz-adv-x="947" 
d="M755 1254h-571v129h571v-129z" />
    <glyph glyph-name="degree" unicode="&#xb0;" horiz-adv-x="551" 
d="M277 908c-134 0 -239 105 -239 239c0 133 105 237 239 237c132 0 238 -104 238 -237c0 -134 -106 -239 -238 -239zM277 1036c62 0 109 51 109 111c0 61 -48 110 -109 110c-60 0 -110 -49 -110 -110c0 -60 50 -111 110 -111z" />
    <glyph glyph-name="plusminus" unicode="&#xb1;" horiz-adv-x="1144" 
d="M670 648v-264h-201v264h-379v182h379v248h201v-248h382v-182h-382zM1054 87h-961v186h961v-186z" />
    <glyph glyph-name="twosuperior" unicode="&#xb2;" horiz-adv-x="643" 
d="M223 1153h-156v11c0 105 76 215 248 215c149 0 244 -83 244 -197c0 -98 -75 -169 -121 -214l-146 -138v-3h278v-133h-489v102l243 246c33 33 74 78 74 126c0 49 -38 81 -87 81c-56 0 -88 -40 -88 -84v-12z" />
    <glyph glyph-name="threesuperior" unicode="&#xb3;" horiz-adv-x="654" 
d="M240 976v124h75c56 0 91 34 91 79c0 46 -37 76 -90 76c-60 0 -91 -37 -94 -78h-151c5 116 90 202 249 202c145 0 241 -72 241 -178c0 -80 -58 -137 -125 -153v-4c78 -12 146 -61 146 -158c0 -130 -120 -204 -262 -204c-172 0 -257 101 -259 205h151c3 -43 40 -78 102 -78
c65 0 107 36 107 85c0 46 -38 82 -104 82h-77z" />
    <glyph glyph-name="acute" unicode="&#xb4;" horiz-adv-x="947" 
d="M412 1218h-195l198 286h240z" />
    <glyph glyph-name="paragraph" unicode="&#xb6;" horiz-adv-x="1348" 
d="M798 -210h-227v685h-20c-188 0 -456 129 -456 445c0 344 268 445 457 445h246v-1575zM959 -210v1575h226v-1575h-226z" />
    <glyph glyph-name="periodcentered" unicode="&#xb7;" horiz-adv-x="607" 
d="M140 741c0 84 63 138 141 138c82 0 144 -55 144 -138c0 -84 -63 -139 -144 -139c-77 0 -141 55 -141 139z" />
    <glyph glyph-name="cedilla" unicode="&#xb8;" horiz-adv-x="947" 
d="M353 -235v94l56 148h144l-50 -132c121 0 200 -59 200 -166c0 -132 -101 -189 -237 -193c-65 -2 -122 8 -148 15v117c27 -8 79 -13 113 -13c53 0 113 13 113 67c0 58 -57 63 -137 63h-54z" />
    <glyph glyph-name="onesuperior" unicode="&#xb9;" horiz-adv-x="575" 
d="M427 694h-165v517h-8l-154 -110v147l162 117h165v-671z" />
    <glyph glyph-name="ordmasculine" unicode="&#xba;" horiz-adv-x="653" 
d="M327 1246c-83 0 -123 -66 -123 -151v-60c0 -84 36 -152 123 -152c86 0 122 67 122 152v60c0 85 -39 151 -122 151zM328 1368c169 0 281 -105 281 -272v-61c0 -176 -112 -274 -281 -274c-172 0 -284 98 -284 273v62c0 163 113 272 284 272z" />
    <glyph glyph-name="guillemotright" unicode="&#xbb;" horiz-adv-x="1279" 
d="M1176 565v-8l-335 -402h-242l339 405v6l-339 403h233zM683 565v-8l-335 -402h-242l339 405v6l-339 403h233z" />
    <glyph glyph-name="onequarter" unicode="&#xbc;" horiz-adv-x="1370" 
d="M931 235h185v312h-7c-64 -101 -119 -200 -178 -310v-2zM1041 670h222v-435h81v-122h-81v-113h-147v113h-333v120c80 146 171 294 258 437zM348 694h-165v517h-8l-154 -110v147l162 117h165v-671zM237 0h-184l544 704l503 661h185l-538 -696z" />
    <glyph glyph-name="onehalf" unicode="&#xbd;" horiz-adv-x="1383" 
d="M1031 449h-158v11c0 106 77 218 251 218c151 0 248 -84 248 -200c0 -99 -76 -171 -123 -217l-148 -139v-3h282v-135h-496v103l246 249c34 34 75 79 75 128c0 50 -38 82 -88 82c-56 0 -89 -40 -89 -85v-12zM348 694h-165v517h-8l-154 -110v147l162 117h165v-671zM237 0
h-184l544 704l503 661h185l-538 -696z" />
    <glyph glyph-name="threequarters" unicode="&#xbe;" horiz-adv-x="1420" 
d="M981 236h185v311h-7c-65 -101 -119 -199 -178 -308v-3zM1091 670h223v-434h80v-123h-80v-113h-148v113h-333v120c79 146 171 294 258 437zM196 960v125h76c57 0 92 34 92 80s-37 76 -91 76c-60 0 -92 -37 -95 -78h-152c5 117 91 204 251 204c147 0 244 -73 244 -180
c0 -81 -59 -138 -127 -155v-4c79 -12 148 -61 148 -159c0 -132 -121 -206 -265 -206c-173 0 -259 102 -261 207h152c3 -44 41 -79 103 -79c66 0 108 36 108 86c0 46 -38 83 -105 83h-78zM287 0h-184l544 704l503 661h185l-538 -696z" />
    <glyph glyph-name="questiondown" unicode="&#xbf;" horiz-adv-x="967" 
d="M658 961c0 -76 -59 -130 -150 -130c-85 0 -146 54 -146 130c0 80 61 133 146 133c91 0 150 -53 150 -133zM916 82c7 -297 -224 -401 -439 -401c-224 0 -427 116 -427 356c0 171 101 252 196 323c117 87 160 120 160 232v55h218l1 -69c7 -148 -74 -239 -182 -316
c-94 -69 -153 -114 -153 -212c0 -126 96 -179 200 -179c137 0 206 93 207 211h219z" />
    <glyph glyph-name="Agrave" unicode="&#xc0;" horiz-adv-x="1241" 
d="M261 0h-244l466 1365h275l465 -1365h-259l-116 368h-471zM618 1120h-9l-179 -568h366zM747 1507h-200l-298 208h242z" />
    <glyph glyph-name="Aacute" unicode="&#xc1;" horiz-adv-x="1241" 
d="M261 0h-244l466 1365h275l465 -1365h-259l-116 368h-471zM618 1120h-9l-179 -568h366zM484 1507l262 213h249l-304 -213h-207z" />
    <glyph glyph-name="Acircumflex" unicode="&#xc2;" horiz-adv-x="1241" 
d="M261 0h-244l466 1365h275l465 -1365h-259l-116 368h-471zM618 1120h-9l-179 -568h366zM277 1502l273 240h149l269 -240h-194l-145 134h-11l-147 -134h-194z" />
    <glyph glyph-name="Atilde" unicode="&#xc3;" horiz-adv-x="1241" 
d="M261 0h-244l466 1365h275l465 -1365h-259l-116 368h-471zM618 1120h-9l-179 -568h366zM600 1531c-24 22 -46 49 -81 49c-50 0 -62 -47 -64 -88h-128c0 102 55 207 177 207c66 0 104 -25 147 -65c28 -25 45 -50 79 -50c47 0 63 57 66 99h128c0 -107 -71 -210 -181 -210
c-78 0 -111 26 -143 58z" />
    <glyph glyph-name="Adieresis" unicode="&#xc4;" horiz-adv-x="1241" 
d="M261 0h-244l466 1365h275l465 -1365h-259l-116 368h-471zM618 1120h-9l-179 -568h366zM376 1582c0 58 40 99 99 99s100 -41 100 -99c0 -57 -40 -98 -100 -98c-59 0 -99 41 -99 98zM705 1582c0 58 40 99 99 99c60 0 100 -41 100 -99c0 -57 -40 -98 -100 -98
c-59 0 -99 41 -99 98z" />
    <glyph glyph-name="Aring" unicode="&#xc5;" horiz-adv-x="1241" 
d="M507 1487c0 -60 50 -108 110 -108c61 0 110 48 110 108c0 62 -49 109 -110 109c-60 0 -110 -47 -110 -109zM797 552l-177 568h-11l-178 -568h366zM261 0h-243l449 1312c-55 38 -91 103 -91 177c0 132 107 236 241 236c133 0 240 -104 240 -236c0 -71 -34 -132 -84 -169
l450 -1320h-259l-115 368h-471z" />
    <glyph glyph-name="AE" unicode="&#xc6;" horiz-adv-x="1879" 
d="M848 1164l-292 -598h361v598h-69zM917 376h-448l-191 -376h-268l692 1365h1070v-201h-615v-376h579v-191h-579v-395h615v-202h-855v376z" />
    <glyph glyph-name="Ccedilla" unicode="&#xc7;" horiz-adv-x="1270" 
d="M644 -484c-65 -2 -121 8 -148 15v117c27 -8 79 -13 114 -13c53 0 112 13 112 67c0 58 -57 63 -136 63h-54v94l44 118c-300 32 -480 250 -480 620v165c0 403 214 630 560 630c337 0 526 -227 526 -474v-19h-234c0 144 -101 286 -291 286c-189 0 -317 -139 -317 -424v-163
c0 -288 127 -417 321 -417c189 0 287 123 287 268h234v-20c0 -208 -154 -427 -462 -453l-39 -101c121 0 201 -59 201 -166c0 -132 -102 -189 -238 -193z" />
    <glyph glyph-name="Egrave" unicode="&#xc8;" horiz-adv-x="1118" 
d="M701 1507h-200l-298 208h242zM1012 202v-202h-862v1365h862v-202h-621v-375h584v-191h-584v-395h621z" />
    <glyph glyph-name="Eacute" unicode="&#xc9;" horiz-adv-x="1118" 
d="M438 1507l262 213h249l-304 -213h-207zM1012 202v-202h-862v1365h862v-202h-621v-375h584v-191h-584v-395h621z" />
    <glyph glyph-name="Ecircumflex" unicode="&#xca;" horiz-adv-x="1118" 
d="M231 1502l273 240h149l269 -240h-194l-145 134h-11l-147 -134h-194zM1012 202v-202h-862v1365h862v-202h-621v-375h584v-191h-584v-395h621z" />
    <glyph glyph-name="Edieresis" unicode="&#xcb;" horiz-adv-x="1118" 
d="M329 1582c0 58 40 99 99 99s100 -41 100 -99c0 -57 -40 -98 -100 -98c-59 0 -99 41 -99 98zM658 1582c0 58 40 99 99 99c60 0 100 -41 100 -99c0 -57 -40 -98 -100 -98c-59 0 -99 41 -99 98zM1012 202v-202h-862v1365h862v-202h-621v-375h584v-191h-584v-395h621z" />
    <glyph glyph-name="Igrave" unicode="&#xcc;" horiz-adv-x="543" 
d="M392 0h-242v1365h242v-1365zM398 1507h-200l-298 208h242z" />
    <glyph glyph-name="Iacute" unicode="&#xcd;" horiz-adv-x="543" 
d="M392 0h-242v1365h242v-1365zM135 1507l262 213h249l-304 -213h-207z" />
    <glyph glyph-name="Icircumflex" unicode="&#xce;" horiz-adv-x="543" 
d="M392 0h-242v1365h242v-1365zM-72 1502l273 240h149l269 -240h-194l-145 134h-11l-147 -134h-194z" />
    <glyph glyph-name="Idieresis" unicode="&#xcf;" horiz-adv-x="543" 
d="M392 0h-242v1365h242v-1365zM27 1582c0 58 40 99 99 99s100 -41 100 -99c0 -57 -40 -98 -100 -98c-59 0 -99 41 -99 98zM356 1582c0 58 40 99 99 99c60 0 100 -41 100 -99c0 -57 -40 -98 -100 -98c-59 0 -99 41 -99 98z" />
    <glyph glyph-name="Eth" unicode="&#xd0;" horiz-adv-x="1402" 
d="M716 0h-481v590h-163v210h163v565h481c440 0 607 -280 607 -680c0 -396 -163 -685 -607 -685zM477 205h209c254 0 387 142 387 480c0 283 -96 483 -387 483h-209v-368h265v-210h-265v-385z" />
    <glyph glyph-name="Ntilde" unicode="&#xd1;" horiz-adv-x="1375" 
d="M667 1531c-24 22 -46 49 -81 49c-50 0 -62 -47 -64 -88h-128c0 102 55 207 177 207c66 0 104 -25 147 -65c28 -25 45 -50 79 -50c47 0 63 57 66 99h128c0 -107 -71 -210 -181 -210c-78 0 -111 26 -143 58zM381 0h-231v1365h209l627 -955h8v955h230v-1365h-207l-629 958
h-7v-958z" />
    <glyph glyph-name="Ograve" unicode="&#xd2;" horiz-adv-x="1338" 
d="M795 1507h-200l-298 208h242zM340 770v-185c0 -276 139 -407 329 -407c189 0 328 131 328 407v185c0 276 -139 417 -328 417c-190 0 -329 -141 -329 -417zM96 586v182c0 388 220 624 574 624c355 0 572 -237 572 -624v-182c0 -386 -220 -613 -575 -613s-571 227 -571 613
z" />
    <glyph glyph-name="Oacute" unicode="&#xd3;" horiz-adv-x="1338" 
d="M532 1507l262 213h249l-304 -213h-207zM340 770v-185c0 -276 139 -407 329 -407c189 0 328 131 328 407v185c0 276 -139 417 -328 417c-190 0 -329 -141 -329 -417zM96 586v182c0 388 220 624 574 624c355 0 572 -237 572 -624v-182c0 -386 -220 -613 -575 -613
s-571 227 -571 613z" />
    <glyph glyph-name="Ocircumflex" unicode="&#xd4;" horiz-adv-x="1338" 
d="M325 1502l273 240h149l269 -240h-194l-145 134h-11l-147 -134h-194zM340 770v-185c0 -276 139 -407 329 -407c189 0 328 131 328 407v185c0 276 -139 417 -328 417c-190 0 -329 -141 -329 -417zM96 586v182c0 388 220 624 574 624c355 0 572 -237 572 -624v-182
c0 -386 -220 -613 -575 -613s-571 227 -571 613z" />
    <glyph glyph-name="Otilde" unicode="&#xd5;" horiz-adv-x="1338" 
d="M340 770v-185c0 -276 139 -407 329 -407c189 0 328 131 328 407v185c0 276 -139 417 -328 417c-190 0 -329 -141 -329 -417zM96 586v182c0 388 220 624 574 624c355 0 572 -237 572 -624v-182c0 -386 -220 -613 -575 -613s-571 227 -571 613zM648 1531
c-24 22 -46 49 -81 49c-50 0 -62 -47 -64 -88h-128c0 102 55 207 177 207c66 0 104 -25 147 -65c28 -25 45 -50 79 -50c47 0 63 57 66 99h128c0 -107 -71 -210 -181 -210c-78 0 -111 26 -143 58z" />
    <glyph glyph-name="Odieresis" unicode="&#xd6;" horiz-adv-x="1338" 
d="M424 1582c0 58 40 99 99 99s100 -41 100 -99c0 -57 -40 -98 -100 -98c-59 0 -99 41 -99 98zM753 1582c0 58 40 99 99 99c60 0 100 -41 100 -99c0 -57 -40 -98 -100 -98c-59 0 -99 41 -99 98zM340 770v-185c0 -276 139 -407 329 -407c189 0 328 131 328 407v185
c0 276 -139 417 -328 417c-190 0 -329 -141 -329 -417zM96 586v182c0 388 220 624 574 624c355 0 572 -237 572 -624v-182c0 -386 -220 -613 -575 -613s-571 227 -571 613z" />
    <glyph glyph-name="multiply" unicode="&#xd7;" horiz-adv-x="1144" 
d="M879 67l-307 307l-307 -307l-143 143l307 307l-307 307l143 143l307 -307l307 307l143 -143l-307 -307l307 -307z" />
    <glyph glyph-name="Oslash" unicode="&#xd8;" horiz-adv-x="1338" 
d="M667 -27c-154 0 -283 44 -378 128l-99 -123l-115 93l115 142c-61 98 -94 223 -94 373v182c0 388 220 624 574 624c151 0 278 -45 372 -126l92 114l119 -86l-112 -138c66 -101 101 -232 101 -388v-182c0 -386 -220 -613 -575 -613zM336 583c0 -61 8 -117 23 -162l541 671
c-59 65 -139 98 -232 98c-192 0 -332 -142 -332 -420v-187zM668 173c192 0 333 132 333 410v187c0 68 -10 129 -28 178l-544 -674c59 -68 143 -101 239 -101z" />
    <glyph glyph-name="Ugrave" unicode="&#xd9;" horiz-adv-x="1352" 
d="M802 1507h-200l-298 208h242zM377 1365v-873c0 -196 117 -311 299 -311c181 0 300 116 300 311v873h241v-892c0 -301 -215 -500 -541 -500s-541 201 -541 503v889h242z" />
    <glyph glyph-name="Uacute" unicode="&#xda;" horiz-adv-x="1352" 
d="M539 1507l262 213h249l-304 -213h-207zM377 1365v-873c0 -196 117 -311 299 -311c181 0 300 116 300 311v873h241v-892c0 -301 -215 -500 -541 -500s-541 201 -541 503v889h242z" />
    <glyph glyph-name="Ucircumflex" unicode="&#xdb;" horiz-adv-x="1352" 
d="M332 1502l273 240h149l269 -240h-194l-145 134h-11l-147 -134h-194zM377 1365v-873c0 -196 117 -311 299 -311c181 0 300 116 300 311v873h241v-892c0 -301 -215 -500 -541 -500s-541 201 -541 503v889h242z" />
    <glyph glyph-name="Udieresis" unicode="&#xdc;" horiz-adv-x="1352" 
d="M431 1582c0 58 40 99 99 99s100 -41 100 -99c0 -57 -40 -98 -100 -98c-59 0 -99 41 -99 98zM760 1582c0 58 40 99 99 99c60 0 100 -41 100 -99c0 -57 -40 -98 -100 -98c-59 0 -99 41 -99 98zM377 1365v-873c0 -196 117 -311 299 -311c181 0 300 116 300 311v873h241v-892
c0 -301 -215 -500 -541 -500s-541 201 -541 503v889h242z" />
    <glyph glyph-name="Yacute" unicode="&#xdd;" horiz-adv-x="1132" 
d="M687 0h-242v539l-456 826h270l305 -587h8l308 587h264l-457 -822v-543zM430 1507l262 213h249l-304 -213h-207z" />
    <glyph glyph-name="Thorn" unicode="&#xde;" horiz-adv-x="1180" 
d="M150 1365h241v-240h277c284 0 454 -163 454 -418c0 -259 -172 -417 -455 -417h-275v-290h-242v1365zM392 928v-444h206c157 0 277 35 277 223c0 153 -92 221 -247 221h-236z" />
    <glyph glyph-name="germandbls" unicode="&#xdf;" horiz-adv-x="1283" 
d="M385 0h-238v1047c0 259 199 395 464 396c281 1 463 -148 462 -358c-1 -202 -147 -308 -246 -322v-14c180 -2 373 -121 373 -361c0 -273 -232 -405 -486 -405c-71 0 -136 10 -166 19v189c21 -8 67 -20 138 -20c138 0 273 61 273 224c0 147 -127 231 -308 231h-77v207h46
c107 0 220 85 220 218c0 114 -80 199 -224 199c-169 0 -231 -100 -231 -246v-1004z" />
    <glyph glyph-name="agrave" unicode="&#xe0;" horiz-adv-x="1086" 
d="M722 136c-45 -80 -138 -152 -294 -152c-205 0 -347 122 -347 320c0 189 131 312 375 312h264v112c0 111 -68 160 -187 160c-122 0 -179 -58 -188 -147h-225c9 182 125 334 421 334c245 0 414 -100 414 -352v-723h-223v136h-10zM502 162c123 0 218 82 218 193v108h-220
c-124 0 -183 -60 -183 -145c0 -107 90 -156 185 -156zM675 1222h-195l-248 283h240z" />
    <glyph glyph-name="aacute" unicode="&#xe1;" horiz-adv-x="1086" 
d="M722 136c-45 -80 -138 -152 -294 -152c-205 0 -347 122 -347 320c0 189 131 312 375 312h264v112c0 111 -68 160 -187 160c-122 0 -179 -58 -188 -147h-225c9 182 125 334 421 334c245 0 414 -100 414 -352v-723h-223v136h-10zM502 162c123 0 218 82 218 193v108h-220
c-124 0 -183 -60 -183 -145c0 -107 90 -156 185 -156zM620 1219h-195l198 286h240z" />
    <glyph glyph-name="acircumflex" unicode="&#xe2;" horiz-adv-x="1086" 
d="M722 136c-45 -80 -138 -152 -294 -152c-205 0 -347 122 -347 320c0 189 131 312 375 312h264v112c0 111 -68 160 -187 160c-122 0 -179 -58 -188 -147h-225c9 182 125 334 421 334c245 0 414 -100 414 -352v-723h-223v136h-10zM502 162c123 0 218 82 218 193v108h-220
c-124 0 -183 -60 -183 -145c0 -107 90 -156 185 -156zM238 1221l221 302h162l211 -303h-185l-105 182h-7l-115 -181h-182z" />
    <glyph glyph-name="atilde" unicode="&#xe3;" horiz-adv-x="1086" 
d="M722 136c-45 -80 -138 -152 -294 -152c-205 0 -347 122 -347 320c0 189 131 312 375 312h264v112c0 111 -68 160 -187 160c-122 0 -179 -58 -188 -147h-225c9 182 125 334 421 334c245 0 414 -100 414 -352v-723h-223v136h-10zM502 162c123 0 218 82 218 193v108h-220
c-124 0 -183 -60 -183 -145c0 -107 90 -156 185 -156zM509 1231c-23 23 -47 50 -83 50c-55 0 -68 -52 -70 -99h-140c0 130 60 252 199 252c63 0 105 -27 153 -75c27 -27 47 -54 83 -54c50 0 67 64 70 111h139c0 -126 -77 -252 -203 -252c-76 0 -114 32 -148 67z" />
    <glyph glyph-name="adieresis" unicode="&#xe4;" horiz-adv-x="1086" 
d="M722 136c-45 -80 -138 -152 -294 -152c-205 0 -347 122 -347 320c0 189 131 312 375 312h264v112c0 111 -68 160 -187 160c-122 0 -179 -58 -188 -147h-225c9 182 125 334 421 334c245 0 414 -100 414 -352v-723h-223v136h-10zM502 162c123 0 218 82 218 193v108h-220
c-124 0 -183 -60 -183 -145c0 -107 90 -156 185 -156zM243 1277c0 66 45 111 110 111c67 0 112 -45 112 -111c0 -63 -44 -109 -112 -109c-65 0 -110 46 -110 109zM623 1277c0 66 45 111 110 111c68 0 113 -45 113 -111c0 -63 -45 -109 -113 -109c-65 0 -110 46 -110 109z
" />
    <glyph glyph-name="aring" unicode="&#xe5;" horiz-adv-x="1086" 
d="M722 136c-45 -80 -138 -152 -294 -152c-205 0 -347 122 -347 320c0 189 131 312 375 312h264v112c0 111 -68 160 -187 160c-122 0 -179 -58 -188 -147h-225c9 182 125 334 421 334c245 0 414 -100 414 -352v-723h-223v136h-10zM502 162c123 0 218 82 218 193v108h-220
c-124 0 -183 -60 -183 -145c0 -107 90 -156 185 -156zM540 1188c-116 0 -207 85 -207 201s90 200 207 200c116 0 206 -84 206 -200s-90 -201 -206 -201zM443 1389c0 -55 42 -98 96 -98c55 0 96 43 96 98c0 54 -41 97 -96 97c-54 0 -96 -43 -96 -97z" />
    <glyph glyph-name="ae" unicode="&#xe6;" horiz-adv-x="1730" 
d="M1206 -18c-208 0 -336 89 -387 199h-14c-53 -100 -170 -199 -360 -199c-220 0 -366 121 -366 323c0 193 135 316 381 316h262v98c0 116 -74 169 -191 169c-116 0 -173 -47 -189 -115h-224c13 175 147 303 419 303c140 0 266 -47 326 -133h14c60 84 183 133 316 133
c268 0 451 -184 451 -478v-123h-677v-72c0 -137 96 -234 238 -234c113 0 186 53 200 119h228c-12 -125 -136 -306 -427 -306zM1194 894c-130 0 -227 -100 -227 -243v-26h447v18c0 154 -83 251 -220 251zM504 162c121 0 218 82 218 193v114h-219c-126 0 -190 -62 -190 -148
c0 -108 94 -159 191 -159z" />
    <glyph glyph-name="ccedilla" unicode="&#xe7;" horiz-adv-x="1054" 
d="M537 -469c-65 -3 -122 7 -148 15v117c27 -8 79 -14 113 -14c53 0 113 14 113 68c0 57 -50 62 -130 62h-54v94l48 113c-249 28 -391 218 -391 494v105c0 283 166 491 461 491c271 0 425 -167 427 -358h-221c-9 78 -76 168 -200 168c-156 0 -231 -134 -231 -306v-100
c0 -177 84 -302 231 -302c131 0 190 70 205 149h221c-5 -177 -141 -316 -357 -341l-43 -97c121 0 193 -58 193 -165c0 -132 -101 -189 -237 -193z" />
    <glyph glyph-name="egrave" unicode="&#xe8;" horiz-adv-x="1089" 
d="M677 1222h-195l-248 283h240zM561 -18c-305 0 -473 193 -473 500v89c0 307 170 505 459 505c298 0 458 -204 458 -504v-95h-684v-33c0 -147 78 -275 239 -275c129 0 192 67 206 141h228c-17 -142 -134 -328 -433 -328zM321 636h454v2c0 149 -85 256 -226 256
c-142 0 -228 -108 -228 -256v-2z" />
    <glyph glyph-name="eacute" unicode="&#xe9;" horiz-adv-x="1089" 
d="M622 1219h-195l198 286h240zM561 -18c-305 0 -473 193 -473 500v89c0 307 170 505 459 505c298 0 458 -204 458 -504v-95h-684v-33c0 -147 78 -275 239 -275c129 0 192 67 206 141h228c-17 -142 -134 -328 -433 -328zM321 636h454v2c0 149 -85 256 -226 256
c-142 0 -228 -108 -228 -256v-2z" />
    <glyph glyph-name="ecircumflex" unicode="&#xea;" horiz-adv-x="1089" 
d="M240 1221l221 302h162l211 -303h-185l-105 182h-7l-115 -181h-182zM561 -18c-305 0 -473 193 -473 500v89c0 307 170 505 459 505c298 0 458 -204 458 -504v-95h-684v-33c0 -147 78 -275 239 -275c129 0 192 67 206 141h228c-17 -142 -134 -328 -433 -328zM321 636h454v2
c0 149 -85 256 -226 256c-142 0 -228 -108 -228 -256v-2z" />
    <glyph glyph-name="edieresis" unicode="&#xeb;" horiz-adv-x="1089" 
d="M561 -18c-305 0 -473 193 -473 500v89c0 307 170 505 459 505c298 0 458 -204 458 -504v-95h-684v-33c0 -147 78 -275 239 -275c129 0 192 67 206 141h228c-17 -142 -134 -328 -433 -328zM321 636h454v2c0 149 -85 256 -226 256c-142 0 -228 -108 -228 -256v-2zM245 1277
c0 66 45 111 110 111c67 0 112 -45 112 -111c0 -63 -44 -109 -112 -109c-65 0 -110 46 -110 109zM625 1277c0 66 45 111 110 111c68 0 113 -45 113 -111c0 -63 -45 -109 -113 -109c-65 0 -110 46 -110 109z" />
    <glyph glyph-name="igrave" unicode="&#xec;" horiz-adv-x="553" 
d="M412 1222h-195l-248 283h240zM161 0v1058h240v-1058h-240z" />
    <glyph glyph-name="iacute" unicode="&#xed;" horiz-adv-x="553" 
d="M357 1219h-195l198 286h240zM161 0v1058h240v-1058h-240z" />
    <glyph glyph-name="icircumflex" unicode="&#xee;" horiz-adv-x="553" 
d="M-25 1221l221 302h162l211 -303h-185l-105 182h-7l-115 -181h-182zM161 0v1058h240v-1058h-240z" />
    <glyph glyph-name="idieresis" unicode="&#xef;" horiz-adv-x="553" 
d="M161 0v1058h240v-1058h-240zM-20 1277c0 66 45 111 110 111c67 0 112 -45 112 -111c0 -63 -44 -109 -112 -109c-65 0 -110 46 -110 109zM360 1277c0 66 45 111 110 111c68 0 113 -45 113 -111c0 -63 -45 -109 -113 -109c-65 0 -110 46 -110 109z" />
    <glyph glyph-name="eth" unicode="&#xf0;" horiz-adv-x="1126" 
d="M563 -18c-282 0 -475 173 -475 484v76c0 291 175 481 435 481c130 0 206 -53 248 -104h12c-1 4 -10 53 -12 58c-17 76 -68 168 -131 241l-279 -105l-44 118l228 84c-68 63 -140 115 -205 158l211 68c78 -39 138 -85 198 -146l241 90l47 -114l-192 -72
c120 -151 194 -353 194 -568v-259c0 -310 -192 -490 -476 -490zM564 837c-145 0 -243 -114 -243 -297v-69c0 -187 93 -297 243 -297c149 0 241 110 241 297v77c0 191 -95 289 -241 289z" />
    <glyph glyph-name="ntilde" unicode="&#xf1;" horiz-adv-x="1185" 
d="M559 1231c-23 23 -47 50 -83 50c-55 0 -68 -52 -70 -99h-140c0 130 60 252 199 252c63 0 105 -27 153 -75c27 -27 47 -54 83 -54c50 0 67 64 70 111h139c0 -126 -77 -252 -203 -252c-76 0 -114 32 -148 67zM137 0v1058h232v-149h9c36 81 140 166 305 166
c210 0 370 -130 370 -376v-699h-237v625c0 173 -84 246 -219 246c-138 0 -224 -86 -224 -253v-618h-236z" />
    <glyph glyph-name="ograve" unicode="&#xf2;" horiz-adv-x="1126" 
d="M696 1222h-195l-248 283h240zM564 1076c318 0 475 -208 475 -507v-76c0 -309 -157 -511 -475 -511s-476 200 -476 511v75c0 291 158 508 476 508zM564 890c-184 0 -239 -159 -239 -330v-61c0 -170 54 -329 239 -329c184 0 236 158 236 329v61c0 172 -53 330 -236 330z
" />
    <glyph glyph-name="oacute" unicode="&#xf3;" horiz-adv-x="1126" 
d="M641 1219h-195l198 286h240zM564 1076c318 0 475 -208 475 -507v-76c0 -309 -157 -511 -475 -511s-476 200 -476 511v75c0 291 158 508 476 508zM564 890c-184 0 -239 -159 -239 -330v-61c0 -170 54 -329 239 -329c184 0 236 158 236 329v61c0 172 -53 330 -236 330z" />
    <glyph glyph-name="ocircumflex" unicode="&#xf4;" horiz-adv-x="1126" 
d="M259 1221l221 302h162l211 -303h-185l-105 182h-7l-115 -181h-182zM564 1076c318 0 475 -208 475 -507v-76c0 -309 -157 -511 -475 -511s-476 200 -476 511v75c0 291 158 508 476 508zM564 890c-184 0 -239 -159 -239 -330v-61c0 -170 54 -329 239 -329
c184 0 236 158 236 329v61c0 172 -53 330 -236 330z" />
    <glyph glyph-name="otilde" unicode="&#xf5;" horiz-adv-x="1126" 
d="M530 1231c-23 23 -47 50 -83 50c-55 0 -68 -52 -70 -99h-140c0 130 60 252 199 252c63 0 105 -27 153 -75c27 -27 47 -54 83 -54c50 0 67 64 70 111h139c0 -126 -77 -252 -203 -252c-76 0 -114 32 -148 67zM564 1076c318 0 475 -208 475 -507v-76
c0 -309 -157 -511 -475 -511s-476 200 -476 511v75c0 291 158 508 476 508zM564 890c-184 0 -239 -159 -239 -330v-61c0 -170 54 -329 239 -329c184 0 236 158 236 329v61c0 172 -53 330 -236 330z" />
    <glyph glyph-name="odieresis" unicode="&#xf6;" horiz-adv-x="1126" 
d="M264 1277c0 66 45 111 110 111c67 0 112 -45 112 -111c0 -63 -44 -109 -112 -109c-65 0 -110 46 -110 109zM644 1277c0 66 45 111 110 111c68 0 113 -45 113 -111c0 -63 -45 -109 -113 -109c-65 0 -110 46 -110 109zM564 1076c318 0 475 -208 475 -507v-76
c0 -309 -157 -511 -475 -511s-476 200 -476 511v75c0 291 158 508 476 508zM564 890c-184 0 -239 -159 -239 -330v-61c0 -170 54 -329 239 -329c184 0 236 158 236 329v61c0 172 -53 330 -236 330z" />
    <glyph glyph-name="divide" unicode="&#xf7;" horiz-adv-x="1144" 
d="M1053 476h-961v178h961v-178zM420 968c0 86 66 146 148 146c85 0 151 -61 151 -146s-66 -144 -151 -144c-82 0 -148 59 -148 144zM426 166c0 87 65 147 147 147c86 0 151 -61 151 -147c0 -85 -65 -143 -151 -143c-81 0 -147 58 -147 143z" />
    <glyph glyph-name="oslash" unicode="&#xf8;" horiz-adv-x="1126" 
d="M405 225c39 -38 91 -60 159 -60c161 0 242 135 242 307v138c0 44 -9 84 -24 117zM319 452c0 -45 9 -89 25 -121l377 505c-39 38 -91 61 -157 61c-157 0 -245 -136 -245 -308v-137zM564 -18c-109 0 -205 28 -283 80l-103 -132l-102 81l109 141c-61 80 -97 186 -97 314v130
c0 290 194 480 476 480c106 0 202 -29 279 -81l101 130l104 -83l-108 -139c62 -81 99 -184 99 -306v-131c0 -309 -194 -484 -475 -484z" />
    <glyph glyph-name="ugrave" unicode="&#xf9;" horiz-adv-x="1181" 
d="M723 1222h-195l-248 283h240zM1043 1058v-1058h-231v150h-10c-35 -83 -133 -166 -306 -166c-217 0 -366 125 -366 372v702h237v-638c0 -181 103 -234 217 -234c128 0 223 83 223 237v635h236z" />
    <glyph glyph-name="uacute" unicode="&#xfa;" horiz-adv-x="1181" 
d="M668 1219h-195l198 286h240zM1043 1058v-1058h-231v150h-10c-35 -83 -133 -166 -306 -166c-217 0 -366 125 -366 372v702h237v-638c0 -181 103 -234 217 -234c128 0 223 83 223 237v635h236z" />
    <glyph glyph-name="ucircumflex" unicode="&#xfb;" horiz-adv-x="1181" 
d="M286 1221l221 302h162l211 -303h-185l-105 182h-7l-115 -181h-182zM1043 1058v-1058h-231v150h-10c-35 -83 -133 -166 -306 -166c-217 0 -366 125 -366 372v702h237v-638c0 -181 103 -234 217 -234c128 0 223 83 223 237v635h236z" />
    <glyph glyph-name="udieresis" unicode="&#xfc;" horiz-adv-x="1181" 
d="M1043 1058v-1058h-231v150h-10c-35 -83 -133 -166 -306 -166c-217 0 -366 125 -366 372v702h237v-638c0 -181 103 -234 217 -234c128 0 223 83 223 237v635h236zM291 1277c0 66 45 111 110 111c67 0 112 -45 112 -111c0 -63 -44 -109 -112 -109c-65 0 -110 46 -110 109z
M671 1277c0 66 45 111 110 111c68 0 113 -45 113 -111c0 -63 -45 -109 -113 -109c-65 0 -110 46 -110 109z" />
    <glyph glyph-name="yacute" unicode="&#xfd;" horiz-adv-x="1072" 
d="M1036 1058c0 0 -353 -1031 -356 -1039l-27 -72c-67 -180 -159 -327 -413 -327c-52 0 -106 6 -134 11v175c17 -3 57 -6 84 -6c129 0 176 55 197 151l12 43l-373 1064h261l243 -848h9l247 848h250zM613 1219h-195l198 286h240z" />
    <glyph glyph-name="thorn" unicode="&#xfe;" horiz-adv-x="1180" 
d="M688 -14c-168 0 -262 80 -302 174h-12v-517h-236l-1 1794h231l1 -546h12c38 99 143 182 311 182c241 0 398 -170 398 -465v-156c0 -298 -159 -466 -402 -466zM616 178c137 0 233 96 233 302v98c0 200 -91 303 -237 303c-147 0 -238 -105 -238 -283v-152
c0 -161 98 -268 242 -268z" />
    <glyph glyph-name="ydieresis" unicode="&#xff;" horiz-adv-x="1072" 
d="M1036 1058c0 0 -353 -1031 -356 -1039l-27 -72c-67 -180 -159 -327 -413 -327c-52 0 -106 6 -134 11v175c17 -3 57 -6 84 -6c129 0 176 55 197 151l12 43l-373 1064h261l243 -848h9l247 848h250zM236 1277c0 66 45 111 110 111c67 0 112 -45 112 -111
c0 -63 -44 -109 -112 -109c-65 0 -110 46 -110 109zM616 1277c0 66 45 111 110 111c68 0 113 -45 113 -111c0 -63 -45 -109 -113 -109c-65 0 -110 46 -110 109z" />
    <glyph glyph-name="Amacron" unicode="&#x100;" horiz-adv-x="1241" 
d="M261 0h-244l466 1365h275l465 -1365h-259l-116 368h-471zM618 1120h-9l-179 -568h366zM906 1516h-572v123h572v-123z" />
    <glyph glyph-name="amacron" unicode="&#x101;" horiz-adv-x="1086" 
d="M722 136c-45 -80 -138 -152 -294 -152c-205 0 -347 122 -347 320c0 189 131 312 375 312h264v112c0 111 -68 160 -187 160c-122 0 -179 -58 -188 -147h-225c9 182 125 334 421 334c245 0 414 -100 414 -352v-723h-223v136h-10zM502 162c123 0 218 82 218 193v108h-220
c-124 0 -183 -60 -183 -145c0 -107 90 -156 185 -156zM829 1220h-571v129h571v-129z" />
    <glyph glyph-name="Abreve" unicode="&#x102;" horiz-adv-x="1241" 
d="M261 0h-244l466 1365h275l465 -1365h-259l-116 368h-471zM618 1120h-9l-179 -568h366zM291 1760h146c0 -78 68 -141 183 -141s183 63 183 141h144c0 -147 -99 -277 -327 -277s-329 130 -329 277z" />
    <glyph glyph-name="abreve" unicode="&#x103;" horiz-adv-x="1086" 
d="M722 136c-45 -80 -138 -152 -294 -152c-205 0 -347 122 -347 320c0 189 131 312 375 312h264v112c0 111 -68 160 -187 160c-122 0 -179 -58 -188 -147h-225c9 182 125 334 421 334c245 0 414 -100 414 -352v-723h-223v136h-10zM502 162c123 0 218 82 218 193v108h-220
c-124 0 -183 -60 -183 -145c0 -107 90 -156 185 -156zM228 1461h145c0 -84 49 -164 163 -164s163 80 163 164h144c-1 -146 -98 -297 -307 -297c-208 0 -309 151 -308 297z" />
    <glyph glyph-name="Aogonek" unicode="&#x104;" horiz-adv-x="1241" 
d="M261 0h-243l466 1365h275l455 -1336c-75 -26 -167 -82 -171 -163c-3 -66 45 -104 117 -104c23 0 59 3 78 8v-138c-20 -9 -74 -20 -137 -20c-121 0 -240 61 -240 197c0 112 73 175 131 215v6h-38l-105 338h-471zM620 1120h-11l-178 -568h366z" />
    <glyph glyph-name="aogonek" unicode="&#x105;" horiz-adv-x="1086" 
d="M502 162c123 0 218 82 218 193v108h-220c-124 0 -183 -60 -183 -145c0 -107 90 -156 185 -156zM968 -366c-23 -8 -69 -22 -134 -22c-119 0 -234 59 -234 198c0 107 59 169 140 218v108h-11c-46 -81 -140 -152 -297 -152c-205 0 -351 122 -351 321c0 187 131 311 375 311
h264v112c0 111 -68 160 -186 160c-123 0 -180 -58 -189 -147h-225c9 184 126 334 422 334c244 0 413 -100 413 -352v-699c-82 -24 -177 -81 -177 -167c0 -60 50 -91 114 -91c23 0 55 3 76 8v-140z" />
    <glyph glyph-name="Cacute" unicode="&#x106;" horiz-adv-x="1270" 
d="M513 1507l262 213h249l-304 -213h-207zM340 761v-163c0 -288 127 -417 321 -417c189 0 287 123 287 268h234v-20c0 -225 -179 -456 -527 -456s-559 223 -559 624v165c0 403 214 630 560 630c337 0 526 -227 526 -474v-19h-234c0 144 -101 286 -291 286
c-189 0 -317 -139 -317 -424z" />
    <glyph glyph-name="cacute" unicode="&#x107;" horiz-adv-x="1054" 
d="M88 480v105c0 283 166 491 461 491c271 0 425 -167 427 -358h-221c-9 78 -76 168 -200 168c-156 0 -231 -134 -231 -306v-100c0 -177 84 -302 231 -302c131 0 190 70 205 149h221c-5 -199 -175 -345 -432 -345c-293 0 -461 197 -461 498zM604 1219h-195l198 286h240z" />
    <glyph glyph-name="Ccircumflex" unicode="&#x108;" horiz-adv-x="1270" 
d="M340 761v-163c0 -288 127 -417 321 -417c189 0 287 123 287 268h234v-20c0 -225 -179 -456 -527 -456s-559 223 -559 624v165c0 403 214 630 560 630c337 0 526 -227 526 -474v-19h-234c0 144 -101 286 -291 286c-189 0 -317 -139 -317 -424zM306 1502l273 240h149
l269 -240h-194l-145 134h-11l-147 -134h-194z" />
    <glyph glyph-name="ccircumflex" unicode="&#x109;" horiz-adv-x="1054" 
d="M222 1221l221 302h162l211 -303h-185l-105 182h-7l-115 -181h-182zM88 480v105c0 283 166 491 461 491c271 0 425 -167 427 -358h-221c-9 78 -76 168 -200 168c-156 0 -231 -134 -231 -306v-100c0 -177 84 -302 231 -302c131 0 190 70 205 149h221
c-5 -199 -175 -345 -432 -345c-293 0 -461 197 -461 498z" />
    <glyph glyph-name="Cdotaccent" unicode="&#x10a;" horiz-adv-x="1270" 
d="M340 761v-163c0 -288 127 -417 321 -417c189 0 287 123 287 268h234v-20c0 -225 -179 -456 -527 -456s-559 223 -559 624v165c0 403 214 630 560 630c337 0 526 -227 526 -474v-19h-234c0 144 -101 286 -291 286c-189 0 -317 -139 -317 -424zM535 1605
c0 68 49 118 115 118c68 0 120 -50 120 -118c0 -67 -52 -115 -120 -115c-66 0 -115 48 -115 115z" />
    <glyph glyph-name="cdotaccent" unicode="&#x10b;" horiz-adv-x="1054" 
d="M88 480v105c0 283 166 491 461 491c271 0 425 -167 427 -358h-221c-9 78 -76 168 -200 168c-156 0 -231 -134 -231 -306v-100c0 -177 84 -302 231 -302c131 0 190 70 205 149h221c-5 -199 -175 -345 -432 -345c-293 0 -461 197 -461 498zM412 1298c0 68 49 118 115 118
c68 0 120 -50 120 -118c0 -67 -52 -115 -120 -115c-66 0 -115 48 -115 115z" />
    <glyph glyph-name="Ccaron" unicode="&#x10c;" horiz-adv-x="1270" 
d="M340 761v-163c0 -288 127 -417 321 -417c189 0 287 123 287 268h234v-20c0 -225 -179 -456 -527 -456s-559 223 -559 624v165c0 403 214 630 560 630c337 0 526 -227 526 -474v-19h-234c0 144 -101 286 -291 286c-189 0 -317 -139 -317 -424zM304 1731h195l146 -124h11
l145 124h195l-269 -227h-149z" />
    <glyph glyph-name="ccaron" unicode="&#x10d;" horiz-adv-x="1054" 
d="M231 1501h182l114 -181h7l105 182h185l-211 -303h-162zM88 480v105c0 283 166 491 461 491c271 0 425 -167 427 -358h-221c-9 78 -76 168 -200 168c-156 0 -231 -134 -231 -306v-100c0 -177 84 -302 231 -302c131 0 190 70 205 149h221c-5 -199 -175 -345 -432 -345
c-293 0 -461 197 -461 498z" />
    <glyph glyph-name="Dcaron" unicode="&#x10e;" horiz-adv-x="1317" 
d="M258 1731h195l146 -124h11l145 124h195l-269 -227h-149zM150 1365h481c440 0 607 -280 607 -680c0 -396 -163 -685 -607 -685h-481v1365zM392 1164v-962h210c254 0 387 142 387 479c0 284 -96 483 -387 483h-210z" />
    <glyph glyph-name="dcaron" unicode="&#x10f;" horiz-adv-x="1396" 
d="M1228 1436h196l-46 -488h-150v488zM494 1073c163 0 269 -73 304 -167h9v531h236v-1437h-231v162h-9c-28 -94 -141 -176 -309 -176c-260 0 -405 191 -405 484v120c0 289 143 483 405 483zM565 881c-157 0 -235 -127 -235 -316v-71c0 -192 80 -317 239 -317
c147 0 238 113 238 315v79c0 192 -91 310 -242 310z" />
    <glyph glyph-name="Dcroat" unicode="&#x110;" horiz-adv-x="1402" 
d="M716 0h-481v590h-163v210h163v565h481c440 0 607 -280 607 -680c0 -396 -163 -685 -607 -685zM477 205h209c254 0 387 142 387 480c0 283 -96 483 -387 483h-209v-368h265v-210h-265v-385z" />
    <glyph glyph-name="dcroat" unicode="&#x111;" horiz-adv-x="1184" 
d="M563 881c-142 0 -232 -106 -232 -295v-112c0 -193 92 -297 236 -297c145 0 240 106 240 284v152c0 161 -101 268 -244 268zM801 169c-28 -94 -139 -183 -312 -183c-240 0 -399 172 -399 457v174c0 280 157 456 402 456c167 0 269 -80 304 -174h11v258h-240v148h247v166
h224v-166h129v-148h-123v-1157h-231v169h-12z" />
    <glyph glyph-name="Emacron" unicode="&#x112;" horiz-adv-x="1118" 
d="M1012 202v-202h-862v1365h862v-202h-621v-375h584v-191h-584v-395h621zM860 1516h-572v123h572v-123z" />
    <glyph glyph-name="emacron" unicode="&#x113;" horiz-adv-x="1089" 
d="M561 -18c-305 0 -473 193 -473 500v89c0 307 170 505 459 505c298 0 458 -204 458 -504v-95h-684v-33c0 -147 78 -275 239 -275c129 0 192 67 206 141h228c-17 -142 -134 -328 -433 -328zM321 636h454v2c0 149 -85 256 -226 256c-142 0 -228 -108 -228 -256v-2zM831 1220
h-571v129h571v-129z" />
    <glyph glyph-name="Ebreve" unicode="&#x114;" horiz-adv-x="1118" 
d="M1012 202v-202h-862v1365h862v-202h-621v-375h584v-191h-584v-395h621zM245 1760h146c0 -78 68 -141 183 -141s183 63 183 141h144c0 -147 -99 -277 -327 -277s-329 130 -329 277z" />
    <glyph glyph-name="ebreve" unicode="&#x115;" horiz-adv-x="1089" 
d="M561 -18c-305 0 -473 193 -473 500v89c0 307 170 505 459 505c298 0 458 -204 458 -504v-95h-684v-33c0 -147 78 -275 239 -275c129 0 192 67 206 141h228c-17 -142 -134 -328 -433 -328zM321 636h454v2c0 149 -85 256 -226 256c-142 0 -228 -108 -228 -256v-2zM230 1461
h145c0 -84 49 -164 163 -164s163 80 163 164h144c-1 -146 -98 -297 -307 -297c-208 0 -309 151 -308 297z" />
    <glyph glyph-name="Edotaccent" unicode="&#x116;" horiz-adv-x="1118" 
d="M460 1605c0 68 49 118 115 118c68 0 120 -50 120 -118c0 -67 -52 -115 -120 -115c-66 0 -115 48 -115 115zM1012 202v-202h-862v1365h862v-202h-621v-375h584v-191h-584v-395h621z" />
    <glyph glyph-name="edotaccent" unicode="&#x117;" horiz-adv-x="1089" 
d="M430 1298c0 68 49 118 115 118c68 0 120 -50 120 -118c0 -67 -52 -115 -120 -115c-66 0 -115 48 -115 115zM561 -18c-305 0 -473 193 -473 500v89c0 307 170 505 459 505c298 0 458 -204 458 -504v-95h-684v-33c0 -147 78 -275 239 -275c129 0 192 67 206 141h228
c-17 -142 -134 -328 -433 -328zM321 636h454v2c0 149 -85 256 -226 256c-142 0 -228 -108 -228 -256v-2z" />
    <glyph glyph-name="Eogonek" unicode="&#x118;" horiz-adv-x="1118" 
d="M1012 -368c-29 -10 -82 -20 -131 -20c-126 0 -237 60 -237 197c0 81 46 144 110 185v6h-604v1365h862v-202h-622v-375h585v-191h-584v-395h621v-168c-84 -19 -192 -75 -192 -175c0 -63 48 -97 119 -97c24 0 56 3 73 8v-138z" />
    <glyph glyph-name="eogonek" unicode="&#x119;" horiz-adv-x="1089" 
d="M651 4c-23 -11 -70 -19 -112 -19c-284 0 -451 190 -451 497v89c0 307 170 505 459 505c298 0 458 -204 458 -504v-95h-684v-33c0 -147 77 -275 240 -275c128 0 191 68 205 141h226c-13 -108 -67 -181 -139 -251c-61 -59 -111 -115 -111 -189c0 -69 55 -104 119 -104
c23 0 57 4 73 8v-142c-18 -8 -62 -20 -130 -20c-133 0 -239 70 -239 196c0 98 55 149 92 185zM321 636h454v2c0 149 -85 256 -226 256c-142 0 -228 -108 -228 -256v-2z" />
    <glyph glyph-name="Ecaron" unicode="&#x11a;" horiz-adv-x="1118" 
d="M229 1731h195l146 -124h11l145 124h195l-269 -227h-149zM1012 202v-202h-862v1365h862v-202h-621v-375h584v-191h-584v-395h621z" />
    <glyph glyph-name="ecaron" unicode="&#x11b;" horiz-adv-x="1089" 
d="M249 1501h182l114 -181h7l105 182h185l-211 -303h-162zM561 -18c-305 0 -473 193 -473 500v89c0 307 170 505 459 505c298 0 458 -204 458 -504v-95h-684v-33c0 -147 78 -275 239 -275c129 0 192 67 206 141h228c-17 -142 -134 -328 -433 -328zM321 636h454v2
c0 149 -85 256 -226 256c-142 0 -228 -108 -228 -256v-2z" />
    <glyph glyph-name="Gcircumflex" unicode="&#x11c;" horiz-adv-x="1295" 
d="M317 1502l273 240h149l269 -240h-194l-145 134h-11l-147 -134h-194zM1196 934h-236c-20 167 -144 252 -295 252c-184 0 -326 -125 -326 -412v-176c0 -251 101 -419 326 -419c182 0 303 114 303 262v99h-302v188h533v-275c0 -203 -136 -480 -536 -480
c-388 0 -567 257 -567 625v177c0 381 218 617 572 617c342 0 517 -221 528 -458z" />
    <glyph glyph-name="gcircumflex" unicode="&#x11d;" horiz-adv-x="1155" 
d="M273 1221l221 302h162l211 -303h-185l-105 182h-7l-115 -181h-182zM549 -212c166 0 247 87 247 239v151h-9c-40 -92 -151 -165 -300 -165c-234 0 -407 173 -407 470v116c0 293 170 474 409 474c171 0 262 -79 303 -167h9v152h230v-1040c0 -298 -223 -412 -489 -412
c-301 0 -433 155 -439 317h232c12 -74 81 -135 214 -135zM564 881c-149 0 -244 -115 -244 -303v-88c0 -189 102 -295 245 -295c147 0 230 125 230 287v97c0 174 -87 302 -231 302z" />
    <glyph glyph-name="Gbreve" unicode="&#x11e;" horiz-adv-x="1295" 
d="M1196 934h-236c-20 167 -144 252 -295 252c-184 0 -326 -125 -326 -412v-176c0 -251 101 -419 326 -419c182 0 303 114 303 262v99h-302v188h533v-275c0 -203 -136 -480 -536 -480c-388 0 -567 257 -567 625v177c0 381 218 617 572 617c342 0 517 -221 528 -458z
M331 1760h146c0 -78 68 -141 183 -141s183 63 183 141h144c0 -147 -99 -277 -327 -277s-329 130 -329 277z" />
    <glyph glyph-name="gbreve" unicode="&#x11f;" horiz-adv-x="1155" 
d="M263 1461h145c0 -84 49 -164 163 -164s163 80 163 164h144c-1 -146 -98 -297 -307 -297c-208 0 -309 151 -308 297zM549 -212c166 0 247 87 247 239v151h-9c-40 -92 -151 -165 -300 -165c-234 0 -407 173 -407 470v116c0 293 170 474 409 474c171 0 262 -79 303 -167h9
v152h230v-1040c0 -298 -223 -412 -489 -412c-301 0 -433 155 -439 317h232c12 -74 81 -135 214 -135zM564 881c-149 0 -244 -115 -244 -303v-88c0 -189 102 -295 245 -295c147 0 230 125 230 287v97c0 174 -87 302 -231 302z" />
    <glyph glyph-name="Gdotaccent" unicode="&#x120;" horiz-adv-x="1295" 
d="M546 1605c0 68 49 118 115 118c68 0 120 -50 120 -118c0 -67 -52 -115 -120 -115c-66 0 -115 48 -115 115zM1196 934h-236c-20 167 -144 252 -295 252c-184 0 -326 -125 -326 -412v-176c0 -251 101 -419 326 -419c182 0 303 114 303 262v99h-302v188h533v-275
c0 -203 -136 -480 -536 -480c-388 0 -567 257 -567 625v177c0 381 218 617 572 617c342 0 517 -221 528 -458z" />
    <glyph glyph-name="gdotaccent" unicode="&#x121;" horiz-adv-x="1155" 
d="M463 1298c0 68 49 118 115 118c68 0 120 -50 120 -118c0 -67 -52 -115 -120 -115c-66 0 -115 48 -115 115zM549 -212c166 0 247 87 247 239v151h-9c-40 -92 -151 -165 -300 -165c-234 0 -407 173 -407 470v116c0 293 170 474 409 474c171 0 262 -79 303 -167h9v152h230
v-1040c0 -298 -223 -412 -489 -412c-301 0 -433 155 -439 317h232c12 -74 81 -135 214 -135zM564 881c-149 0 -244 -115 -244 -303v-88c0 -189 102 -295 245 -295c147 0 230 125 230 287v97c0 174 -87 302 -231 302z" />
    <glyph glyph-name="Gcommaaccent" unicode="&#x122;" horiz-adv-x="1295" 
d="M653 -489h-166l85 335h195zM1196 934h-236c-20 167 -144 252 -295 252c-184 0 -326 -125 -326 -412v-176c0 -251 101 -419 326 -419c182 0 303 114 303 262v99h-302v188h533v-275c0 -203 -136 -480 -536 -480c-388 0 -567 257 -567 625v177c0 381 218 617 572 617
c342 0 517 -221 528 -458z" />
    <glyph glyph-name="gcommaaccent" unicode="&#x123;" horiz-adv-x="1155" 
d="M555 1590h166l-85 -335h-195zM549 -212c166 0 247 87 247 239v151h-9c-40 -92 -151 -165 -300 -165c-234 0 -407 173 -407 470v116c0 293 170 474 409 474c171 0 262 -79 303 -167h9v152h230v-1040c0 -298 -223 -412 -489 -412c-301 0 -433 155 -439 317h232
c12 -74 81 -135 214 -135zM564 881c-149 0 -244 -115 -244 -303v-88c0 -189 102 -295 245 -295c147 0 230 125 230 287v97c0 174 -87 302 -231 302z" />
    <glyph glyph-name="Hcircumflex" unicode="&#x124;" horiz-adv-x="1392" 
d="M1242 0h-242v598h-608v-598h-242v1365h242v-563h608v563h242v-1365zM352 1502l273 240h149l269 -240h-194l-145 134h-11l-147 -134h-194z" />
    <glyph glyph-name="hcircumflex" unicode="&#x125;" horiz-adv-x="1191" 
d="M141 0v1437h236v-528h10c29 71 120 166 294 166c230 0 380 -160 380 -408v-667h-237v614c0 163 -83 257 -219 257c-138 0 -228 -90 -228 -258v-613h-236zM-47 1600l221 302h162l211 -303h-185l-105 182h-7l-115 -181h-182z" />
    <glyph glyph-name="Hbar" unicode="&#x126;" horiz-adv-x="1392" 
d="M392 782h608v216h-608v-216zM392 578v-578h-242v998h-98v158h98v209h242v-209h608v209h242v-209h98v-158h-98v-998h-242v578h-608z" />
    <glyph glyph-name="hbar" unicode="&#x127;" horiz-adv-x="1191" 
d="M377 590v-590h-236v1157h-116v148h123v132h223v-132h251v-148h-245v-287h12c22 75 110 205 319 205c206 0 353 -121 353 -363v-712h-237v646c0 159 -87 231 -207 231c-152 0 -240 -120 -240 -287z" />
    <glyph glyph-name="Itilde" unicode="&#x128;" horiz-adv-x="543" 
d="M392 0h-242v1365h242v-1365zM251 1531c-24 22 -46 49 -81 49c-50 0 -62 -47 -64 -88h-128c0 102 55 207 177 207c66 0 104 -25 147 -65c28 -25 45 -50 79 -50c47 0 63 57 66 99h128c0 -107 -71 -210 -181 -210c-78 0 -111 26 -143 58z" />
    <glyph glyph-name="itilde" unicode="&#x129;" horiz-adv-x="553" 
d="M161 0v1058h240v-1058h-240zM246 1231c-23 23 -47 50 -83 50c-55 0 -68 -52 -70 -99h-140c0 130 60 252 199 252c63 0 105 -27 153 -75c27 -27 47 -54 83 -54c50 0 67 64 70 111h139c0 -126 -77 -252 -203 -252c-76 0 -114 32 -148 67z" />
    <glyph glyph-name="Imacron" unicode="&#x12a;" horiz-adv-x="543" 
d="M392 0h-242v1365h242v-1365zM557 1516h-572v123h572v-123z" />
    <glyph glyph-name="imacron" unicode="&#x12b;" horiz-adv-x="553" 
d="M161 0v1058h240v-1058h-240zM566 1220h-571v129h571v-129z" />
    <glyph glyph-name="Ibreve" unicode="&#x12c;" horiz-adv-x="543" 
d="M392 0h-242v1365h242v-1365zM-58 1760h146c0 -78 68 -141 183 -141s183 63 183 141h144c0 -147 -99 -277 -327 -277s-329 130 -329 277z" />
    <glyph glyph-name="ibreve" unicode="&#x12d;" horiz-adv-x="553" 
d="M161 0v1058h240v-1058h-240zM-35 1461h145c0 -84 49 -164 163 -164s163 80 163 164h144c-1 -146 -98 -297 -307 -297c-208 0 -309 151 -308 297z" />
    <glyph glyph-name="Iogonek" unicode="&#x12e;" horiz-adv-x="543" 
d="M416 -366c-19 -9 -73 -22 -134 -22c-148 0 -238 75 -238 200c0 112 73 174 132 207v5h-26v1341h242v-1338c-99 -37 -168 -91 -168 -169c0 -65 48 -97 115 -97c22 0 58 3 77 9v-136z" />
    <glyph glyph-name="iogonek" unicode="&#x12f;" horiz-adv-x="554" 
d="M412 -369c-23 -9 -75 -19 -131 -19c-154 0 -257 68 -257 202c0 110 71 175 135 210v1034h236v-1024c-77 -26 -182 -81 -182 -174c0 -65 49 -98 119 -98c22 0 60 3 80 8v-139zM123 1375c0 81 62 139 153 139c93 0 154 -58 154 -139c0 -80 -61 -138 -154 -138
c-91 0 -153 58 -153 138z" />
    <glyph glyph-name="Idotaccent" unicode="&#x130;" horiz-adv-x="543" 
d="M392 0h-242v1365h242v-1365zM157 1605c0 68 49 118 115 118c68 0 120 -50 120 -118c0 -67 -52 -115 -120 -115c-66 0 -115 48 -115 115z" />
    <glyph glyph-name="dotlessi" unicode="&#x131;" horiz-adv-x="553" 
d="M161 0v1058h240v-1058h-240z" />
    <glyph glyph-name="Jcircumflex" unicode="&#x134;" horiz-adv-x="1034" 
d="M25 367h234c3 -112 86 -178 188 -178c123 0 202 67 202 225v951h242v-941c0 -305 -177 -451 -442 -451c-274 0 -424 175 -424 394zM426 1502l273 240h149l269 -240h-194l-145 134h-11l-147 -134h-194z" />
    <glyph glyph-name="jcircumflex" unicode="&#x135;" horiz-adv-x="553" 
d="M394 1058v-1078c0 -245 -130 -348 -330 -348c-36 0 -89 4 -106 8v174c15 -3 39 -5 60 -5c98 0 141 52 141 174v1075h235zM-17 1208l221 302h162l211 -303h-185l-105 182h-7l-115 -181h-182z" />
    <glyph glyph-name="Kcommaaccent" unicode="&#x136;" horiz-adv-x="1236" 
d="M1212 1365l-493 -586l516 -779h-294l-400 616l-149 -165v-451h-242v1365h242v-626h11l540 626h269zM610 -489h-166l85 335h195z" />
    <glyph glyph-name="kcommaaccent" unicode="&#x137;" horiz-adv-x="1075" 
d="M376 375v-375h-237v1437h237v-831h10l377 452h268l-395 -457l422 -601h-278l-322 463zM549 -489h-166l85 335h195z" />
    <glyph glyph-name="Lacute" unicode="&#x139;" horiz-adv-x="1010" 
d="M134 1507l262 213h249l-304 -213h-207zM986 208v-208h-836v1365h242v-1157h594z" />
    <glyph glyph-name="lacute" unicode="&#x13a;" horiz-adv-x="525" 
d="M340 1598h-195l198 286h240zM145 0v1437h236v-1437h-236z" />
    <glyph glyph-name="Lcommaaccent" unicode="&#x13b;" horiz-adv-x="1010" 
d="M505 -489h-166l85 335h195zM986 208v-208h-836v1365h242v-1157h594z" />
    <glyph glyph-name="lcommaaccent" unicode="&#x13c;" horiz-adv-x="525" 
d="M255 -489h-166l85 335h195zM145 0v1437h236v-1437h-236z" />
    <glyph glyph-name="Lcaron" unicode="&#x13d;" horiz-adv-x="1010" 
d="M607 1436h204l-50 -488h-154v488zM986 208v-208h-836v1365h242v-1157h594z" />
    <glyph glyph-name="lcaron" unicode="&#x13e;" horiz-adv-x="709" 
d="M545 1436h196l-46 -488h-150v488zM145 0v1437h236v-1437h-236z" />
    <glyph glyph-name="Lslash" unicode="&#x141;" horiz-adv-x="1030" 
d="M1007 0h-836v522l-123 -72v213l123 71v631h242v-495l337 197v-215l-337 -195v-449h594v-208z" />
    <glyph glyph-name="lslash" unicode="&#x142;" horiz-adv-x="610" 
d="M424 0h-236v582l-146 -95v204l146 96v650h236v-503l144 95v-213l-144 -94v-722z" />
    <glyph glyph-name="Nacute" unicode="&#x143;" horiz-adv-x="1375" 
d="M551 1507l262 213h249l-304 -213h-207zM381 0h-231v1365h209l627 -955h8v955h230v-1365h-207l-629 958h-7v-958z" />
    <glyph glyph-name="nacute" unicode="&#x144;" horiz-adv-x="1185" 
d="M670 1219h-195l198 286h240zM137 0v1058h232v-149h9c36 81 140 166 305 166c210 0 370 -130 370 -376v-699h-237v625c0 173 -84 246 -219 246c-138 0 -224 -86 -224 -253v-618h-236z" />
    <glyph glyph-name="Ncommaaccent" unicode="&#x145;" horiz-adv-x="1375" 
d="M680 -489h-166l85 335h195zM381 0h-231v1365h209l627 -955h8v955h230v-1365h-207l-629 958h-7v-958z" />
    <glyph glyph-name="ncommaaccent" unicode="&#x146;" horiz-adv-x="1185" 
d="M585 -489h-166l85 335h195zM137 0v1058h232v-149h9c36 81 140 166 305 166c210 0 370 -130 370 -376v-699h-237v625c0 173 -84 246 -219 246c-138 0 -224 -86 -224 -253v-618h-236z" />
    <glyph glyph-name="Ncaron" unicode="&#x147;" horiz-adv-x="1375" 
d="M342 1731h195l146 -124h11l145 124h195l-269 -227h-149zM381 0h-231v1365h209l627 -955h8v955h230v-1365h-207l-629 958h-7v-958z" />
    <glyph glyph-name="ncaron" unicode="&#x148;" horiz-adv-x="1185" 
d="M297 1501h182l114 -181h7l105 182h185l-211 -303h-162zM137 0v1058h232v-149h9c36 81 140 166 305 166c210 0 370 -130 370 -376v-699h-237v625c0 173 -84 246 -219 246c-138 0 -224 -86 -224 -253v-618h-236z" />
    <glyph glyph-name="Omacron" unicode="&#x14c;" horiz-adv-x="1338" 
d="M340 770v-185c0 -276 139 -407 329 -407c189 0 328 131 328 407v185c0 276 -139 417 -328 417c-190 0 -329 -141 -329 -417zM96 586v182c0 388 220 624 574 624c355 0 572 -237 572 -624v-182c0 -386 -220 -613 -575 -613s-571 227 -571 613zM954 1516h-572v123h572v-123
z" />
    <glyph glyph-name="omacron" unicode="&#x14d;" horiz-adv-x="1126" 
d="M850 1220h-571v129h571v-129zM564 1076c318 0 475 -208 475 -507v-76c0 -309 -157 -511 -475 -511s-476 200 -476 511v75c0 291 158 508 476 508zM564 890c-184 0 -239 -159 -239 -330v-61c0 -170 54 -329 239 -329c184 0 236 158 236 329v61c0 172 -53 330 -236 330z
" />
    <glyph glyph-name="Obreve" unicode="&#x14e;" horiz-adv-x="1338" 
d="M340 770v-185c0 -276 139 -407 329 -407c189 0 328 131 328 407v185c0 276 -139 417 -328 417c-190 0 -329 -141 -329 -417zM96 586v182c0 388 220 624 574 624c355 0 572 -237 572 -624v-182c0 -386 -220 -613 -575 -613s-571 227 -571 613zM339 1760h146
c0 -78 68 -141 183 -141s183 63 183 141h144c0 -147 -99 -277 -327 -277s-329 130 -329 277z" />
    <glyph glyph-name="obreve" unicode="&#x14f;" horiz-adv-x="1126" 
d="M249 1461h145c0 -84 49 -164 163 -164s163 80 163 164h144c-1 -146 -98 -297 -307 -297c-208 0 -309 151 -308 297zM564 1076c318 0 475 -208 475 -507v-76c0 -309 -157 -511 -475 -511s-476 200 -476 511v75c0 291 158 508 476 508zM564 890c-184 0 -239 -159 -239 -330
v-61c0 -170 54 -329 239 -329c184 0 236 158 236 329v61c0 172 -53 330 -236 330z" />
    <glyph glyph-name="Ohungarumlaut" unicode="&#x150;" horiz-adv-x="1338" 
d="M385 1507l275 223h209l-302 -223h-182zM733 1507l275 223h209l-302 -223h-182zM340 770v-185c0 -276 139 -407 329 -407c189 0 328 131 328 407v185c0 276 -139 417 -328 417c-190 0 -329 -141 -329 -417zM96 586v182c0 388 220 624 574 624c355 0 572 -237 572 -624
v-182c0 -386 -220 -613 -575 -613s-571 227 -571 613z" />
    <glyph glyph-name="ohungarumlaut" unicode="&#x151;" horiz-adv-x="1126" 
d="M449 1219h-146l221 321h188zM764 1219h-147l221 321h188zM564 1076c318 0 475 -208 475 -507v-76c0 -309 -157 -511 -475 -511s-476 200 -476 511v75c0 291 158 508 476 508zM564 890c-184 0 -239 -159 -239 -330v-61c0 -170 54 -329 239 -329c184 0 236 158 236 329v61
c0 172 -53 330 -236 330z" />
    <glyph glyph-name="OE" unicode="&#x152;" horiz-adv-x="1961" 
d="M347 770v-186c0 -276 139 -407 329 -407c189 0 330 121 330 398v210c0 276 -141 402 -330 402c-190 0 -329 -141 -329 -417zM640 -27c-334 0 -544 231 -544 614v181c0 399 223 624 547 624c157 0 296 -55 367 -167h16v140h828v-202h-613v-375h577v-191h-577v-395h613
v-202h-828v144h-16c-71 -107 -207 -171 -370 -171z" />
    <glyph glyph-name="oe" unicode="&#x153;" horiz-adv-x="1809" 
d="M1279 -18c-155 0 -287 64 -350 160h-16c-68 -97 -202 -160 -349 -160c-285 0 -476 173 -476 484v130c0 290 194 480 476 480c147 0 279 -55 349 -162h15c64 97 193 162 337 162c269 0 458 -184 458 -478v-123h-684v-51c0 -148 89 -255 239 -255c112 0 191 53 205 119h229
c-13 -125 -142 -306 -433 -306zM564 890c-154 0 -239 -132 -239 -302v-116c0 -171 79 -302 239 -302c158 0 236 131 236 302v116c0 171 -82 302 -236 302zM1039 625h454v13c0 154 -90 256 -226 256c-137 0 -228 -102 -228 -256v-13z" />
    <glyph glyph-name="Racute" unicode="&#x154;" horiz-adv-x="1246" 
d="M459 1507l262 213h249l-304 -213h-207zM680 1365c318 0 467 -191 467 -424c0 -225 -142 -341 -250 -383l276 -558h-272l-243 519h-268v-519h-240v1365h530zM390 706h251c163 0 256 81 256 228c0 157 -103 237 -251 237h-256v-465z" />
    <glyph glyph-name="racute" unicode="&#x155;" horiz-adv-x="752" 
d="M502 1219h-195l198 286h240zM150 0v1058h236v-137h9c26 66 84 153 251 153c32 0 57 -3 78 -7v-207c-19 6 -59 8 -98 8c-176 0 -236 -104 -236 -246v-622h-240z" />
    <glyph glyph-name="Rcommaaccent" unicode="&#x156;" horiz-adv-x="1246" 
d="M680 1365c318 0 467 -191 467 -424c0 -225 -142 -341 -250 -383l276 -558h-272l-243 519h-268v-519h-240v1365h530zM390 706h251c163 0 256 81 256 228c0 157 -103 237 -251 237h-256v-465zM588 -489h-166l85 335h195z" />
    <glyph glyph-name="rcommaaccent" unicode="&#x157;" horiz-adv-x="752" 
d="M150 0v1058h236v-137h9c26 66 84 153 251 153c32 0 57 -3 78 -7v-207c-19 6 -59 8 -98 8c-176 0 -236 -104 -236 -246v-622h-240zM265 -489h-166l85 335h195z" />
    <glyph glyph-name="Rcaron" unicode="&#x158;" horiz-adv-x="1246" 
d="M680 1365c318 0 467 -191 467 -424c0 -225 -142 -341 -250 -383l276 -558h-272l-243 519h-268v-519h-240v1365h530zM390 706h251c163 0 256 81 256 228c0 157 -103 237 -251 237h-256v-465zM250 1731h195l146 -124h11l145 124h195l-269 -227h-149z" />
    <glyph glyph-name="rcaron" unicode="&#x159;" horiz-adv-x="752" 
d="M129 1501h182l114 -181h7l105 182h185l-211 -303h-162zM150 0v1058h236v-137h9c26 66 84 153 251 153c32 0 57 -3 78 -7v-207c-19 6 -59 8 -98 8c-176 0 -236 -104 -236 -246v-622h-240z" />
    <glyph glyph-name="Sacute" unicode="&#x15a;" horiz-adv-x="1191" 
d="M457 1507l262 213h249l-304 -213h-207zM60 382h235c10 -114 110 -212 299 -212c173 0 273 80 273 204c0 101 -70 154 -214 189l-219 53c-180 41 -339 147 -339 371c0 263 229 408 499 408c275 0 492 -150 496 -401h-230c-9 111 -96 205 -268 205
c-152 0 -254 -72 -254 -193c0 -87 63 -148 188 -177l220 -53c204 -47 363 -144 363 -381c0 -268 -216 -422 -532 -422c-385 0 -513 223 -517 409z" />
    <glyph glyph-name="sacute" unicode="&#x15b;" horiz-adv-x="1014" 
d="M93 749c0 232 197 327 416 327c249 0 395 -130 395 -321h-211c-7 71 -53 154 -190 154c-111 0 -184 -53 -184 -139c0 -115 154 -130 270 -151c197 -33 346 -99 346 -297c0 -214 -170 -340 -443 -340c-258 0 -419 122 -419 311h230c11 -82 79 -142 200 -142
c143 0 202 64 202 143c0 107 -122 124 -263 151c-193 39 -349 97 -349 304zM585 1219h-195l198 286h240z" />
    <glyph glyph-name="Scircumflex" unicode="&#x15c;" horiz-adv-x="1191" 
d="M60 382h235c10 -114 110 -212 299 -212c173 0 273 80 273 204c0 101 -70 154 -214 189l-219 53c-180 41 -339 147 -339 371c0 263 229 408 499 408c275 0 492 -150 496 -401h-230c-9 111 -96 205 -268 205c-152 0 -254 -72 -254 -193c0 -87 63 -148 188 -177l220 -53
c204 -47 363 -144 363 -381c0 -268 -216 -422 -532 -422c-385 0 -513 223 -517 409zM250 1502l273 240h149l269 -240h-194l-145 134h-11l-147 -134h-194z" />
    <glyph glyph-name="scircumflex" unicode="&#x15d;" horiz-adv-x="1014" 
d="M203 1221l221 302h162l211 -303h-185l-105 182h-7l-115 -181h-182zM93 749c0 232 197 327 416 327c249 0 395 -130 395 -321h-211c-7 71 -53 154 -190 154c-111 0 -184 -53 -184 -139c0 -115 154 -130 270 -151c197 -33 346 -99 346 -297c0 -214 -170 -340 -443 -340
c-258 0 -419 122 -419 311h230c11 -82 79 -142 200 -142c143 0 202 64 202 143c0 107 -122 124 -263 151c-193 39 -349 97 -349 304z" />
    <glyph glyph-name="Scedilla" unicode="&#x15e;" horiz-adv-x="1191" 
d="M594 -469c-66 -3 -122 7 -148 15v117c27 -8 79 -14 113 -14c53 0 113 14 113 68c0 57 -51 62 -131 62h-54v94l42 101c-348 18 -465 230 -469 408h235c10 -114 110 -212 299 -212c173 0 273 80 273 204c0 101 -70 154 -214 189l-219 53c-180 41 -339 147 -339 371
c0 263 229 408 499 408c275 0 492 -150 496 -401h-230c-9 111 -96 205 -268 205c-152 0 -254 -72 -254 -193c0 -87 63 -148 188 -177l220 -53c204 -47 363 -144 363 -381c0 -240 -174 -388 -435 -417l-37 -89c121 0 194 -58 194 -165c0 -132 -102 -189 -237 -193z" />
    <glyph glyph-name="scedilla" unicode="&#x15f;" horiz-adv-x="1014" 
d="M500 -465c-65 -2 -122 7 -148 15v117c27 -8 79 -14 114 -14c53 0 112 14 112 68c0 57 -57 62 -137 62h-53v94l40 107c-221 19 -355 137 -355 309h230c11 -82 79 -142 200 -142c143 0 202 64 202 143c0 107 -122 124 -263 151c-193 39 -349 97 -349 304
c0 232 197 327 416 327c249 0 395 -130 395 -321h-211c-7 71 -53 154 -190 154c-111 0 -184 -53 -184 -139c0 -115 154 -130 270 -151c197 -33 346 -99 346 -297c0 -193 -138 -314 -362 -336l-36 -93c121 0 201 -58 201 -165c0 -132 -102 -189 -238 -193z" />
    <glyph glyph-name="Scaron" unicode="&#x160;" horiz-adv-x="1191" 
d="M60 382h235c10 -114 110 -212 299 -212c173 0 273 80 273 204c0 101 -70 154 -214 189l-219 53c-180 41 -339 147 -339 371c0 263 229 408 499 408c275 0 492 -150 496 -401h-230c-9 111 -96 205 -268 205c-152 0 -254 -72 -254 -193c0 -87 63 -148 188 -177l220 -53
c204 -47 363 -144 363 -381c0 -268 -216 -422 -532 -422c-385 0 -513 223 -517 409zM248 1731h195l146 -124h11l145 124h195l-269 -227h-149z" />
    <glyph glyph-name="scaron" unicode="&#x161;" horiz-adv-x="1014" 
d="M212 1501h182l114 -181h7l105 182h185l-211 -303h-162zM93 749c0 232 197 327 416 327c249 0 395 -130 395 -321h-211c-7 71 -53 154 -190 154c-111 0 -184 -53 -184 -139c0 -115 154 -130 270 -151c197 -33 346 -99 346 -297c0 -214 -170 -340 -443 -340
c-258 0 -419 122 -419 311h230c11 -82 79 -142 200 -142c143 0 202 64 202 143c0 107 -122 124 -263 151c-193 39 -349 97 -349 304z" />
    <glyph glyph-name="Tcedilla" unicode="&#x162;" horiz-adv-x="1067" 
d="M536 -484c-65 -2 -122 8 -148 15v117c27 -8 79 -13 113 -13c53 0 113 13 113 67c0 58 -57 63 -137 63h-54v94l53 141h-63v1160h-396v205h1033v-205h-397v-1160h-32l-48 -125c121 0 200 -59 200 -166c0 -132 -101 -189 -237 -193z" />
    <glyph glyph-name="tcedilla" unicode="&#x163;" horiz-adv-x="730" 
d="M404 -463c-66 -2 -122 8 -148 15v117c27 -8 79 -13 113 -13c53 0 113 13 113 67c0 58 -58 63 -137 63h-54v94l52 141c-107 41 -144 130 -144 277v567h-148v185h152v264h230v-264h206v-185h-206v-543c0 -112 44 -144 160 -144c20 0 39 0 52 2v-179c-19 -3 -62 -8 -110 -8
c-20 0 -39 1 -56 2l-38 -99c121 0 200 -59 200 -166c0 -132 -102 -189 -237 -193z" />
    <glyph glyph-name="Tcaron" unicode="&#x164;" horiz-adv-x="1067" 
d="M188 1731h195l146 -124h11l145 124h195l-269 -227h-149zM653 0h-240v1160h-396v205h1033v-205h-397v-1160z" />
    <glyph glyph-name="tcaron" unicode="&#x165;" horiz-adv-x="769" 
d="M610 1690h196l-46 -488h-150v488zM203 1050v264h230v-264h206v-185h-206v-543c0 -112 44 -144 160 -144c20 0 39 0 52 2v-179c-19 -3 -62 -8 -110 -8c-260 0 -336 92 -336 305v567h-148v185h152z" />
    <glyph glyph-name="Tbar" unicode="&#x166;" horiz-adv-x="1067" 
d="M884 613h-230v-613h-241v613h-230v158h230v389h-396v205h1033v-205h-396v-389h230v-158z" />
    <glyph glyph-name="tbar" unicode="&#x167;" horiz-adv-x="715" 
d="M645 1c-21 -4 -64 -8 -110 -8c-260 0 -336 92 -336 305v213h-138v148h138v206h-148v185h152v264h230v-264h206v-185h-206v-206h202v-148h-202v-189c0 -112 44 -144 160 -144c22 0 35 0 52 2v-179z" />
    <glyph glyph-name="Utilde" unicode="&#x168;" horiz-adv-x="1352" 
d="M377 1365v-873c0 -196 117 -311 299 -311c181 0 300 116 300 311v873h241v-892c0 -301 -215 -500 -541 -500s-541 201 -541 503v889h242zM655 1531c-24 22 -46 49 -81 49c-50 0 -62 -47 -64 -88h-128c0 102 55 207 177 207c66 0 104 -25 147 -65c28 -25 45 -50 79 -50
c47 0 63 57 66 99h128c0 -107 -71 -210 -181 -210c-78 0 -111 26 -143 58z" />
    <glyph glyph-name="utilde" unicode="&#x169;" horiz-adv-x="1181" 
d="M1043 1058v-1058h-231v150h-10c-35 -83 -133 -166 -306 -166c-217 0 -366 125 -366 372v702h237v-638c0 -181 103 -234 217 -234c128 0 223 83 223 237v635h236zM557 1231c-23 23 -47 50 -83 50c-55 0 -68 -52 -70 -99h-140c0 130 60 252 199 252c63 0 105 -27 153 -75
c27 -27 47 -54 83 -54c50 0 67 64 70 111h139c0 -126 -77 -252 -203 -252c-76 0 -114 32 -148 67z" />
    <glyph glyph-name="Umacron" unicode="&#x16a;" horiz-adv-x="1352" 
d="M377 1365v-873c0 -196 117 -311 299 -311c181 0 300 116 300 311v873h241v-892c0 -301 -215 -500 -541 -500s-541 201 -541 503v889h242zM961 1516h-572v123h572v-123z" />
    <glyph glyph-name="umacron" unicode="&#x16b;" horiz-adv-x="1181" 
d="M1043 1058v-1058h-231v150h-10c-35 -83 -133 -166 -306 -166c-217 0 -366 125 -366 372v702h237v-638c0 -181 103 -234 217 -234c128 0 223 83 223 237v635h236zM877 1220h-571v129h571v-129z" />
    <glyph glyph-name="Ubreve" unicode="&#x16c;" horiz-adv-x="1352" 
d="M377 1365v-873c0 -196 117 -311 299 -311c181 0 300 116 300 311v873h241v-892c0 -301 -215 -500 -541 -500s-541 201 -541 503v889h242zM346 1760h146c0 -78 68 -141 183 -141s183 63 183 141h144c0 -147 -99 -277 -327 -277s-329 130 -329 277z" />
    <glyph glyph-name="ubreve" unicode="&#x16d;" horiz-adv-x="1181" 
d="M1043 1058v-1058h-231v150h-10c-35 -83 -133 -166 -306 -166c-217 0 -366 125 -366 372v702h237v-638c0 -181 103 -234 217 -234c128 0 223 83 223 237v635h236zM276 1461h145c0 -84 49 -164 163 -164s163 80 163 164h144c-1 -146 -98 -297 -307 -297
c-208 0 -309 151 -308 297z" />
    <glyph glyph-name="Uring" unicode="&#x16e;" horiz-adv-x="1352" 
d="M377 1365v-873c0 -196 117 -311 299 -311c181 0 300 116 300 311v873h241v-892c0 -301 -215 -500 -541 -500s-541 201 -541 503v889h242zM673 1495c-116 0 -207 85 -207 201s90 200 207 200c116 0 206 -84 206 -200s-90 -201 -206 -201zM576 1696c0 -55 42 -98 96 -98
c55 0 96 43 96 98c0 54 -41 97 -96 97c-54 0 -96 -43 -96 -97z" />
    <glyph glyph-name="uring" unicode="&#x16f;" horiz-adv-x="1181" 
d="M1043 1058v-1058h-231v150h-10c-35 -83 -133 -166 -306 -166c-217 0 -366 125 -366 372v702h237v-638c0 -181 103 -234 217 -234c128 0 223 83 223 237v635h236zM588 1188c-116 0 -207 85 -207 201s90 200 207 200c116 0 206 -84 206 -200s-90 -201 -206 -201zM491 1389
c0 -55 42 -98 96 -98c55 0 96 43 96 98c0 54 -41 97 -96 97c-54 0 -96 -43 -96 -97z" />
    <glyph glyph-name="Uhungarumlaut" unicode="&#x170;" horiz-adv-x="1352" 
d="M377 1365v-873c0 -196 117 -311 299 -311c181 0 300 116 300 311v873h241v-892c0 -301 -215 -500 -541 -500s-541 201 -541 503v889h242zM392 1507l275 223h209l-302 -223h-182zM740 1507l275 223h209l-302 -223h-182z" />
    <glyph glyph-name="uhungarumlaut" unicode="&#x171;" horiz-adv-x="1181" 
d="M476 1219h-146l221 321h188zM791 1219h-147l221 321h188zM1043 1058v-1058h-231v150h-10c-35 -83 -133 -166 -306 -166c-217 0 -366 125 -366 372v702h237v-638c0 -181 103 -234 217 -234c128 0 223 83 223 237v635h236z" />
    <glyph glyph-name="Uogonek" unicode="&#x172;" horiz-adv-x="1352" 
d="M977 -388c-134 0 -238 70 -238 200c0 63 21 132 89 190l-4 6c-36 -16 -78 -35 -158 -35c-311 0 -531 201 -531 503v889h242v-873c0 -196 117 -311 299 -311c181 0 300 116 300 311v873h241v-892c0 -183 -68 -298 -150 -383c-73 -79 -154 -134 -154 -224
c0 -72 53 -101 118 -101c21 0 49 3 76 10v-142c-21 -8 -72 -21 -130 -21z" />
    <glyph glyph-name="uogonek" unicode="&#x173;" horiz-adv-x="1181" 
d="M1052 -368c-24 -9 -76 -20 -135 -20c-123 0 -239 59 -239 199c0 113 82 177 140 220v145h-12c-29 -84 -128 -192 -316 -192c-210 0 -360 103 -360 352v722h237v-663c0 -166 97 -214 203 -214c133 0 237 97 237 229v648h236v-1052c-78 -20 -187 -67 -187 -150
c0 -61 50 -90 118 -90c24 0 58 3 78 8v-142z" />
    <glyph glyph-name="Wcircumflex" unicode="&#x174;" horiz-adv-x="1726" 
d="M520 1502l273 240h149l269 -240h-194l-145 134h-11l-147 -134h-194zM595 0h-222l-364 1365h266l220 -1002h9l250 1002h219l249 -1002h10l219 1002h266l-365 -1365h-222l-263 983h-9z" />
    <glyph glyph-name="wcircumflex" unicode="&#x175;" horiz-adv-x="1532" 
d="M461 1221l221 302h162l211 -303h-185l-105 182h-7l-115 -181h-182zM1508 1058l-277 -1058h-242l-215 772h-7l-211 -772h-244l-288 1058h253l164 -797h10l208 797h222l214 -797h10l168 797h235z" />
    <glyph glyph-name="Ycircumflex" unicode="&#x176;" horiz-adv-x="1132" 
d="M687 0h-242v539l-456 826h270l305 -587h8l308 587h264l-457 -822v-543zM223 1502l273 240h149l269 -240h-194l-145 134h-11l-147 -134h-194z" />
    <glyph glyph-name="ycircumflex" unicode="&#x177;" horiz-adv-x="1072" 
d="M1036 1058c0 0 -353 -1031 -356 -1039l-27 -72c-67 -180 -159 -327 -413 -327c-52 0 -106 6 -134 11v175c17 -3 57 -6 84 -6c129 0 176 55 197 151l12 43l-373 1064h261l243 -848h9l247 848h250zM231 1221l221 302h162l211 -303h-185l-105 182h-7l-115 -181h-182z" />
    <glyph glyph-name="Ydieresis" unicode="&#x178;" horiz-adv-x="1132" 
d="M687 0h-242v539l-456 826h270l305 -587h8l308 587h264l-457 -822v-543zM321 1582c0 58 40 99 99 99s100 -41 100 -99c0 -57 -40 -98 -100 -98c-59 0 -99 41 -99 98zM650 1582c0 58 40 99 99 99c60 0 100 -41 100 -99c0 -57 -40 -98 -100 -98c-59 0 -99 41 -99 98z" />
    <glyph glyph-name="Zacute" unicode="&#x179;" horiz-adv-x="1167" 
d="M447 1507l262 213h249l-304 -213h-207zM84 0v161l681 993v9h-661v202h955v-160l-678 -993v-9h697v-203h-994z" />
    <glyph glyph-name="zacute" unicode="&#x17a;" horiz-adv-x="989" 
d="M572 1219h-195l198 286h240zM88 0v140l524 723v12h-521v183h809v-151l-512 -711v-11h522v-185h-822z" />
    <glyph glyph-name="Zdotaccent" unicode="&#x17b;" horiz-adv-x="1167" 
d="M84 0v161l681 993v9h-661v202h955v-160l-678 -993v-9h697v-203h-994zM469 1605c0 68 49 118 115 118c68 0 120 -50 120 -118c0 -67 -52 -115 -120 -115c-66 0 -115 48 -115 115z" />
    <glyph glyph-name="zdotaccent" unicode="&#x17c;" horiz-adv-x="989" 
d="M380 1298c0 68 49 118 115 118c68 0 120 -50 120 -118c0 -67 -52 -115 -120 -115c-66 0 -115 48 -115 115zM88 0v140l524 723v12h-521v183h809v-151l-512 -711v-11h522v-185h-822z" />
    <glyph glyph-name="Zcaron" unicode="&#x17d;" horiz-adv-x="1167" 
d="M84 0v161l681 993v9h-661v202h955v-160l-678 -993v-9h697v-203h-994zM238 1731h195l146 -124h11l145 124h195l-269 -227h-149z" />
    <glyph glyph-name="zcaron" unicode="&#x17e;" horiz-adv-x="989" 
d="M199 1501h182l114 -181h7l105 182h185l-211 -303h-162zM88 0v140l524 723v12h-521v183h809v-151l-512 -711v-11h522v-185h-822z" />
    <glyph glyph-name="florin" unicode="&#x192;" horiz-adv-x="1144" 
d="M129 -186l163 888h-200l33 191h200l29 169c39 227 174 330 408 330c262 0 333 -168 322 -300h-217c3 69 -44 115 -115 115c-85 0 -132 -55 -149 -157l-27 -157h294l-34 -191h-294l-162 -888h-251z" />
    <glyph glyph-name="Ohorn" unicode="&#x1a0;" horiz-adv-x="1357" 
d="M1242 586c0 -386 -220 -613 -575 -613s-571 227 -571 613v182c0 388 220 624 574 624c190 0 283 -80 408 -80c112 0 135 62 135 145v110h194v-129c0 -177 -94 -284 -262 -284l-4 -5c53 -80 101 -227 101 -381v-182zM340 770v-186c0 -276 139 -407 329 -407
c189 0 329 131 329 407v186c0 276 -140 417 -329 417c-190 0 -329 -141 -329 -417z" />
    <glyph glyph-name="ohorn" unicode="&#x1a1;" horiz-adv-x="1145" 
d="M564 -18c-285 0 -476 173 -476 484v130c0 290 194 480 476 480c121 0 165 -38 271 -38c95 0 119 49 119 136v157h194v-169c0 -150 -57 -258 -198 -274v-9c43 -63 89 -168 89 -282v-131c0 -309 -194 -484 -475 -484zM564 890c-154 0 -239 -132 -239 -302v-116
c0 -171 79 -302 239 -302c158 0 236 131 236 302v116c0 171 -82 302 -236 302z" />
    <glyph glyph-name="Uhorn" unicode="&#x1af;" horiz-adv-x="1437" 
d="M676 -26c-326 0 -541 201 -541 503v888h242v-872c0 -196 117 -311 299 -311c181 0 300 116 300 311v872h243c93 0 119 53 119 137v116h193v-136c0 -160 -83 -284 -258 -284h-56v-724c0 -301 -215 -500 -541 -500z" />
    <glyph glyph-name="uhorn" unicode="&#x1b0;" horiz-adv-x="1304" 
d="M799 176c-29 -85 -126 -192 -312 -192c-211 0 -357 103 -357 352v722h237v-663c0 -166 97 -214 203 -214c132 0 237 97 237 229v648h211c93 0 113 54 113 137v136h194v-156c0 -158 -82 -283 -259 -283h-23v-892h-232v176h-12z" />
    <glyph glyph-name="Acaron" unicode="&#x1cd;" horiz-adv-x="1241" 
d="M261 0h-244l466 1365h275l465 -1365h-259l-116 368h-471zM618 1120h-9l-179 -568h366zM275 1731h195l146 -124h11l145 124h195l-269 -227h-149z" />
    <glyph glyph-name="acaron" unicode="&#x1ce;" horiz-adv-x="1086" 
d="M722 136c-45 -80 -138 -152 -294 -152c-205 0 -347 122 -347 320c0 189 131 312 375 312h264v112c0 111 -68 160 -187 160c-122 0 -179 -58 -188 -147h-225c9 182 125 334 421 334c245 0 414 -100 414 -352v-723h-223v136h-10zM502 162c123 0 218 82 218 193v108h-220
c-124 0 -183 -60 -183 -145c0 -107 90 -156 185 -156zM247 1501h182l114 -181h7l105 182h185l-211 -303h-162z" />
    <glyph glyph-name="Icaron" unicode="&#x1cf;" horiz-adv-x="543" 
d="M392 0h-242v1365h242v-1365zM-74 1731h195l146 -124h11l145 124h195l-269 -227h-149z" />
    <glyph glyph-name="icaron" unicode="&#x1d0;" horiz-adv-x="553" 
d="M-16 1501h182l114 -181h7l105 182h185l-211 -303h-162zM161 0v1058h240v-1058h-240z" />
    <glyph glyph-name="Ocaron" unicode="&#x1d1;" horiz-adv-x="1338" 
d="M323 1731h195l146 -124h11l145 124h195l-269 -227h-149zM340 770v-185c0 -276 139 -407 329 -407c189 0 328 131 328 407v185c0 276 -139 417 -328 417c-190 0 -329 -141 -329 -417zM96 586v182c0 388 220 624 574 624c355 0 572 -237 572 -624v-182
c0 -386 -220 -613 -575 -613s-571 227 -571 613z" />
    <glyph glyph-name="ocaron" unicode="&#x1d2;" horiz-adv-x="1126" 
d="M268 1501h182l114 -181h7l105 182h185l-211 -303h-162zM564 1076c318 0 475 -208 475 -507v-76c0 -309 -157 -511 -475 -511s-476 200 -476 511v75c0 291 158 508 476 508zM564 890c-184 0 -239 -159 -239 -330v-61c0 -170 54 -329 239 -329c184 0 236 158 236 329v61
c0 172 -53 330 -236 330z" />
    <glyph glyph-name="Ucaron" unicode="&#x1d3;" horiz-adv-x="1352" 
d="M330 1731h195l146 -124h11l145 124h195l-269 -227h-149zM377 1365v-873c0 -196 117 -311 299 -311c181 0 300 116 300 311v873h241v-892c0 -301 -215 -500 -541 -500s-541 201 -541 503v889h242z" />
    <glyph glyph-name="ucaron" unicode="&#x1d4;" horiz-adv-x="1181" 
d="M295 1501h182l114 -181h7l105 182h185l-211 -303h-162zM1043 1058v-1058h-231v150h-10c-35 -83 -133 -166 -306 -166c-217 0 -366 125 -366 372v702h237v-638c0 -181 103 -234 217 -234c128 0 223 83 223 237v635h236z" />
    <glyph glyph-name="Udieresismacron" unicode="&#x1d5;" horiz-adv-x="1352" 
d="M431 1582c0 58 40 99 99 99s100 -41 100 -99c0 -57 -40 -98 -100 -98c-59 0 -99 41 -99 98zM760 1582c0 58 40 99 99 99c60 0 100 -41 100 -99c0 -57 -40 -98 -100 -98c-59 0 -99 41 -99 98zM377 1365v-873c0 -196 117 -311 299 -311c181 0 300 116 300 311v873h241v-892
c0 -301 -215 -500 -541 -500s-541 201 -541 503v889h242zM961 1793h-572v123h572v-123z" />
    <glyph glyph-name="udieresismacron" unicode="&#x1d6;" horiz-adv-x="1181" 
d="M1043 1058v-1058h-231v150h-10c-35 -83 -133 -166 -306 -166c-217 0 -366 125 -366 372v702h237v-638c0 -181 103 -234 217 -234c128 0 223 83 223 237v635h236zM291 1277c0 66 45 111 110 111c67 0 112 -45 112 -111c0 -63 -44 -109 -112 -109c-65 0 -110 46 -110 109z
M671 1277c0 66 45 111 110 111c68 0 113 -45 113 -111c0 -63 -45 -109 -113 -109c-65 0 -110 46 -110 109zM877 1539h-571v129h571v-129z" />
    <glyph glyph-name="Udieresisacute" unicode="&#x1d7;" horiz-adv-x="1352" 
d="M539 1741l262 213h249l-304 -213h-207zM431 1582c0 58 40 99 99 99s100 -41 100 -99c0 -57 -40 -98 -100 -98c-59 0 -99 41 -99 98zM760 1582c0 58 40 99 99 99c60 0 100 -41 100 -99c0 -57 -40 -98 -100 -98c-59 0 -99 41 -99 98zM377 1365v-873
c0 -196 117 -311 299 -311c181 0 300 116 300 311v873h241v-892c0 -301 -215 -500 -541 -500s-541 201 -541 503v889h242z" />
    <glyph glyph-name="udieresisacute" unicode="&#x1d8;" horiz-adv-x="1181" 
d="M668 1495h-195l198 286h240zM1043 1058v-1058h-231v150h-10c-35 -83 -133 -166 -306 -166c-217 0 -366 125 -366 372v702h237v-638c0 -181 103 -234 217 -234c128 0 223 83 223 237v635h236zM291 1277c0 66 45 111 110 111c67 0 112 -45 112 -111
c0 -63 -44 -109 -112 -109c-65 0 -110 46 -110 109zM671 1277c0 66 45 111 110 111c68 0 113 -45 113 -111c0 -63 -45 -109 -113 -109c-65 0 -110 46 -110 109z" />
    <glyph glyph-name="Udieresiscaron" unicode="&#x1d9;" horiz-adv-x="1352" 
d="M431 1582c0 58 40 99 99 99s100 -41 100 -99c0 -57 -40 -98 -100 -98c-59 0 -99 41 -99 98zM760 1582c0 58 40 99 99 99c60 0 100 -41 100 -99c0 -57 -40 -98 -100 -98c-59 0 -99 41 -99 98zM330 1992h195l146 -124h11l145 124h195l-269 -227h-149zM377 1365v-873
c0 -196 117 -311 299 -311c181 0 300 116 300 311v873h241v-892c0 -301 -215 -500 -541 -500s-541 201 -541 503v889h242z" />
    <glyph glyph-name="udieresiscaron" unicode="&#x1da;" horiz-adv-x="1181" 
d="M295 1807h182l114 -181h7l105 182h185l-211 -303h-162zM1043 1058v-1058h-231v150h-10c-35 -83 -133 -166 -306 -166c-217 0 -366 125 -366 372v702h237v-638c0 -181 103 -234 217 -234c128 0 223 83 223 237v635h236zM291 1277c0 66 45 111 110 111
c67 0 112 -45 112 -111c0 -63 -44 -109 -112 -109c-65 0 -110 46 -110 109zM671 1277c0 66 45 111 110 111c68 0 113 -45 113 -111c0 -63 -45 -109 -113 -109c-65 0 -110 46 -110 109z" />
    <glyph glyph-name="Udieresisgrave" unicode="&#x1db;" horiz-adv-x="1352" 
d="M802 1741h-200l-298 208h242zM431 1582c0 58 40 99 99 99s100 -41 100 -99c0 -57 -40 -98 -100 -98c-59 0 -99 41 -99 98zM760 1582c0 58 40 99 99 99c60 0 100 -41 100 -99c0 -57 -40 -98 -100 -98c-59 0 -99 41 -99 98zM377 1365v-873c0 -196 117 -311 299 -311
c181 0 300 116 300 311v873h241v-892c0 -301 -215 -500 -541 -500s-541 201 -541 503v889h242z" />
    <glyph glyph-name="udieresisgrave" unicode="&#x1dc;" horiz-adv-x="1181" 
d="M723 1495h-195l-248 283h240zM1043 1058v-1058h-231v150h-10c-35 -83 -133 -166 -306 -166c-217 0 -366 125 -366 372v702h237v-638c0 -181 103 -234 217 -234c128 0 223 83 223 237v635h236zM291 1277c0 66 45 111 110 111c67 0 112 -45 112 -111
c0 -63 -44 -109 -112 -109c-65 0 -110 46 -110 109zM671 1277c0 66 45 111 110 111c68 0 113 -45 113 -111c0 -63 -45 -109 -113 -109c-65 0 -110 46 -110 109z" />
    <glyph glyph-name="Adieresismacron" unicode="&#x1de;" horiz-adv-x="1241" 
d="M261 0h-244l466 1365h275l465 -1365h-259l-116 368h-471zM618 1120h-9l-179 -568h366zM376 1582c0 58 40 99 99 99s100 -41 100 -99c0 -57 -40 -98 -100 -98c-59 0 -99 41 -99 98zM705 1582c0 58 40 99 99 99c60 0 100 -41 100 -99c0 -57 -40 -98 -100 -98
c-59 0 -99 41 -99 98zM906 1793h-572v123h572v-123z" />
    <glyph glyph-name="adieresismacron" unicode="&#x1df;" horiz-adv-x="1086" 
d="M722 136c-45 -80 -138 -152 -294 -152c-205 0 -347 122 -347 320c0 189 131 312 375 312h264v112c0 111 -68 160 -187 160c-122 0 -179 -58 -188 -147h-225c9 182 125 334 421 334c245 0 414 -100 414 -352v-723h-223v136h-10zM502 162c123 0 218 82 218 193v108h-220
c-124 0 -183 -60 -183 -145c0 -107 90 -156 185 -156zM243 1277c0 66 45 111 110 111c67 0 112 -45 112 -111c0 -63 -44 -109 -112 -109c-65 0 -110 46 -110 109zM623 1277c0 66 45 111 110 111c68 0 113 -45 113 -111c0 -63 -45 -109 -113 -109c-65 0 -110 46 -110 109z
M829 1539h-571v129h571v-129z" />
    <glyph glyph-name="Adotmacron" unicode="&#x1e0;" horiz-adv-x="1241" 
d="M261 0h-244l466 1365h275l465 -1365h-259l-116 368h-471zM618 1120h-9l-179 -568h366zM506 1605c0 68 49 118 115 118c68 0 120 -50 120 -118c0 -67 -52 -115 -120 -115c-66 0 -115 48 -115 115zM906 1793h-572v123h572v-123z" />
    <glyph glyph-name="adotmacron" unicode="&#x1e1;" horiz-adv-x="1086" 
d="M722 136c-45 -80 -138 -152 -294 -152c-205 0 -347 122 -347 320c0 189 131 312 375 312h264v112c0 111 -68 160 -187 160c-122 0 -179 -58 -188 -147h-225c9 182 125 334 421 334c245 0 414 -100 414 -352v-723h-223v136h-10zM502 162c123 0 218 82 218 193v108h-220
c-124 0 -183 -60 -183 -145c0 -107 90 -156 185 -156zM428 1298c0 68 49 118 115 118c68 0 120 -50 120 -118c0 -67 -52 -115 -120 -115c-66 0 -115 48 -115 115zM829 1539h-571v129h571v-129z" />
    <glyph glyph-name="AEmacron" unicode="&#x1e2;" horiz-adv-x="1879" 
d="M848 1164l-292 -598h361v598h-69zM917 376h-448l-191 -376h-268l692 1365h1070v-201h-615v-376h579v-191h-579v-395h615v-202h-855v376zM1630 1516h-572v123h572v-123z" />
    <glyph glyph-name="aemacron" unicode="&#x1e3;" horiz-adv-x="1730" 
d="M1206 -18c-208 0 -336 89 -387 199h-14c-53 -100 -170 -199 -360 -199c-220 0 -366 121 -366 323c0 193 135 316 381 316h262v98c0 116 -74 169 -191 169c-116 0 -173 -47 -189 -115h-224c13 175 147 303 419 303c140 0 266 -47 326 -133h14c60 84 183 133 316 133
c268 0 451 -184 451 -478v-123h-677v-72c0 -137 96 -234 238 -234c113 0 186 53 200 119h228c-12 -125 -136 -306 -427 -306zM1194 894c-130 0 -227 -100 -227 -243v-26h447v18c0 154 -83 251 -220 251zM504 162c121 0 218 82 218 193v114h-219c-126 0 -190 -62 -190 -148
c0 -108 94 -159 191 -159zM1151 1220h-571v129h571v-129z" />
    <glyph glyph-name="Gcaron" unicode="&#x1e6;" horiz-adv-x="1295" 
d="M315 1731h195l146 -124h11l145 124h195l-269 -227h-149zM1196 934h-236c-20 167 -144 252 -295 252c-184 0 -326 -125 -326 -412v-176c0 -251 101 -419 326 -419c182 0 303 114 303 262v99h-302v188h533v-275c0 -203 -136 -480 -536 -480c-388 0 -567 257 -567 625v177
c0 381 218 617 572 617c342 0 517 -221 528 -458z" />
    <glyph glyph-name="gcaron" unicode="&#x1e7;" horiz-adv-x="1155" 
d="M282 1501h182l114 -181h7l105 182h185l-211 -303h-162zM549 -212c166 0 247 87 247 239v151h-9c-40 -92 -151 -165 -300 -165c-234 0 -407 173 -407 470v116c0 293 170 474 409 474c171 0 262 -79 303 -167h9v152h230v-1040c0 -298 -223 -412 -489 -412
c-301 0 -433 155 -439 317h232c12 -74 81 -135 214 -135zM564 881c-149 0 -244 -115 -244 -303v-88c0 -189 102 -295 245 -295c147 0 230 125 230 287v97c0 174 -87 302 -231 302z" />
    <glyph glyph-name="Kcaron" unicode="&#x1e8;" horiz-adv-x="1236" 
d="M1212 1365l-493 -586l516 -779h-294l-400 616l-149 -165v-451h-242v1365h242v-626h11l540 626h269zM256 1731h195l146 -124h11l145 124h195l-269 -227h-149z" />
    <glyph glyph-name="kcaron" unicode="&#x1e9;" horiz-adv-x="1075" 
d="M-40 1880h182l114 -181h7l105 182h185l-211 -303h-162zM376 375v-375h-237v1437h237v-831h10l377 452h268l-395 -457l422 -601h-278l-322 463z" />
    <glyph glyph-name="Oogonek" unicode="&#x1ea;" horiz-adv-x="1338" 
d="M340 770v-185c0 -276 139 -407 329 -407c189 0 328 131 328 407v185c0 276 -139 417 -328 417c-190 0 -329 -141 -329 -417zM641 -25c-319 0 -545 232 -545 611v182c0 388 220 624 574 624c355 0 572 -237 572 -624v-182c0 -259 -96 -392 -184 -490
c-78 -87 -156 -141 -156 -229c0 -71 52 -99 119 -99c22 0 53 3 74 9v-145c-22 -7 -63 -20 -131 -20c-134 1 -238 70 -238 198c-1 75 33 142 97 195l-6 11c-58 -32 -120 -41 -176 -41z" />
    <glyph glyph-name="oogonek" unicode="&#x1eb;" horiz-adv-x="1126" 
d="M564 890c-154 0 -239 -132 -239 -302v-116c0 -170 78 -302 239 -302c159 0 236 131 236 302v116c0 172 -83 302 -236 302zM666 16c-51 -22 -91 -30 -146 -30c-244 0 -432 177 -432 473v137c0 290 194 480 479 480c276 0 472 -180 472 -479v-131
c0 -209 -84 -312 -162 -394c-68 -72 -130 -123 -130 -200c0 -70 51 -106 121 -106c22 0 53 3 73 8v-142c-17 -6 -69 -20 -129 -20c-118 0 -241 55 -241 197c0 78 40 147 103 196z" />
    <glyph glyph-name="Oogonekmacron" unicode="&#x1ec;" horiz-adv-x="1338" 
d="M340 770v-185c0 -276 139 -407 329 -407c189 0 328 131 328 407v185c0 276 -139 417 -328 417c-190 0 -329 -141 -329 -417zM641 -25c-319 0 -545 232 -545 611v182c0 388 220 624 574 624c355 0 572 -237 572 -624v-182c0 -259 -96 -392 -184 -490
c-78 -87 -156 -141 -156 -229c0 -71 52 -99 119 -99c22 0 53 3 74 9v-145c-22 -7 -63 -20 -131 -20c-134 1 -238 70 -238 198c-1 75 33 142 97 195l-6 11c-58 -32 -120 -41 -176 -41zM954 1516h-572v123h572v-123z" />
    <glyph glyph-name="oogonekmacron" unicode="&#x1ed;" horiz-adv-x="1126" 
d="M564 890c-154 0 -239 -132 -239 -302v-116c0 -170 78 -302 239 -302c159 0 236 131 236 302v116c0 172 -83 302 -236 302zM666 16c-51 -22 -91 -30 -146 -30c-244 0 -432 177 -432 473v137c0 290 194 480 479 480c276 0 472 -180 472 -479v-131
c0 -209 -84 -312 -162 -394c-68 -72 -130 -123 -130 -200c0 -70 51 -106 121 -106c22 0 53 3 73 8v-142c-17 -6 -69 -20 -129 -20c-118 0 -241 55 -241 197c0 78 40 147 103 196zM850 1220h-571v129h571v-129z" />
    <glyph glyph-name="Gacute" unicode="&#x1f4;" horiz-adv-x="1295" 
d="M524 1507l262 213h249l-304 -213h-207zM1196 934h-236c-20 167 -144 252 -295 252c-184 0 -326 -125 -326 -412v-176c0 -251 101 -419 326 -419c182 0 303 114 303 262v99h-302v188h533v-275c0 -203 -136 -480 -536 -480c-388 0 -567 257 -567 625v177
c0 381 218 617 572 617c342 0 517 -221 528 -458z" />
    <glyph glyph-name="gacute" unicode="&#x1f5;" horiz-adv-x="1155" 
d="M655 1219h-195l198 286h240zM549 -212c166 0 247 87 247 239v151h-9c-40 -92 -151 -165 -300 -165c-234 0 -407 173 -407 470v116c0 293 170 474 409 474c171 0 262 -79 303 -167h9v152h230v-1040c0 -298 -223 -412 -489 -412c-301 0 -433 155 -439 317h232
c12 -74 81 -135 214 -135zM564 881c-149 0 -244 -115 -244 -303v-88c0 -189 102 -295 245 -295c147 0 230 125 230 287v97c0 174 -87 302 -231 302z" />
    <glyph glyph-name="Ngrave" unicode="&#x1f8;" horiz-adv-x="1375" 
d="M814 1507h-200l-298 208h242zM381 0h-231v1365h209l627 -955h8v955h230v-1365h-207l-629 958h-7v-958z" />
    <glyph glyph-name="ngrave" unicode="&#x1f9;" horiz-adv-x="1185" 
d="M725 1222h-195l-248 283h240zM137 0v1058h232v-149h9c36 81 140 166 305 166c210 0 370 -130 370 -376v-699h-237v625c0 173 -84 246 -219 246c-138 0 -224 -86 -224 -253v-618h-236z" />
    <glyph glyph-name="Aringacute" unicode="&#x1fa;" horiz-adv-x="1241" 
d="M561 1645l308 250h257l-332 -250h-233zM507 1487c0 -60 50 -108 110 -108c61 0 110 48 110 108c0 62 -49 109 -110 109c-60 0 -110 -47 -110 -109zM797 552l-177 568h-11l-178 -568h366zM261 0h-243l449 1312c-55 38 -91 103 -91 177c0 132 107 236 241 236
c133 0 240 -104 240 -236c0 -71 -34 -132 -84 -169l450 -1320h-259l-115 368h-471z" />
    <glyph glyph-name="aringacute" unicode="&#x1fb;" horiz-adv-x="1086" 
d="M708 1515h-182l233 327h232zM722 136c-45 -80 -138 -152 -294 -152c-205 0 -347 122 -347 320c0 189 131 312 375 312h264v112c0 111 -68 160 -187 160c-122 0 -179 -58 -188 -147h-225c9 182 125 334 421 334c245 0 414 -100 414 -352v-723h-223v136h-10zM502 162
c123 0 218 82 218 193v108h-220c-124 0 -183 -60 -183 -145c0 -107 90 -156 185 -156zM548 1188c-116 0 -207 85 -207 201s90 200 207 200c116 0 206 -84 206 -200s-90 -201 -206 -201zM451 1389c0 -55 42 -98 96 -98c55 0 96 43 96 98c0 54 -41 97 -96 97
c-54 0 -96 -43 -96 -97z" />
    <glyph glyph-name="AEacute" unicode="&#x1fc;" horiz-adv-x="1879" 
d="M1208 1507l262 213h249l-304 -213h-207zM848 1164l-292 -598h361v598h-69zM917 376h-448l-191 -376h-268l692 1365h1070v-201h-615v-376h579v-191h-579v-395h615v-202h-855v376z" />
    <glyph glyph-name="aeacute" unicode="&#x1fd;" horiz-adv-x="1730" 
d="M942 1219h-195l198 286h240zM1206 -18c-208 0 -336 89 -387 199h-14c-53 -100 -170 -199 -360 -199c-220 0 -366 121 -366 323c0 193 135 316 381 316h262v98c0 116 -74 169 -191 169c-116 0 -173 -47 -189 -115h-224c13 175 147 303 419 303c140 0 266 -47 326 -133h14
c60 84 183 133 316 133c268 0 451 -184 451 -478v-123h-677v-72c0 -137 96 -234 238 -234c113 0 186 53 200 119h228c-12 -125 -136 -306 -427 -306zM1194 894c-130 0 -227 -100 -227 -243v-26h447v18c0 154 -83 251 -220 251zM504 162c121 0 218 82 218 193v114h-219
c-126 0 -190 -62 -190 -148c0 -108 94 -159 191 -159z" />
    <glyph glyph-name="Oslashacute" unicode="&#x1fe;" horiz-adv-x="1338" 
d="M667 -27c-154 0 -283 44 -378 128l-99 -123l-115 93l115 142c-61 98 -94 223 -94 373v182c0 388 220 624 574 624c151 0 278 -45 372 -126l92 114l119 -86l-112 -138c66 -101 101 -232 101 -388v-182c0 -386 -220 -613 -575 -613zM336 583c0 -61 8 -117 23 -162l541 671
c-59 65 -139 98 -232 98c-192 0 -332 -142 -332 -420v-187zM668 173c192 0 333 132 333 410v187c0 68 -10 129 -28 178l-544 -674c59 -68 143 -101 239 -101zM532 1507l262 213h249l-304 -213h-207z" />
    <glyph glyph-name="oslashacute" unicode="&#x1ff;" horiz-adv-x="1126" 
d="M405 225c39 -38 91 -60 159 -60c161 0 242 135 242 307v138c0 44 -9 84 -24 117zM319 452c0 -45 9 -89 25 -121l377 505c-39 38 -91 61 -157 61c-157 0 -245 -136 -245 -308v-137zM564 -18c-109 0 -205 28 -283 80l-103 -132l-102 81l109 141c-61 80 -97 186 -97 314v130
c0 290 194 480 476 480c106 0 202 -29 279 -81l101 130l104 -83l-108 -139c62 -81 99 -184 99 -306v-131c0 -309 -194 -484 -475 -484zM641 1219h-195l198 286h240z" />
    <glyph glyph-name="Adblgrave" unicode="&#x200;" horiz-adv-x="1241" 
d="M261 0h-244l466 1365h275l465 -1365h-259l-116 368h-471zM618 1120h-9l-179 -568h366zM904 1508h-182l-301 222h208zM557 1508h-183l-301 222h208z" />
    <glyph glyph-name="adblgrave" unicode="&#x201;" horiz-adv-x="1086" 
d="M722 136c-45 -80 -138 -152 -294 -152c-205 0 -347 122 -347 320c0 189 131 312 375 312h264v112c0 111 -68 160 -187 160c-122 0 -179 -58 -188 -147h-225c9 182 125 334 421 334c245 0 414 -100 414 -352v-723h-223v136h-10zM502 162c123 0 218 82 218 193v108h-220
c-124 0 -183 -60 -183 -145c0 -107 90 -156 185 -156zM324 1219l-262 321h188l221 -321h-147zM639 1219l-263 321h188l220 -321h-145z" />
    <glyph glyph-name="Ainvertedbreve" unicode="&#x202;" horiz-adv-x="1241" 
d="M261 0h-244l466 1365h275l465 -1365h-259l-116 368h-471zM618 1120h-9l-179 -568h366zM620 1628c-112 0 -183 -60 -183 -139h-146c0 147 105 276 329 276s327 -129 327 -276h-144c0 79 -71 139 -183 139z" />
    <glyph glyph-name="ainvertedbreve" unicode="&#x203;" horiz-adv-x="1086" 
d="M722 136c-45 -80 -138 -152 -294 -152c-205 0 -347 122 -347 320c0 189 131 312 375 312h264v112c0 111 -68 160 -187 160c-122 0 -179 -58 -188 -147h-225c9 182 125 334 421 334c245 0 414 -100 414 -352v-723h-223v136h-10zM502 162c123 0 218 82 218 193v108h-220
c-124 0 -183 -60 -183 -145c0 -107 90 -156 185 -156zM234 1197c0 146 100 297 308 297s308 -151 307 -297h-144c0 84 -49 164 -163 164s-163 -80 -163 -164h-145z" />
    <glyph glyph-name="Edblgrave" unicode="&#x204;" horiz-adv-x="1118" 
d="M858 1508h-182l-301 222h208zM511 1508h-183l-301 222h208zM1012 202v-202h-862v1365h862v-202h-621v-375h584v-191h-584v-395h621z" />
    <glyph glyph-name="edblgrave" unicode="&#x205;" horiz-adv-x="1089" 
d="M561 -18c-305 0 -473 193 -473 500v89c0 307 170 505 459 505c298 0 458 -204 458 -504v-95h-684v-33c0 -147 78 -275 239 -275c129 0 192 67 206 141h228c-17 -142 -134 -328 -433 -328zM321 636h454v2c0 149 -85 256 -226 256c-142 0 -228 -108 -228 -256v-2zM326 1219
l-262 321h188l221 -321h-147zM641 1219l-263 321h188l220 -321h-145z" />
    <glyph glyph-name="Einvertedbreve" unicode="&#x206;" horiz-adv-x="1118" 
d="M1012 202v-202h-862v1365h862v-202h-621v-375h584v-191h-584v-395h621zM574 1628c-112 0 -183 -60 -183 -139h-146c0 147 105 276 329 276s327 -129 327 -276h-144c0 79 -71 139 -183 139z" />
    <glyph glyph-name="einvertedbreve" unicode="&#x207;" horiz-adv-x="1089" 
d="M561 -18c-305 0 -473 193 -473 500v89c0 307 170 505 459 505c298 0 458 -204 458 -504v-95h-684v-33c0 -147 78 -275 239 -275c129 0 192 67 206 141h228c-17 -142 -134 -328 -433 -328zM321 636h454v2c0 149 -85 256 -226 256c-142 0 -228 -108 -228 -256v-2zM236 1197
c0 146 100 297 308 297s308 -151 307 -297h-144c0 84 -49 164 -163 164s-163 -80 -163 -164h-145z" />
    <glyph glyph-name="Idblgrave" unicode="&#x208;" horiz-adv-x="543" 
d="M392 0h-242v1365h242v-1365zM555 1508h-182l-301 222h208zM208 1508h-183l-301 222h208z" />
    <glyph glyph-name="idblgrave" unicode="&#x209;" horiz-adv-x="553" 
d="M161 0v1058h240v-1058h-240zM61 1219l-262 321h188l221 -321h-147zM376 1219l-263 321h188l220 -321h-145z" />
    <glyph glyph-name="Iinvertedbreve" unicode="&#x20a;" horiz-adv-x="543" 
d="M392 0h-242v1365h242v-1365zM271 1628c-112 0 -183 -60 -183 -139h-146c0 147 105 276 329 276s327 -129 327 -276h-144c0 79 -71 139 -183 139z" />
    <glyph glyph-name="iinvertedbreve" unicode="&#x20b;" horiz-adv-x="553" 
d="M161 0v1058h240v-1058h-240zM-29 1197c0 146 100 297 308 297s308 -151 307 -297h-144c0 84 -49 164 -163 164s-163 -80 -163 -164h-145z" />
    <glyph glyph-name="Odblgrave" unicode="&#x20c;" horiz-adv-x="1338" 
d="M952 1508h-182l-301 222h208zM605 1508h-183l-301 222h208zM340 770v-185c0 -276 139 -407 329 -407c189 0 328 131 328 407v185c0 276 -139 417 -328 417c-190 0 -329 -141 -329 -417zM96 586v182c0 388 220 624 574 624c355 0 572 -237 572 -624v-182
c0 -386 -220 -613 -575 -613s-571 227 -571 613z" />
    <glyph glyph-name="odblgrave" unicode="&#x20d;" horiz-adv-x="1126" 
d="M564 1076c318 0 475 -208 475 -507v-76c0 -309 -157 -511 -475 -511s-476 200 -476 511v75c0 291 158 508 476 508zM564 890c-184 0 -239 -159 -239 -330v-61c0 -170 54 -329 239 -329c184 0 236 158 236 329v61c0 172 -53 330 -236 330zM345 1219l-262 321h188l221 -321
h-147zM660 1219l-263 321h188l220 -321h-145z" />
    <glyph glyph-name="Oinvertedbreve" unicode="&#x20e;" horiz-adv-x="1338" 
d="M668 1628c-112 0 -183 -60 -183 -139h-146c0 147 105 276 329 276s327 -129 327 -276h-144c0 79 -71 139 -183 139zM340 770v-185c0 -276 139 -407 329 -407c189 0 328 131 328 407v185c0 276 -139 417 -328 417c-190 0 -329 -141 -329 -417zM96 586v182
c0 388 220 624 574 624c355 0 572 -237 572 -624v-182c0 -386 -220 -613 -575 -613s-571 227 -571 613z" />
    <glyph glyph-name="oinvertedbreve" unicode="&#x20f;" horiz-adv-x="1126" 
d="M564 1076c318 0 475 -208 475 -507v-76c0 -309 -157 -511 -475 -511s-476 200 -476 511v75c0 291 158 508 476 508zM564 890c-184 0 -239 -159 -239 -330v-61c0 -170 54 -329 239 -329c184 0 236 158 236 329v61c0 172 -53 330 -236 330zM255 1197c0 146 100 297 308 297
s308 -151 307 -297h-144c0 84 -49 164 -163 164s-163 -80 -163 -164h-145z" />
    <glyph glyph-name="Rdblgrave" unicode="&#x210;" horiz-adv-x="1246" 
d="M879 1508h-182l-301 222h208zM532 1508h-183l-301 222h208zM680 1365c318 0 467 -191 467 -424c0 -225 -142 -341 -250 -383l276 -558h-272l-243 519h-268v-519h-240v1365h530zM390 706h251c163 0 256 81 256 228c0 157 -103 237 -251 237h-256v-465z" />
    <glyph glyph-name="rdblgrave" unicode="&#x211;" horiz-adv-x="752" 
d="M150 0v1058h236v-137h9c26 66 84 153 251 153c32 0 57 -3 78 -7v-207c-19 6 -59 8 -98 8c-176 0 -236 -104 -236 -246v-622h-240zM206 1219l-262 321h188l221 -321h-147zM521 1219l-263 321h188l220 -321h-145z" />
    <glyph glyph-name="Rinvertedbreve" unicode="&#x212;" horiz-adv-x="1246" 
d="M680 1365c318 0 467 -191 467 -424c0 -225 -142 -341 -250 -383l276 -558h-272l-243 519h-268v-519h-240v1365h530zM390 706h251c163 0 256 81 256 228c0 157 -103 237 -251 237h-256v-465zM595 1628c-112 0 -183 -60 -183 -139h-146c0 147 105 276 329 276
s327 -129 327 -276h-144c0 79 -71 139 -183 139z" />
    <glyph glyph-name="rinvertedbreve" unicode="&#x213;" horiz-adv-x="752" 
d="M150 0v1058h236v-137h9c26 66 84 153 251 153c32 0 57 -3 78 -7v-207c-19 6 -59 8 -98 8c-176 0 -236 -104 -236 -246v-622h-240zM116 1197c0 146 100 297 308 297s308 -151 307 -297h-144c0 84 -49 164 -163 164s-163 -80 -163 -164h-145z" />
    <glyph glyph-name="Udblgrave" unicode="&#x214;" horiz-adv-x="1352" 
d="M959 1508h-182l-301 222h208zM612 1508h-183l-301 222h208zM377 1365v-873c0 -196 117 -311 299 -311c181 0 300 116 300 311v873h241v-892c0 -301 -215 -500 -541 -500s-541 201 -541 503v889h242z" />
    <glyph glyph-name="udblgrave" unicode="&#x215;" horiz-adv-x="1181" 
d="M1043 1058v-1058h-231v150h-10c-35 -83 -133 -166 -306 -166c-217 0 -366 125 -366 372v702h237v-638c0 -181 103 -234 217 -234c128 0 223 83 223 237v635h236zM372 1219l-262 321h188l221 -321h-147zM687 1219l-263 321h188l220 -321h-145z" />
    <glyph glyph-name="Uinvertedbreve" unicode="&#x216;" horiz-adv-x="1352" 
d="M377 1365v-873c0 -196 117 -311 299 -311c181 0 300 116 300 311v873h241v-892c0 -301 -215 -500 -541 -500s-541 201 -541 503v889h242zM675 1628c-112 0 -183 -60 -183 -139h-146c0 147 105 276 329 276s327 -129 327 -276h-144c0 79 -71 139 -183 139z" />
    <glyph glyph-name="uinvertedbreve" unicode="&#x217;" horiz-adv-x="1181" 
d="M1043 1058v-1058h-231v150h-10c-35 -83 -133 -166 -306 -166c-217 0 -366 125 -366 372v702h237v-638c0 -181 103 -234 217 -234c128 0 223 83 223 237v635h236zM282 1197c0 146 100 297 308 297s308 -151 307 -297h-144c0 84 -49 164 -163 164s-163 -80 -163 -164h-145z
" />
    <glyph glyph-name="Scommaaccent" unicode="&#x218;" horiz-adv-x="1191" 
d="M60 382h235c10 -114 110 -212 299 -212c173 0 273 80 273 204c0 101 -70 154 -214 189l-219 53c-180 41 -339 147 -339 371c0 263 229 408 499 408c275 0 492 -150 496 -401h-230c-9 111 -96 205 -268 205c-152 0 -254 -72 -254 -193c0 -87 63 -148 188 -177l220 -53
c204 -47 363 -144 363 -381c0 -268 -216 -422 -532 -422c-385 0 -513 223 -517 409zM570 -489h-166l85 335h195z" />
    <glyph glyph-name="scommaaccent" unicode="&#x219;" horiz-adv-x="1014" 
d="M93 749c0 232 197 327 416 327c249 0 395 -130 395 -321h-211c-7 71 -53 154 -190 154c-111 0 -184 -53 -184 -139c0 -115 154 -130 270 -151c197 -33 346 -99 346 -297c0 -214 -170 -340 -443 -340c-258 0 -419 122 -419 311h230c11 -82 79 -142 200 -142
c143 0 202 64 202 143c0 107 -122 124 -263 151c-193 39 -349 97 -349 304zM500 -489h-166l85 335h195z" />
    <glyph glyph-name="Tcommaaccent" unicode="&#x21a;" horiz-adv-x="1067" 
d="M526 -489h-166l85 335h195zM653 0h-240v1160h-396v205h1033v-205h-397v-1160z" />
    <glyph glyph-name="tcommaaccent" unicode="&#x21b;" horiz-adv-x="715" 
d="M422 -489h-166l85 335h195zM203 1050v264h230v-264h206v-185h-206v-543c0 -112 44 -144 160 -144c20 0 39 0 52 2v-179c-19 -3 -62 -8 -110 -8c-260 0 -336 92 -336 305v567h-148v185h152z" />
    <glyph glyph-name="Hcaron" unicode="&#x21e;" horiz-adv-x="1392" 
d="M1242 0h-242v598h-608v-598h-242v1365h242v-563h608v563h242v-1365zM350 1731h195l146 -124h11l145 124h195l-269 -227h-149z" />
    <glyph glyph-name="hcaron" unicode="&#x21f;" horiz-adv-x="1191" 
d="M141 0v1437h236v-528h10c29 71 120 166 294 166c230 0 380 -160 380 -408v-667h-237v614c0 163 -83 257 -219 257c-138 0 -228 -90 -228 -258v-613h-236zM-38 1880h182l114 -181h7l105 182h185l-211 -303h-162z" />
    <glyph glyph-name="Adotaccent" unicode="&#x226;" horiz-adv-x="1241" 
d="M261 0h-244l466 1365h275l465 -1365h-259l-116 368h-471zM618 1120h-9l-179 -568h366zM506 1605c0 68 49 118 115 118c68 0 120 -50 120 -118c0 -67 -52 -115 -120 -115c-66 0 -115 48 -115 115z" />
    <glyph glyph-name="adotaccent" unicode="&#x227;" horiz-adv-x="1086" 
d="M722 136c-45 -80 -138 -152 -294 -152c-205 0 -347 122 -347 320c0 189 131 312 375 312h264v112c0 111 -68 160 -187 160c-122 0 -179 -58 -188 -147h-225c9 182 125 334 421 334c245 0 414 -100 414 -352v-723h-223v136h-10zM502 162c123 0 218 82 218 193v108h-220
c-124 0 -183 -60 -183 -145c0 -107 90 -156 185 -156zM428 1298c0 68 49 118 115 118c68 0 120 -50 120 -118c0 -67 -52 -115 -120 -115c-66 0 -115 48 -115 115z" />
    <glyph glyph-name="Ecedilla" unicode="&#x228;" horiz-adv-x="1118" 
d="M575 -470c-65 -2 -122 7 -148 15v117c27 -8 79 -14 113 -14c53 0 113 14 113 68c0 57 -57 63 -137 63h-54v93l48 128h-360v1365h862v-202h-621v-375h584v-191h-584v-395h621v-202h-357l-43 -112c121 0 200 -58 200 -165c0 -132 -101 -189 -237 -193z" />
    <glyph glyph-name="ecedilla" unicode="&#x229;" horiz-adv-x="1089" 
d="M321 636h454v2c0 149 -85 256 -226 256c-142 0 -228 -108 -228 -256v-2zM555 -484c-65 -2 -122 8 -148 15v117c27 -8 79 -13 113 -13c53 0 113 13 113 67c0 58 -57 63 -137 63h-54v94l48 126c-261 28 -402 215 -402 497v89c0 307 170 505 459 505
c298 0 458 -204 458 -504v-95h-684v-33c0 -147 78 -275 239 -275c129 0 192 67 206 141h228c-16 -129 -115 -296 -360 -324l-42 -111c121 0 200 -59 200 -166c0 -132 -101 -189 -237 -193z" />
    <glyph glyph-name="Odieresismacron" unicode="&#x22a;" horiz-adv-x="1338" 
d="M424 1582c0 58 40 99 99 99s100 -41 100 -99c0 -57 -40 -98 -100 -98c-59 0 -99 41 -99 98zM753 1582c0 58 40 99 99 99c60 0 100 -41 100 -99c0 -57 -40 -98 -100 -98c-59 0 -99 41 -99 98zM340 770v-185c0 -276 139 -407 329 -407c189 0 328 131 328 407v185
c0 276 -139 417 -328 417c-190 0 -329 -141 -329 -417zM96 586v182c0 388 220 624 574 624c355 0 572 -237 572 -624v-182c0 -386 -220 -613 -575 -613s-571 227 -571 613zM954 1793h-572v123h572v-123z" />
    <glyph glyph-name="odieresismacron" unicode="&#x22b;" horiz-adv-x="1126" 
d="M264 1277c0 66 45 111 110 111c67 0 112 -45 112 -111c0 -63 -44 -109 -112 -109c-65 0 -110 46 -110 109zM644 1277c0 66 45 111 110 111c68 0 113 -45 113 -111c0 -63 -45 -109 -113 -109c-65 0 -110 46 -110 109zM564 1076c318 0 475 -208 475 -507v-76
c0 -309 -157 -511 -475 -511s-476 200 -476 511v75c0 291 158 508 476 508zM564 890c-184 0 -239 -159 -239 -330v-61c0 -170 54 -329 239 -329c184 0 236 158 236 329v61c0 172 -53 330 -236 330zM850 1539h-571v129h571v-129z" />
    <glyph glyph-name="Otildemacron" unicode="&#x22c;" horiz-adv-x="1338" 
d="M340 770v-185c0 -276 139 -407 329 -407c189 0 328 131 328 407v185c0 276 -139 417 -328 417c-190 0 -329 -141 -329 -417zM96 586v182c0 388 220 624 574 624c355 0 572 -237 572 -624v-182c0 -386 -220 -613 -575 -613s-571 227 -571 613zM648 1531
c-24 22 -46 49 -81 49c-50 0 -62 -47 -64 -88h-128c0 102 55 207 177 207c66 0 104 -25 147 -65c28 -25 45 -50 79 -50c47 0 63 57 66 99h128c0 -107 -71 -210 -181 -210c-78 0 -111 26 -143 58zM954 1793h-572v123h572v-123z" />
    <glyph glyph-name="otildemacron" unicode="&#x22d;" horiz-adv-x="1126" 
d="M530 1231c-23 23 -47 50 -83 50c-55 0 -68 -52 -70 -99h-140c0 130 60 252 199 252c63 0 105 -27 153 -75c27 -27 47 -54 83 -54c50 0 67 64 70 111h139c0 -126 -77 -252 -203 -252c-76 0 -114 32 -148 67zM850 1539h-571v129h571v-129zM564 1076
c318 0 475 -208 475 -507v-76c0 -309 -157 -511 -475 -511s-476 200 -476 511v75c0 291 158 508 476 508zM564 890c-184 0 -239 -159 -239 -330v-61c0 -170 54 -329 239 -329c184 0 236 158 236 329v61c0 172 -53 330 -236 330z" />
    <glyph glyph-name="Odotaccent" unicode="&#x22e;" horiz-adv-x="1338" 
d="M554 1605c0 68 49 118 115 118c68 0 120 -50 120 -118c0 -67 -52 -115 -120 -115c-66 0 -115 48 -115 115zM340 770v-185c0 -276 139 -407 329 -407c189 0 328 131 328 407v185c0 276 -139 417 -328 417c-190 0 -329 -141 -329 -417zM96 586v182c0 388 220 624 574 624
c355 0 572 -237 572 -624v-182c0 -386 -220 -613 -575 -613s-571 227 -571 613z" />
    <glyph glyph-name="odotaccent" unicode="&#x22f;" horiz-adv-x="1126" 
d="M449 1298c0 68 49 118 115 118c68 0 120 -50 120 -118c0 -67 -52 -115 -120 -115c-66 0 -115 48 -115 115zM564 1076c318 0 475 -208 475 -507v-76c0 -309 -157 -511 -475 -511s-476 200 -476 511v75c0 291 158 508 476 508zM564 890c-184 0 -239 -159 -239 -330v-61
c0 -170 54 -329 239 -329c184 0 236 158 236 329v61c0 172 -53 330 -236 330z" />
    <glyph glyph-name="Odotaccentmacron" unicode="&#x230;" horiz-adv-x="1338" 
d="M554 1605c0 68 49 118 115 118c68 0 120 -50 120 -118c0 -67 -52 -115 -120 -115c-66 0 -115 48 -115 115zM340 770v-185c0 -276 139 -407 329 -407c189 0 328 131 328 407v185c0 276 -139 417 -328 417c-190 0 -329 -141 -329 -417zM96 586v182c0 388 220 624 574 624
c355 0 572 -237 572 -624v-182c0 -386 -220 -613 -575 -613s-571 227 -571 613zM954 1793h-572v123h572v-123z" />
    <glyph glyph-name="odotaccentmacron" unicode="&#x231;" horiz-adv-x="1126" 
d="M449 1298c0 68 49 118 115 118c68 0 120 -50 120 -118c0 -67 -52 -115 -120 -115c-66 0 -115 48 -115 115zM850 1539h-571v129h571v-129zM564 1076c318 0 475 -208 475 -507v-76c0 -309 -157 -511 -475 -511s-476 200 -476 511v75c0 291 158 508 476 508zM564 890
c-184 0 -239 -159 -239 -330v-61c0 -170 54 -329 239 -329c184 0 236 158 236 329v61c0 172 -53 330 -236 330z" />
    <glyph glyph-name="Ymacron" unicode="&#x232;" horiz-adv-x="1132" 
d="M687 0h-242v539l-456 826h270l305 -587h8l308 587h264l-457 -822v-543zM852 1516h-572v123h572v-123z" />
    <glyph glyph-name="ymacron" unicode="&#x233;" horiz-adv-x="1072" 
d="M1036 1058c0 0 -353 -1031 -356 -1039l-27 -72c-67 -180 -159 -327 -413 -327c-52 0 -106 6 -134 11v175c17 -3 57 -6 84 -6c129 0 176 55 197 151l12 43l-373 1064h261l243 -848h9l247 848h250zM822 1220h-571v129h571v-129z" />
    <glyph glyph-name="circumflex" unicode="&#x2c6;" horiz-adv-x="947" 
d="M200 1208l221 302h162l211 -303h-185l-105 182h-7l-115 -181h-182z" />
    <glyph glyph-name="caron" unicode="&#x2c7;" horiz-adv-x="947" 
d="M175 1529h182l114 -181h7l105 182h185l-211 -303h-162z" />
    <glyph glyph-name="breve" unicode="&#x2d8;" horiz-adv-x="947" 
d="M163 1541h145c0 -84 49 -164 163 -164s163 80 163 164h144c-1 -146 -98 -297 -307 -297c-208 0 -309 151 -308 297z" />
    <glyph glyph-name="dotaccent" unicode="&#x2d9;" horiz-adv-x="947" 
d="M345 1445c0 84 63 139 141 139c81 0 144 -56 144 -139s-63 -137 -144 -137c-78 0 -141 54 -141 137z" />
    <glyph glyph-name="ring" unicode="&#x2da;" horiz-adv-x="947" 
d="M478 1222c-116 0 -207 85 -207 201s90 200 207 200c116 0 206 -84 206 -200s-90 -201 -206 -201zM381 1423c0 -55 42 -98 96 -98c55 0 96 43 96 98c0 54 -41 97 -96 97c-54 0 -96 -43 -96 -97z" />
    <glyph glyph-name="ogonek" unicode="&#x2db;" horiz-adv-x="947" 
d="M661 -225v-140c-21 -10 -68 -23 -142 -23c-130 0 -224 67 -224 192c0 131 117 232 180 299h141c-58 -57 -148 -152 -148 -242c0 -66 51 -96 110 -96c23 0 57 4 83 10z" />
    <glyph glyph-name="tilde" unicode="&#x2dc;" horiz-adv-x="947" 
d="M402 1292c-23 23 -47 50 -83 50c-55 0 -68 -52 -70 -99h-140c0 130 60 252 199 252c63 0 105 -27 153 -75c27 -27 47 -54 83 -54c50 0 67 64 70 111h139c0 -126 -77 -252 -203 -252c-76 0 -114 32 -148 67z" />
    <glyph glyph-name="hungarumlaut" unicode="&#x2dd;" horiz-adv-x="947" 
d="M250 1221h-146l221 321h188zM565 1221h-147l221 321h188z" />
    <glyph glyph-name="gravecmb" unicode="&#x300;" 
d="M133 1222h-195l-248 283h240z" />
    <glyph glyph-name="acutecmb" unicode="&#x301;" 
d="M78 1219h-195l198 286h240z" />
    <glyph glyph-name="circumflexcmb" unicode="&#x302;" 
d="M-304 1221l221 302h162l211 -303h-185l-105 182h-7l-115 -181h-182z" />
    <glyph glyph-name="tildecmb" unicode="&#x303;" 
d="M-33 1231c-23 23 -47 50 -83 50c-55 0 -68 -52 -70 -99h-140c0 130 60 252 199 252c63 0 105 -27 153 -75c27 -27 47 -54 83 -54c50 0 67 64 70 111h139c0 -126 -77 -252 -203 -252c-76 0 -114 32 -148 67z" />
    <glyph glyph-name="macroncmb" unicode="&#x304;" 
d="M287 1220h-571v129h571v-129z" />
    <glyph glyph-name="brevecmb" unicode="&#x306;" 
d="M-314 1461h145c0 -84 49 -164 163 -164s163 80 163 164h144c-1 -146 -98 -297 -307 -297c-208 0 -309 151 -308 297z" />
    <glyph glyph-name="dotaccentcmb" unicode="&#x307;" 
d="M-114 1298c0 68 49 118 115 118c68 0 120 -50 120 -118c0 -67 -52 -115 -120 -115c-66 0 -115 48 -115 115z" />
    <glyph glyph-name="dieresiscmb" unicode="&#x308;" 
d="M-299 1277c0 66 45 111 110 111c67 0 112 -45 112 -111c0 -63 -44 -109 -112 -109c-65 0 -110 46 -110 109zM81 1277c0 66 45 111 110 111c68 0 113 -45 113 -111c0 -63 -45 -109 -113 -109c-65 0 -110 46 -110 109z" />
    <glyph glyph-name="hookabovecmb" unicode="&#x309;" 
d="M-138 1436v115c24 10 63 18 111 18c138 0 224 -70 224 -187c0 -109 -75 -163 -164 -210l-72 93c68 38 95 68 95 107c0 46 -41 78 -101 78c-37 0 -72 -6 -93 -14z" />
    <glyph glyph-name="ringcmb" unicode="&#x30a;" 
d="M-2 1188c-116 0 -207 85 -207 201s90 200 207 200c116 0 206 -84 206 -200s-90 -201 -206 -201zM-99 1389c0 -55 42 -98 96 -98c55 0 96 43 96 98c0 54 -41 97 -96 97c-54 0 -96 -43 -96 -97z" />
    <glyph glyph-name="hungarumlautcmb" unicode="&#x30b;" 
d="M-114 1219h-146l221 321h188zM201 1219h-147l221 321h188z" />
    <glyph glyph-name="caroncmb" unicode="&#x30c;" 
d="M-295 1501h182l114 -181h7l105 182h185l-211 -303h-162z" />
    <glyph glyph-name="dblgravecmb" unicode="&#x30f;" 
d="M-218 1219l-262 321h188l221 -321h-147zM97 1219l-263 321h188l220 -321h-145z" />
    <glyph glyph-name="invertedbrevecmb" unicode="&#x311;" 
d="M-308 1197c0 146 100 297 308 297s308 -151 307 -297h-144c0 84 -49 164 -163 164s-163 -80 -163 -164h-145z" />
    <glyph glyph-name="horncmb" unicode="&#x31b;" 
d="M-154 916v185c23 -20 51 -29 83 -28c86 2 108 58 108 136v157h194v-176c0 -156 -70 -301 -250 -301c-62 0 -106 8 -135 27z" />
    <glyph glyph-name="dotbelowcmb" unicode="&#x323;" 
d="M-119 -267c0 71 54 124 120 124c72 0 126 -53 126 -124c0 -69 -54 -121 -126 -121c-66 0 -120 52 -120 121z" />
    <glyph glyph-name="dieresisbelowcmb" unicode="&#x324;" 
d="M-301 -311c0 66 45 111 110 111c67 0 112 -45 112 -111c0 -63 -44 -109 -112 -109c-65 0 -110 46 -110 109zM79 -311c0 66 45 111 110 111c68 0 113 -45 113 -111c0 -63 -45 -109 -113 -109c-65 0 -110 46 -110 109z" />
    <glyph glyph-name="ringbelowcmb" unicode="&#x325;" 
d="M-207 -490c-116 0 -207 85 -207 201s90 200 207 200c116 0 206 -84 206 -200s-90 -201 -206 -201zM-304 -289c0 -55 42 -98 96 -98c55 0 96 43 96 98c0 54 -41 97 -96 97c-54 0 -96 -43 -96 -97z" />
    <glyph glyph-name="commabelowcmb" unicode="&#x326;" 
d="M-7 -489h-166l85 335h195z" />
    <glyph glyph-name="cedillacmb" unicode="&#x327;" 
d="M-120 -235v94l56 148h144l-50 -132c121 0 200 -59 200 -166c0 -132 -101 -189 -237 -193c-65 -2 -122 8 -148 15v117c27 -8 79 -13 113 -13c53 0 113 13 113 67c0 58 -57 63 -137 63h-54z" />
    <glyph glyph-name="ogonekcmb" unicode="&#x328;" 
d="M161 -225v-140c-21 -10 -68 -23 -142 -23c-130 0 -224 67 -224 192c0 131 117 232 180 299h141c-58 -57 -148 -152 -148 -242c0 -66 51 -96 110 -96c23 0 57 4 83 10z" />
    <glyph glyph-name="circumflexbelowcmb" unicode="&#x32d;" 
d="M-300 -401l220 289h162l211 -291h-185l-105 173h-7l-115 -171h-181z" />
    <glyph glyph-name="brevebelowcmb" unicode="&#x32e;" 
d="M-321 -133h152c0 -84 52 -164 169 -164s169 80 169 164h145c0 -146 -96 -296 -314 -296s-321 147 -321 296z" />
    <glyph glyph-name="tildebelowcmb" unicode="&#x330;" 
d="M-27 -299c-23 23 -47 53 -82 53c-52 0 -63 -50 -66 -94h-131c0 108 57 219 182 219c67 0 106 -26 150 -69c29 -27 47 -53 81 -53c48 0 65 61 67 105h131c0 -113 -72 -223 -184 -223c-80 0 -115 29 -148 62z" />
    <glyph glyph-name="macronbelowcmb" unicode="&#x331;" 
d="M287 -326h-571v129h571v-129z" />
    <glyph glyph-name="Delta" unicode="&#x394;" horiz-adv-x="1241" 
d="M18 0l466 1365h275l464 -1365h-1205zM609 1120l-287 -907h582l-284 907h-11z" />
    <glyph glyph-name="Omega" unicode="&#x3a9;" horiz-adv-x="1350" 
d="M770 0v242c130 41 233 203 233 422v143c0 272 -139 380 -328 380c-190 0 -329 -108 -329 -380v-143c0 -213 98 -374 222 -418v-245h-491v203h237v19c-124 59 -212 240 -212 445v143c0 387 220 581 574 581c355 0 572 -194 572 -581v-143c0 -205 -96 -387 -220 -445v-22
h246v-201h-504z" />
    <glyph glyph-name="mu" unicode="&#x3bc;" horiz-adv-x="1211" 
d="M341 50h-11l13 -386h-213v1394h237v-663c0 -166 97 -214 203 -214c133 0 237 97 237 229v648h236v-790c0 -67 30 -101 97 -101c20 0 39 2 54 5v-173c-37 -9 -77 -14 -140 -14c-112 0 -213 55 -220 175l-1 19h-13c-23 -88 -121 -194 -294 -194c-75 0 -154 25 -185 65z" />
    <glyph glyph-name="pi" unicode="&#x3c0;" horiz-adv-x="1325" 
d="M1223 0c-23 -5 -75 -13 -142 -13c-155 0 -243 86 -243 216v670h-335v-873h-236v873h-222v185h1234v-185h-205v-605c0 -57 30 -93 87 -93c22 0 46 2 62 6v-181z" />
    <glyph glyph-name="Aringbelow" unicode="&#x1e00;" horiz-adv-x="1241" 
d="M261 0h-244l466 1365h275l465 -1365h-259l-116 368h-471zM618 1120h-9l-179 -568h366zM611 -472c-116 0 -207 85 -207 201s90 200 207 200c116 0 206 -84 206 -200s-90 -201 -206 -201zM514 -271c0 -55 42 -98 96 -98c55 0 96 43 96 98c0 54 -41 97 -96 97
c-54 0 -96 -43 -96 -97z" />
    <glyph glyph-name="aringbelow" unicode="&#x1e01;" horiz-adv-x="1086" 
d="M722 136c-45 -80 -138 -152 -294 -152c-205 0 -347 122 -347 320c0 189 131 312 375 312h264v112c0 111 -68 160 -187 160c-122 0 -179 -58 -188 -147h-225c9 182 125 334 421 334c245 0 414 -100 414 -352v-723h-223v136h-10zM502 162c123 0 218 82 218 193v108h-220
c-124 0 -183 -60 -183 -145c0 -107 90 -156 185 -156zM542 -490c-116 0 -207 85 -207 201s90 200 207 200c116 0 206 -84 206 -200s-90 -201 -206 -201zM445 -289c0 -55 42 -98 96 -98c55 0 96 43 96 98c0 54 -41 97 -96 97c-54 0 -96 -43 -96 -97z" />
    <glyph glyph-name="Bdotaccent" unicode="&#x1e02;" horiz-adv-x="1247" 
d="M150 0v1365h553c235 0 396 -123 396 -336c0 -170 -100 -266 -229 -299v-11c175 -20 302 -139 302 -334c0 -251 -205 -385 -476 -385h-546zM391 1178v-387h187c188 0 282 63 282 197c0 129 -89 190 -210 190h-259zM391 614v-426h211c192 0 323 45 323 207
c0 144 -100 219 -257 219h-277zM479 1605c0 68 49 118 115 118c68 0 120 -50 120 -118c0 -67 -52 -115 -120 -115c-66 0 -115 48 -115 115z" />
    <glyph glyph-name="bdotaccent" unicode="&#x1e03;" horiz-adv-x="1182" 
d="M141 1677c0 68 49 118 115 118c68 0 120 -50 120 -118c0 -67 -52 -115 -120 -115c-66 0 -115 48 -115 115zM687 -14c-163 0 -269 76 -307 176h-9v-162h-231v1437h236v-531h9c43 86 129 167 306 167c257 0 402 -187 402 -488v-110c0 -313 -152 -489 -406 -489zM617 178
c139 0 235 105 235 306v85c0 203 -90 312 -235 312c-148 0 -241 -124 -241 -302v-103c0 -160 78 -298 241 -298z" />
    <glyph glyph-name="Bdotbelow" unicode="&#x1e04;" horiz-adv-x="1247" 
d="M474 -267c0 71 54 124 120 124c72 0 126 -53 126 -124c0 -69 -54 -121 -126 -121c-66 0 -120 52 -120 121zM150 0v1365h553c235 0 396 -123 396 -336c0 -170 -100 -266 -229 -299v-11c175 -20 302 -139 302 -334c0 -251 -205 -385 -476 -385h-546zM391 1178v-387h187
c188 0 282 63 282 197c0 129 -89 190 -210 190h-259zM391 614v-426h211c192 0 323 45 323 207c0 144 -100 219 -257 219h-277z" />
    <glyph glyph-name="bdotbelow" unicode="&#x1e05;" horiz-adv-x="1182" 
d="M472 -267c0 71 54 124 120 124c72 0 126 -53 126 -124c0 -69 -54 -121 -126 -121c-66 0 -120 52 -120 121zM687 -14c-163 0 -269 76 -307 176h-9v-162h-231v1437h236v-531h9c43 86 129 167 306 167c257 0 402 -187 402 -488v-110c0 -313 -152 -489 -406 -489zM617 178
c139 0 235 105 235 306v85c0 203 -90 312 -235 312c-148 0 -241 -124 -241 -302v-103c0 -160 78 -298 241 -298z" />
    <glyph glyph-name="Blinebelow" unicode="&#x1e06;" horiz-adv-x="1247" 
d="M150 0v1365h553c235 0 396 -123 396 -336c0 -170 -100 -266 -229 -299v-11c175 -20 302 -139 302 -334c0 -251 -205 -385 -476 -385h-546zM391 1178v-387h187c188 0 282 63 282 197c0 129 -89 190 -210 190h-259zM391 614v-426h211c192 0 323 45 323 207
c0 144 -100 219 -257 219h-277zM880 -326h-571v129h571v-129z" />
    <glyph glyph-name="blinebelow" unicode="&#x1e07;" horiz-adv-x="1182" 
d="M878 -326h-571v129h571v-129zM687 -14c-163 0 -269 76 -307 176h-9v-162h-231v1437h236v-531h9c43 86 129 167 306 167c257 0 402 -187 402 -488v-110c0 -313 -152 -489 -406 -489zM617 178c139 0 235 105 235 306v85c0 203 -90 312 -235 312c-148 0 -241 -124 -241 -302
v-103c0 -160 78 -298 241 -298z" />
    <glyph glyph-name="Ccedillaacute" unicode="&#x1e08;" horiz-adv-x="1270" 
d="M513 1507l262 213h249l-304 -213h-207zM644 -484c-65 -2 -121 8 -148 15v117c27 -8 79 -13 114 -13c53 0 112 13 112 67c0 58 -57 63 -136 63h-54v94l44 118c-300 32 -480 250 -480 620v165c0 403 214 630 560 630c337 0 526 -227 526 -474v-19h-234
c0 144 -101 286 -291 286c-189 0 -317 -139 -317 -424v-163c0 -288 127 -417 321 -417c189 0 287 123 287 268h234v-20c0 -208 -154 -427 -462 -453l-39 -101c121 0 201 -59 201 -166c0 -132 -102 -189 -238 -193z" />
    <glyph glyph-name="ccedillaacute" unicode="&#x1e09;" horiz-adv-x="1054" 
d="M604 1219h-195l198 286h240zM537 -469c-65 -3 -122 7 -148 15v117c27 -8 79 -14 113 -14c53 0 113 14 113 68c0 57 -50 62 -130 62h-54v94l48 113c-249 28 -391 218 -391 494v105c0 283 166 491 461 491c271 0 425 -167 427 -358h-221c-9 78 -76 168 -200 168
c-156 0 -231 -134 -231 -306v-100c0 -177 84 -302 231 -302c131 0 190 70 205 149h221c-5 -177 -141 -316 -357 -341l-43 -97c121 0 193 -58 193 -165c0 -132 -101 -189 -237 -193z" />
    <glyph glyph-name="Ddotaccent" unicode="&#x1e0a;" horiz-adv-x="1317" 
d="M489 1605c0 68 49 118 115 118c68 0 120 -50 120 -118c0 -67 -52 -115 -120 -115c-66 0 -115 48 -115 115zM150 1365h481c440 0 607 -280 607 -680c0 -396 -163 -685 -607 -685h-481v1365zM392 1164v-962h210c254 0 387 142 387 479c0 284 -96 483 -387 483h-210z" />
    <glyph glyph-name="ddotaccent" unicode="&#x1e0b;" horiz-adv-x="1184" 
d="M812 1677c0 68 49 118 115 118c68 0 120 -50 120 -118c0 -67 -52 -115 -120 -115c-66 0 -115 48 -115 115zM494 1073c163 0 269 -73 304 -167h9v531h236v-1437h-231v162h-9c-28 -94 -141 -176 -309 -176c-260 0 -405 191 -405 484v120c0 289 143 483 405 483zM565 881
c-157 0 -235 -127 -235 -316v-71c0 -192 80 -317 239 -317c147 0 238 113 238 315v79c0 192 -91 310 -242 310z" />
    <glyph glyph-name="Ddotbelow" unicode="&#x1e0c;" horiz-adv-x="1317" 
d="M484 -267c0 71 54 124 120 124c72 0 126 -53 126 -124c0 -69 -54 -121 -126 -121c-66 0 -120 52 -120 121zM150 1365h481c440 0 607 -280 607 -680c0 -396 -163 -685 -607 -685h-481v1365zM392 1164v-962h210c254 0 387 142 387 479c0 284 -96 483 -387 483h-210z" />
    <glyph glyph-name="ddotbelow" unicode="&#x1e0d;" horiz-adv-x="1184" 
d="M472 -267c0 71 54 124 120 124c72 0 126 -53 126 -124c0 -69 -54 -121 -126 -121c-66 0 -120 52 -120 121zM494 1073c163 0 269 -73 304 -167h9v531h236v-1437h-231v162h-9c-28 -94 -141 -176 -309 -176c-260 0 -405 191 -405 484v120c0 289 143 483 405 483zM565 881
c-157 0 -235 -127 -235 -316v-71c0 -192 80 -317 239 -317c147 0 238 113 238 315v79c0 192 -91 310 -242 310z" />
    <glyph glyph-name="Dlinebelow" unicode="&#x1e0e;" horiz-adv-x="1317" 
d="M890 -326h-571v129h571v-129zM150 1365h481c440 0 607 -280 607 -680c0 -396 -163 -685 -607 -685h-481v1365zM392 1164v-962h210c254 0 387 142 387 479c0 284 -96 483 -387 483h-210z" />
    <glyph glyph-name="dlinebelow" unicode="&#x1e0f;" horiz-adv-x="1184" 
d="M878 -326h-571v129h571v-129zM494 1073c163 0 269 -73 304 -167h9v531h236v-1437h-231v162h-9c-28 -94 -141 -176 -309 -176c-260 0 -405 191 -405 484v120c0 289 143 483 405 483zM565 881c-157 0 -235 -127 -235 -316v-71c0 -192 80 -317 239 -317
c147 0 238 113 238 315v79c0 192 -91 310 -242 310z" />
    <glyph glyph-name="Dcommaaccent" unicode="&#x1e10;" horiz-adv-x="1317" 
d="M596 -489h-166l85 335h195zM150 1365h481c440 0 607 -280 607 -680c0 -396 -163 -685 -607 -685h-481v1365zM392 1164v-962h210c254 0 387 142 387 479c0 284 -96 483 -387 483h-210z" />
    <glyph glyph-name="dcommaaccent" unicode="&#x1e11;" horiz-adv-x="1184" 
d="M584 -489h-166l85 335h195zM494 1073c163 0 269 -73 304 -167h9v531h236v-1437h-231v162h-9c-28 -94 -141 -176 -309 -176c-260 0 -405 191 -405 484v120c0 289 143 483 405 483zM565 881c-157 0 -235 -127 -235 -316v-71c0 -192 80 -317 239 -317c147 0 238 113 238 315
v79c0 192 -91 310 -242 310z" />
    <glyph glyph-name="Dcircumflexbelow" unicode="&#x1e12;" horiz-adv-x="1317" 
d="M150 1365h481c440 0 607 -280 607 -680c0 -396 -163 -685 -607 -685h-481v1365zM392 1164v-962h210c254 0 387 142 387 479c0 284 -96 483 -387 483h-210zM303 -401l220 289h162l211 -291h-185l-105 173h-7l-115 -171h-181z" />
    <glyph glyph-name="dcircumflexbelow" unicode="&#x1e13;" horiz-adv-x="1184" 
d="M494 1073c163 0 269 -73 304 -167h9v531h236v-1437h-231v162h-9c-28 -94 -141 -176 -309 -176c-260 0 -405 191 -405 484v120c0 289 143 483 405 483zM565 881c-157 0 -235 -127 -235 -316v-71c0 -192 80 -317 239 -317c147 0 238 113 238 315v79c0 192 -91 310 -242 310
zM291 -401l220 289h162l211 -291h-185l-105 173h-7l-115 -171h-181z" />
    <glyph glyph-name="Emacrongrave" unicode="&#x1e14;" horiz-adv-x="1118" 
d="M701 1741h-200l-298 208h242zM1012 202v-202h-862v1365h862v-202h-621v-375h584v-191h-584v-395h621zM860 1516h-572v123h572v-123z" />
    <glyph glyph-name="emacrongrave" unicode="&#x1e15;" horiz-adv-x="1089" 
d="M677 1495h-195l-248 283h240zM561 -18c-305 0 -473 193 -473 500v89c0 307 170 505 459 505c298 0 458 -204 458 -504v-95h-684v-33c0 -147 78 -275 239 -275c129 0 192 67 206 141h228c-17 -142 -134 -328 -433 -328zM321 636h454v2c0 149 -85 256 -226 256
c-142 0 -228 -108 -228 -256v-2zM831 1220h-571v129h571v-129z" />
    <glyph glyph-name="Emacronacute" unicode="&#x1e16;" horiz-adv-x="1118" 
d="M438 1741l262 213h249l-304 -213h-207zM1012 202v-202h-862v1365h862v-202h-621v-375h584v-191h-584v-395h621zM860 1516h-572v123h572v-123z" />
    <glyph glyph-name="emacronacute" unicode="&#x1e17;" horiz-adv-x="1089" 
d="M622 1495h-195l198 286h240zM561 -18c-305 0 -473 193 -473 500v89c0 307 170 505 459 505c298 0 458 -204 458 -504v-95h-684v-33c0 -147 78 -275 239 -275c129 0 192 67 206 141h228c-17 -142 -134 -328 -433 -328zM321 636h454v2c0 149 -85 256 -226 256
c-142 0 -228 -108 -228 -256v-2zM831 1220h-571v129h571v-129z" />
    <glyph glyph-name="Ecircumflexbelow" unicode="&#x1e18;" horiz-adv-x="1118" 
d="M1012 202v-202h-862v1365h862v-202h-621v-375h584v-191h-584v-395h621zM274 -401l220 289h162l211 -291h-185l-105 173h-7l-115 -171h-181z" />
    <glyph glyph-name="ecircumflexbelow" unicode="&#x1e19;" horiz-adv-x="1089" 
d="M561 -18c-305 0 -473 193 -473 500v89c0 307 170 505 459 505c298 0 458 -204 458 -504v-95h-684v-33c0 -147 78 -275 239 -275c129 0 192 67 206 141h228c-17 -142 -134 -328 -433 -328zM321 636h454v2c0 149 -85 256 -226 256c-142 0 -228 -108 -228 -256v-2zM244 -401
l220 289h162l211 -291h-185l-105 173h-7l-115 -171h-181z" />
    <glyph glyph-name="Etildebelow" unicode="&#x1e1a;" horiz-adv-x="1118" 
d="M547 -299c-23 23 -47 53 -82 53c-52 0 -63 -50 -66 -94h-131c0 108 57 219 182 219c67 0 106 -26 150 -69c29 -27 47 -53 81 -53c48 0 65 61 67 105h131c0 -113 -72 -223 -184 -223c-80 0 -115 29 -148 62zM1012 202v-202h-862v1365h862v-202h-621v-375h584v-191h-584
v-395h621z" />
    <glyph glyph-name="etildebelow" unicode="&#x1e1b;" horiz-adv-x="1089" 
d="M517 -299c-23 23 -47 53 -82 53c-52 0 -63 -50 -66 -94h-131c0 108 57 219 182 219c67 0 106 -26 150 -69c29 -27 47 -53 81 -53c48 0 65 61 67 105h131c0 -113 -72 -223 -184 -223c-80 0 -115 29 -148 62zM561 -18c-305 0 -473 193 -473 500v89c0 307 170 505 459 505
c298 0 458 -204 458 -504v-95h-684v-33c0 -147 78 -275 239 -275c129 0 192 67 206 141h228c-17 -142 -134 -328 -433 -328zM321 636h454v2c0 149 -85 256 -226 256c-142 0 -228 -108 -228 -256v-2z" />
    <glyph glyph-name="Ecedillabreve" unicode="&#x1e1c;" horiz-adv-x="1118" 
d="M575 -470c-65 -2 -122 7 -148 15v117c27 -8 79 -14 113 -14c53 0 113 14 113 68c0 57 -57 63 -137 63h-54v93l48 128h-360v1365h862v-202h-621v-375h584v-191h-584v-395h621v-202h-357l-43 -112c121 0 200 -58 200 -165c0 -132 -101 -189 -237 -193zM245 1760h146
c0 -78 68 -141 183 -141s183 63 183 141h144c0 -147 -99 -277 -327 -277s-329 130 -329 277z" />
    <glyph glyph-name="ecedillabreve" unicode="&#x1e1d;" horiz-adv-x="1089" 
d="M230 1461h145c0 -84 49 -164 163 -164s163 80 163 164h144c-1 -146 -98 -297 -307 -297c-208 0 -309 151 -308 297zM321 636h454v2c0 149 -85 256 -226 256c-142 0 -228 -108 -228 -256v-2zM555 -484c-65 -2 -122 8 -148 15v117c27 -8 79 -13 113 -13c53 0 113 13 113 67
c0 58 -57 63 -137 63h-54v94l48 126c-261 28 -402 215 -402 497v89c0 307 170 505 459 505c298 0 458 -204 458 -504v-95h-684v-33c0 -147 78 -275 239 -275c129 0 192 67 206 141h228c-16 -129 -115 -296 -360 -324l-42 -111c121 0 200 -59 200 -166
c0 -132 -101 -189 -237 -193z" />
    <glyph glyph-name="Fdotaccent" unicode="&#x1e1e;" horiz-adv-x="1057" 
d="M453 1605c0 68 49 118 115 118c68 0 120 -50 120 -118c0 -67 -52 -115 -120 -115c-66 0 -115 48 -115 115zM392 0h-242v1365h852v-203h-610v-406h557v-199h-557v-557z" />
    <glyph glyph-name="fdotaccent" unicode="&#x1e1f;" horiz-adv-x="726" 
d="M273 1693c0 68 49 118 115 118c68 0 120 -50 120 -118c0 -67 -52 -115 -120 -115c-66 0 -115 48 -115 115zM213 0v865h-155v185h155v106c0 209 107 298 344 298c54 0 85 -4 104 -7v-173c-15 1 -28 3 -61 3c-105 0 -156 -34 -156 -141v-86h204v-185h-201v-865h-234z" />
    <glyph glyph-name="Gmacron" unicode="&#x1e20;" horiz-adv-x="1295" 
d="M1196 934h-236c-20 167 -144 252 -295 252c-184 0 -326 -125 -326 -412v-176c0 -251 101 -419 326 -419c182 0 303 114 303 262v99h-302v188h533v-275c0 -203 -136 -480 -536 -480c-388 0 -567 257 -567 625v177c0 381 218 617 572 617c342 0 517 -221 528 -458z
M946 1516h-572v123h572v-123z" />
    <glyph glyph-name="gmacron" unicode="&#x1e21;" horiz-adv-x="1155" 
d="M864 1220h-571v129h571v-129zM549 -212c166 0 247 87 247 239v151h-9c-40 -92 -151 -165 -300 -165c-234 0 -407 173 -407 470v116c0 293 170 474 409 474c171 0 262 -79 303 -167h9v152h230v-1040c0 -298 -223 -412 -489 -412c-301 0 -433 155 -439 317h232
c12 -74 81 -135 214 -135zM564 881c-149 0 -244 -115 -244 -303v-88c0 -189 102 -295 245 -295c147 0 230 125 230 287v97c0 174 -87 302 -231 302z" />
    <glyph glyph-name="Hdotaccent" unicode="&#x1e22;" horiz-adv-x="1392" 
d="M1242 0h-242v598h-608v-598h-242v1365h242v-563h608v563h242v-1365zM581 1605c0 68 49 118 115 118c68 0 120 -50 120 -118c0 -67 -52 -115 -120 -115c-66 0 -115 48 -115 115z" />
    <glyph glyph-name="hdotaccent" unicode="&#x1e23;" horiz-adv-x="1191" 
d="M141 0v1437h236v-528h10c29 71 120 166 294 166c230 0 380 -160 380 -408v-667h-237v614c0 163 -83 257 -219 257c-138 0 -228 -90 -228 -258v-613h-236zM143 1677c0 68 49 118 115 118c68 0 120 -50 120 -118c0 -67 -52 -115 -120 -115c-66 0 -115 48 -115 115z" />
    <glyph glyph-name="Hdotbelow" unicode="&#x1e24;" horiz-adv-x="1392" 
d="M1242 0h-242v598h-608v-598h-242v1365h242v-563h608v563h242v-1365zM576 -267c0 71 54 124 120 124c72 0 126 -53 126 -124c0 -69 -54 -121 -126 -121c-66 0 -120 52 -120 121z" />
    <glyph glyph-name="hdotbelow" unicode="&#x1e25;" horiz-adv-x="1191" 
d="M141 0v1437h236v-528h10c29 71 120 166 294 166c230 0 380 -160 380 -408v-667h-237v614c0 163 -83 257 -219 257c-138 0 -228 -90 -228 -258v-613h-236zM471 -267c0 71 54 124 120 124c72 0 126 -53 126 -124c0 -69 -54 -121 -126 -121c-66 0 -120 52 -120 121z" />
    <glyph glyph-name="Hdieresis" unicode="&#x1e26;" horiz-adv-x="1392" 
d="M1242 0h-242v598h-608v-598h-242v1365h242v-563h608v563h242v-1365zM451 1582c0 58 40 99 99 99s100 -41 100 -99c0 -57 -40 -98 -100 -98c-59 0 -99 41 -99 98zM780 1582c0 58 40 99 99 99c60 0 100 -41 100 -99c0 -57 -40 -98 -100 -98c-59 0 -99 41 -99 98z" />
    <glyph glyph-name="hdieresis" unicode="&#x1e27;" horiz-adv-x="1191" 
d="M141 0v1437h236v-528h10c29 71 120 166 294 166c230 0 380 -160 380 -408v-667h-237v614c0 163 -83 257 -219 257c-138 0 -228 -90 -228 -258v-613h-236zM-42 1656c0 66 45 111 110 111c67 0 112 -45 112 -111c0 -63 -44 -109 -112 -109c-65 0 -110 46 -110 109z
M338 1656c0 66 45 111 110 111c68 0 113 -45 113 -111c0 -63 -45 -109 -113 -109c-65 0 -110 46 -110 109z" />
    <glyph glyph-name="Hcedilla" unicode="&#x1e28;" horiz-adv-x="1392" 
d="M314 -470c-65 -2 -122 7 -148 15v117c27 -8 79 -14 113 -14c53 0 113 14 113 68c0 57 -57 63 -137 63h-54v93l49 128h-100v1365h242v-563h608v563h242v-1365h-242v598h-608v-598l-41 -112c121 0 200 -58 200 -165c0 -132 -101 -189 -237 -193z" />
    <glyph glyph-name="hcedilla" unicode="&#x1e29;" horiz-adv-x="1191" 
d="M292 -484c-65 -2 -121 8 -148 15v117c27 -8 79 -13 114 -13c53 0 112 13 112 67c0 58 -57 63 -136 63h-54v94l53 141h-92v1437h236v-528h10c29 71 120 166 294 166c230 0 380 -160 380 -408v-667h-237v614c0 163 -83 257 -219 257c-138 0 -228 -90 -228 -258v-613
l-48 -125c121 0 201 -59 201 -166c0 -132 -102 -189 -238 -193z" />
    <glyph glyph-name="Hbrevebelow" unicode="&#x1e2a;" horiz-adv-x="1392" 
d="M374 -133c0 -149 103 -296 321 -296s314 150 314 296h-145c0 -84 -52 -164 -169 -164s-169 80 -169 164h-152zM1242 0h-242v598h-608v-598h-242v1365h242v-563h608v563h242v-1365z" />
    <glyph glyph-name="hbrevebelow" unicode="&#x1e2b;" horiz-adv-x="1191" 
d="M269 -133c0 -149 103 -296 321 -296s314 150 314 296h-145c0 -84 -52 -164 -169 -164s-169 80 -169 164h-152zM141 0v1437h236v-528h10c29 71 120 166 294 166c230 0 380 -160 380 -408v-667h-237v614c0 163 -83 257 -219 257c-138 0 -228 -90 -228 -258v-613h-236z" />
    <glyph glyph-name="Itildebelow" unicode="&#x1e2c;" horiz-adv-x="543" 
d="M392 0h-242v1365h242v-1365zM244 -299c-23 23 -47 53 -82 53c-52 0 -63 -50 -66 -94h-131c0 108 57 219 182 219c67 0 106 -26 150 -69c29 -27 47 -53 81 -53c48 0 65 61 67 105h131c0 -113 -72 -223 -184 -223c-80 0 -115 29 -148 62z" />
    <glyph glyph-name="itildebelow" unicode="&#x1e2d;" horiz-adv-x="554" 
d="M159 0v1058h236v-1058h-236zM135 1320c0 73 58 126 140 126c86 0 143 -53 143 -126s-56 -126 -143 -126c-82 0 -140 53 -140 126zM249 -299c-23 23 -47 53 -82 53c-52 0 -63 -50 -66 -94h-131c0 108 57 219 182 219c67 0 106 -26 150 -69c29 -27 47 -53 81 -53
c48 0 65 61 67 105h131c0 -113 -72 -223 -184 -223c-80 0 -115 29 -148 62z" />
    <glyph glyph-name="Idieresisacute" unicode="&#x1e2e;" horiz-adv-x="543" 
d="M392 0h-242v1365h242v-1365zM135 1741l262 213h249l-304 -213h-207zM27 1582c0 58 40 99 99 99s100 -41 100 -99c0 -57 -40 -98 -100 -98c-59 0 -99 41 -99 98zM356 1582c0 58 40 99 99 99c60 0 100 -41 100 -99c0 -57 -40 -98 -100 -98c-59 0 -99 41 -99 98z" />
    <glyph glyph-name="idieresisacute" unicode="&#x1e2f;" horiz-adv-x="553" 
d="M357 1495h-195l198 286h240zM161 0v1058h240v-1058h-240zM-20 1277c0 66 45 111 110 111c67 0 112 -45 112 -111c0 -63 -44 -109 -112 -109c-65 0 -110 46 -110 109zM360 1277c0 66 45 111 110 111c68 0 113 -45 113 -111c0 -63 -45 -109 -113 -109
c-65 0 -110 46 -110 109z" />
    <glyph glyph-name="Kacute" unicode="&#x1e30;" horiz-adv-x="1236" 
d="M465 1507l262 213h249l-304 -213h-207zM1212 1365l-493 -586l516 -779h-294l-400 616l-149 -165v-451h-242v1365h242v-626h11l540 626h269z" />
    <glyph glyph-name="kacute" unicode="&#x1e31;" horiz-adv-x="1075" 
d="M376 375v-375h-237v1437h237v-831h10l377 452h268l-395 -457l422 -601h-278l-322 463zM333 1598h-195l198 286h240z" />
    <glyph glyph-name="Kdotbelow" unicode="&#x1e32;" horiz-adv-x="1236" 
d="M498 -267c0 71 54 124 120 124c72 0 126 -53 126 -124c0 -69 -54 -121 -126 -121c-66 0 -120 52 -120 121zM1212 1365l-493 -586l516 -779h-294l-400 616l-149 -165v-451h-242v1365h242v-626h11l540 626h269z" />
    <glyph glyph-name="kdotbelow" unicode="&#x1e33;" horiz-adv-x="1075" 
d="M437 -267c0 71 54 124 120 124c72 0 126 -53 126 -124c0 -69 -54 -121 -126 -121c-66 0 -120 52 -120 121zM376 375v-375h-237v1437h237v-831h10l377 452h268l-395 -457l422 -601h-278l-322 463z" />
    <glyph glyph-name="Klinebelow" unicode="&#x1e34;" horiz-adv-x="1236" 
d="M1212 1365l-493 -586l516 -779h-294l-400 616l-149 -165v-451h-242v1365h242v-626h11l540 626h269zM904 -326h-571v129h571v-129z" />
    <glyph glyph-name="klinebelow" unicode="&#x1e35;" horiz-adv-x="1075" 
d="M376 375v-375h-237v1437h237v-831h10l377 452h268l-395 -457l422 -601h-278l-322 463zM843 -326h-571v129h571v-129z" />
    <glyph glyph-name="Ldotbelow" unicode="&#x1e36;" horiz-adv-x="1010" 
d="M393 -267c0 71 54 124 120 124c72 0 126 -53 126 -124c0 -69 -54 -121 -126 -121c-66 0 -120 52 -120 121zM986 208v-208h-836v1365h242v-1157h594z" />
    <glyph glyph-name="ldotbelow" unicode="&#x1e37;" horiz-adv-x="525" 
d="M143 -267c0 71 54 124 120 124c72 0 126 -53 126 -124c0 -69 -54 -121 -126 -121c-66 0 -120 52 -120 121zM145 0v1437h236v-1437h-236z" />
    <glyph glyph-name="Ldotbelowmacron" unicode="&#x1e38;" horiz-adv-x="1010" 
d="M393 -267c0 71 54 124 120 124c72 0 126 -53 126 -124c0 -69 -54 -121 -126 -121c-66 0 -120 52 -120 121zM986 208v-208h-836v1365h242v-1157h594zM556 1516h-572v123h572v-123z" />
    <glyph glyph-name="ldotbelowmacron" unicode="&#x1e39;" horiz-adv-x="525" 
d="M143 -267c0 71 54 124 120 124c72 0 126 -53 126 -124c0 -69 -54 -121 -126 -121c-66 0 -120 52 -120 121zM145 0v1437h236v-1437h-236zM549 1599h-571v129h571v-129z" />
    <glyph glyph-name="Llinebelow" unicode="&#x1e3a;" horiz-adv-x="1010" 
d="M799 -326h-571v129h571v-129zM986 208v-208h-836v1365h242v-1157h594z" />
    <glyph glyph-name="llinebelow" unicode="&#x1e3b;" horiz-adv-x="525" 
d="M549 -326h-571v129h571v-129zM145 0v1437h236v-1437h-236z" />
    <glyph glyph-name="Lcircumflexbelow" unicode="&#x1e3c;" horiz-adv-x="1010" 
d="M986 208v-208h-836v1365h242v-1157h594zM212 -401l220 289h162l211 -291h-185l-105 173h-7l-115 -171h-181z" />
    <glyph glyph-name="lcircumflexbelow" unicode="&#x1e3d;" horiz-adv-x="525" 
d="M145 0v1437h236v-1437h-236zM-38 -401l220 289h162l211 -291h-185l-105 173h-7l-115 -171h-181z" />
    <glyph glyph-name="Macute" unicode="&#x1e3e;" horiz-adv-x="1617" 
d="M672 1507l262 213h249l-304 -213h-207zM371 0h-217v1365h244l408 -932h7l408 932h242v-1365h-218v929h-9l-344 -775h-168l-344 775h-9v-929z" />
    <glyph glyph-name="macute" unicode="&#x1e3f;" horiz-adv-x="1767" 
d="M961 1219h-195l198 286h240zM137 0v1058h232v-145h12c30 76 121 162 274 162c164 0 261 -71 299 -179h10c36 91 147 179 323 179c220 0 348 -140 348 -353v-722h-236v660c0 135 -74 214 -197 214c-127 0 -201 -87 -201 -225v-649h-230v649c0 155 -81 225 -198 225
c-111 0 -200 -73 -200 -223v-651h-236z" />
    <glyph glyph-name="Mdotaccent" unicode="&#x1e40;" horiz-adv-x="1617" 
d="M694 1605c0 68 49 118 115 118c68 0 120 -50 120 -118c0 -67 -52 -115 -120 -115c-66 0 -115 48 -115 115zM371 0h-217v1365h244l408 -932h7l408 932h242v-1365h-218v929h-9l-344 -775h-168l-344 775h-9v-929z" />
    <glyph glyph-name="mdotaccent" unicode="&#x1e41;" horiz-adv-x="1767" 
d="M769 1298c0 68 49 118 115 118c68 0 120 -50 120 -118c0 -67 -52 -115 -120 -115c-66 0 -115 48 -115 115zM137 0v1058h232v-145h12c30 76 121 162 274 162c164 0 261 -71 299 -179h10c36 91 147 179 323 179c220 0 348 -140 348 -353v-722h-236v660
c0 135 -74 214 -197 214c-127 0 -201 -87 -201 -225v-649h-230v649c0 155 -81 225 -198 225c-111 0 -200 -73 -200 -223v-651h-236z" />
    <glyph glyph-name="Mdotbelow" unicode="&#x1e42;" horiz-adv-x="1617" 
d="M689 -267c0 71 54 124 120 124c72 0 126 -53 126 -124c0 -69 -54 -121 -126 -121c-66 0 -120 52 -120 121zM371 0h-217v1365h244l408 -932h7l408 932h242v-1365h-218v929h-9l-344 -775h-168l-344 775h-9v-929z" />
    <glyph glyph-name="mdotbelow" unicode="&#x1e43;" horiz-adv-x="1767" 
d="M764 -267c0 71 54 124 120 124c72 0 126 -53 126 -124c0 -69 -54 -121 -126 -121c-66 0 -120 52 -120 121zM137 0v1058h232v-145h12c30 76 121 162 274 162c164 0 261 -71 299 -179h10c36 91 147 179 323 179c220 0 348 -140 348 -353v-722h-236v660
c0 135 -74 214 -197 214c-127 0 -201 -87 -201 -225v-649h-230v649c0 155 -81 225 -198 225c-111 0 -200 -73 -200 -223v-651h-236z" />
    <glyph glyph-name="Ndotaccent" unicode="&#x1e44;" horiz-adv-x="1375" 
d="M573 1605c0 68 49 118 115 118c68 0 120 -50 120 -118c0 -67 -52 -115 -120 -115c-66 0 -115 48 -115 115zM381 0h-231v1365h209l627 -955h8v955h230v-1365h-207l-629 958h-7v-958z" />
    <glyph glyph-name="ndotaccent" unicode="&#x1e45;" horiz-adv-x="1185" 
d="M478 1298c0 68 49 118 115 118c68 0 120 -50 120 -118c0 -67 -52 -115 -120 -115c-66 0 -115 48 -115 115zM137 0v1058h232v-149h9c36 81 140 166 305 166c210 0 370 -130 370 -376v-699h-237v625c0 173 -84 246 -219 246c-138 0 -224 -86 -224 -253v-618h-236z" />
    <glyph glyph-name="Ndotbelow" unicode="&#x1e46;" horiz-adv-x="1375" 
d="M568 -267c0 71 54 124 120 124c72 0 126 -53 126 -124c0 -69 -54 -121 -126 -121c-66 0 -120 52 -120 121zM381 0h-231v1365h209l627 -955h8v955h230v-1365h-207l-629 958h-7v-958z" />
    <glyph glyph-name="ndotbelow" unicode="&#x1e47;" horiz-adv-x="1185" 
d="M473 -267c0 71 54 124 120 124c72 0 126 -53 126 -124c0 -69 -54 -121 -126 -121c-66 0 -120 52 -120 121zM137 0v1058h232v-149h9c36 81 140 166 305 166c210 0 370 -130 370 -376v-699h-237v625c0 173 -84 246 -219 246c-138 0 -224 -86 -224 -253v-618h-236z" />
    <glyph glyph-name="Nlinebelow" unicode="&#x1e48;" horiz-adv-x="1375" 
d="M974 -326h-571v129h571v-129zM381 0h-231v1365h209l627 -955h8v955h230v-1365h-207l-629 958h-7v-958z" />
    <glyph glyph-name="nlinebelow" unicode="&#x1e49;" horiz-adv-x="1185" 
d="M879 -326h-571v129h571v-129zM137 0v1058h232v-149h9c36 81 140 166 305 166c210 0 370 -130 370 -376v-699h-237v625c0 173 -84 246 -219 246c-138 0 -224 -86 -224 -253v-618h-236z" />
    <glyph glyph-name="Ncircumflexbelow" unicode="&#x1e4a;" horiz-adv-x="1375" 
d="M381 0h-231v1365h209l627 -955h8v955h230v-1365h-207l-629 958h-7v-958zM387 -401l220 289h162l211 -291h-185l-105 173h-7l-115 -171h-181z" />
    <glyph glyph-name="ncircumflexbelow" unicode="&#x1e4b;" horiz-adv-x="1185" 
d="M137 0v1058h232v-149h9c36 81 140 166 305 166c210 0 370 -130 370 -376v-699h-237v625c0 173 -84 246 -219 246c-138 0 -224 -86 -224 -253v-618h-236zM292 -401l220 289h162l211 -291h-185l-105 173h-7l-115 -171h-181z" />
    <glyph glyph-name="Otildeacute" unicode="&#x1e4c;" horiz-adv-x="1338" 
d="M532 1741l262 213h249l-304 -213h-207zM340 770v-185c0 -276 139 -407 329 -407c189 0 328 131 328 407v185c0 276 -139 417 -328 417c-190 0 -329 -141 -329 -417zM96 586v182c0 388 220 624 574 624c355 0 572 -237 572 -624v-182c0 -386 -220 -613 -575 -613
s-571 227 -571 613zM648 1531c-24 22 -46 49 -81 49c-50 0 -62 -47 -64 -88h-128c0 102 55 207 177 207c66 0 104 -25 147 -65c28 -25 45 -50 79 -50c47 0 63 57 66 99h128c0 -107 -71 -210 -181 -210c-78 0 -111 26 -143 58z" />
    <glyph glyph-name="otildeacute" unicode="&#x1e4d;" horiz-adv-x="1126" 
d="M641 1495h-195l198 286h240zM530 1231c-23 23 -47 50 -83 50c-55 0 -68 -52 -70 -99h-140c0 130 60 252 199 252c63 0 105 -27 153 -75c27 -27 47 -54 83 -54c50 0 67 64 70 111h139c0 -126 -77 -252 -203 -252c-76 0 -114 32 -148 67zM564 1076c318 0 475 -208 475 -507
v-76c0 -309 -157 -511 -475 -511s-476 200 -476 511v75c0 291 158 508 476 508zM564 890c-184 0 -239 -159 -239 -330v-61c0 -170 54 -329 239 -329c184 0 236 158 236 329v61c0 172 -53 330 -236 330z" />
    <glyph glyph-name="Otildedieresis" unicode="&#x1e4e;" horiz-adv-x="1338" 
d="M405 1852c0 58 40 99 99 99s100 -41 100 -99c0 -57 -40 -98 -100 -98c-59 0 -99 41 -99 98zM734 1852c0 58 40 99 99 99c60 0 100 -41 100 -99c0 -57 -40 -98 -100 -98c-59 0 -99 41 -99 98zM340 770v-185c0 -276 139 -407 329 -407c189 0 328 131 328 407v185
c0 276 -139 417 -328 417c-190 0 -329 -141 -329 -417zM96 586v182c0 388 220 624 574 624c355 0 572 -237 572 -624v-182c0 -386 -220 -613 -575 -613s-571 227 -571 613zM648 1531c-24 22 -46 49 -81 49c-50 0 -62 -47 -64 -88h-128c0 102 55 207 177 207
c66 0 104 -25 147 -65c28 -25 45 -50 79 -50c47 0 63 57 66 99h128c0 -107 -71 -210 -181 -210c-78 0 -111 26 -143 58z" />
    <glyph glyph-name="otildedieresis" unicode="&#x1e4f;" horiz-adv-x="1126" 
d="M530 1231c-23 23 -47 50 -83 50c-55 0 -68 -52 -70 -99h-140c0 130 60 252 199 252c63 0 105 -27 153 -75c27 -27 47 -54 83 -54c50 0 67 64 70 111h139c0 -126 -77 -252 -203 -252c-76 0 -114 32 -148 67zM264 1573c0 66 45 111 110 111c67 0 112 -45 112 -111
c0 -63 -44 -109 -112 -109c-65 0 -110 46 -110 109zM644 1573c0 66 45 111 110 111c68 0 113 -45 113 -111c0 -63 -45 -109 -113 -109c-65 0 -110 46 -110 109zM564 1076c318 0 475 -208 475 -507v-76c0 -309 -157 -511 -475 -511s-476 200 -476 511v75
c0 291 158 508 476 508zM564 890c-184 0 -239 -159 -239 -330v-61c0 -170 54 -329 239 -329c184 0 236 158 236 329v61c0 172 -53 330 -236 330z" />
    <glyph glyph-name="Omacrongrave" unicode="&#x1e50;" horiz-adv-x="1338" 
d="M795 1741h-200l-298 208h242zM340 770v-185c0 -276 139 -407 329 -407c189 0 328 131 328 407v185c0 276 -139 417 -328 417c-190 0 -329 -141 -329 -417zM96 586v182c0 388 220 624 574 624c355 0 572 -237 572 -624v-182c0 -386 -220 -613 -575 -613s-571 227 -571 613
zM954 1516h-572v123h572v-123z" />
    <glyph glyph-name="omacrongrave" unicode="&#x1e51;" horiz-adv-x="1126" 
d="M696 1495h-195l-248 283h240zM850 1220h-571v129h571v-129zM564 1076c318 0 475 -208 475 -507v-76c0 -309 -157 -511 -475 -511s-476 200 -476 511v75c0 291 158 508 476 508zM564 890c-184 0 -239 -159 -239 -330v-61c0 -170 54 -329 239 -329c184 0 236 158 236 329
v61c0 172 -53 330 -236 330z" />
    <glyph glyph-name="Omacronacute" unicode="&#x1e52;" horiz-adv-x="1338" 
d="M532 1741l262 213h249l-304 -213h-207zM340 770v-185c0 -276 139 -407 329 -407c189 0 328 131 328 407v185c0 276 -139 417 -328 417c-190 0 -329 -141 -329 -417zM96 586v182c0 388 220 624 574 624c355 0 572 -237 572 -624v-182c0 -386 -220 -613 -575 -613
s-571 227 -571 613zM954 1516h-572v123h572v-123z" />
    <glyph glyph-name="omacronacute" unicode="&#x1e53;" horiz-adv-x="1126" 
d="M641 1495h-195l198 286h240zM850 1220h-571v129h571v-129zM564 1076c318 0 475 -208 475 -507v-76c0 -309 -157 -511 -475 -511s-476 200 -476 511v75c0 291 158 508 476 508zM564 890c-184 0 -239 -159 -239 -330v-61c0 -170 54 -329 239 -329c184 0 236 158 236 329v61
c0 172 -53 330 -236 330z" />
    <glyph glyph-name="Pacute" unicode="&#x1e54;" horiz-adv-x="1183" 
d="M435 1507l262 213h249l-304 -213h-207zM150 1365h532c284 0 453 -191 453 -446c0 -259 -171 -443 -455 -443h-288v-476h-242v1365zM392 1168v-498h175c202 0 322 52 322 249c0 159 -92 249 -247 249h-250z" />
    <glyph glyph-name="pacute" unicode="&#x1e55;" horiz-adv-x="1180" 
d="M688 -14c-164 0 -260 73 -304 163h-10v-506h-236v1416h231v-153h9c42 97 149 167 314 167c237 0 398 -173 398 -481v-127c0 -307 -159 -479 -402 -479zM616 178c137 0 233 101 233 307v89c0 200 -91 307 -237 307c-147 0 -238 -117 -238 -295v-108
c0 -170 90 -300 242 -300zM667 1219h-195l198 286h240z" />
    <glyph glyph-name="Pdotaccent" unicode="&#x1e56;" horiz-adv-x="1183" 
d="M150 1365h532c284 0 453 -191 453 -446c0 -259 -171 -443 -455 -443h-288v-476h-242v1365zM392 1168v-498h175c202 0 322 52 322 249c0 159 -92 249 -247 249h-250zM457 1605c0 68 49 118 115 118c68 0 120 -50 120 -118c0 -67 -52 -115 -120 -115
c-66 0 -115 48 -115 115z" />
    <glyph glyph-name="pdotaccent" unicode="&#x1e57;" horiz-adv-x="1180" 
d="M688 -14c-164 0 -260 73 -304 163h-10v-506h-236v1416h231v-153h9c42 97 149 167 314 167c237 0 398 -173 398 -481v-127c0 -307 -159 -479 -402 -479zM616 178c137 0 233 101 233 307v89c0 200 -91 307 -237 307c-147 0 -238 -117 -238 -295v-108
c0 -170 90 -300 242 -300zM475 1298c0 68 49 118 115 118c68 0 120 -50 120 -118c0 -67 -52 -115 -120 -115c-66 0 -115 48 -115 115z" />
    <glyph glyph-name="Rdotaccent" unicode="&#x1e58;" horiz-adv-x="1246" 
d="M680 1365c318 0 467 -191 467 -424c0 -225 -142 -341 -250 -383l276 -558h-272l-243 519h-268v-519h-240v1365h530zM390 706h251c163 0 256 81 256 228c0 157 -103 237 -251 237h-256v-465zM481 1605c0 68 49 118 115 118c68 0 120 -50 120 -118
c0 -67 -52 -115 -120 -115c-66 0 -115 48 -115 115z" />
    <glyph glyph-name="rdotaccent" unicode="&#x1e59;" horiz-adv-x="752" 
d="M150 0v1058h236v-137h9c26 66 84 153 251 153c32 0 57 -3 78 -7v-207c-19 6 -59 8 -98 8c-176 0 -236 -104 -236 -246v-622h-240zM310 1298c0 68 49 118 115 118c68 0 120 -50 120 -118c0 -67 -52 -115 -120 -115c-66 0 -115 48 -115 115z" />
    <glyph glyph-name="Rdotbelow" unicode="&#x1e5a;" horiz-adv-x="1246" 
d="M476 -267c0 71 54 124 120 124c72 0 126 -53 126 -124c0 -69 -54 -121 -126 -121c-66 0 -120 52 -120 121zM680 1365c318 0 467 -191 467 -424c0 -225 -142 -341 -250 -383l276 -558h-272l-243 519h-268v-519h-240v1365h530zM390 706h251c163 0 256 81 256 228
c0 157 -103 237 -251 237h-256v-465z" />
    <glyph glyph-name="rdotbelow" unicode="&#x1e5b;" horiz-adv-x="752" 
d="M153 -267c0 71 54 124 120 124c72 0 126 -53 126 -124c0 -69 -54 -121 -126 -121c-66 0 -120 52 -120 121zM150 0v1058h236v-137h9c26 66 84 153 251 153c32 0 57 -3 78 -7v-207c-19 6 -59 8 -98 8c-176 0 -236 -104 -236 -246v-622h-240z" />
    <glyph glyph-name="Rdotbelowmacron" unicode="&#x1e5c;" horiz-adv-x="1246" 
d="M476 -267c0 71 54 124 120 124c72 0 126 -53 126 -124c0 -69 -54 -121 -126 -121c-66 0 -120 52 -120 121zM680 1365c318 0 467 -191 467 -424c0 -225 -142 -341 -250 -383l276 -558h-272l-243 519h-268v-519h-240v1365h530zM390 706h251c163 0 256 81 256 228
c0 157 -103 237 -251 237h-256v-465zM881 1516h-572v123h572v-123z" />
    <glyph glyph-name="rdotbelowmacron" unicode="&#x1e5d;" horiz-adv-x="752" 
d="M153 -267c0 71 54 124 120 124c72 0 126 -53 126 -124c0 -69 -54 -121 -126 -121c-66 0 -120 52 -120 121zM150 0v1058h236v-137h9c26 66 84 153 251 153c32 0 57 -3 78 -7v-207c-19 6 -59 8 -98 8c-176 0 -236 -104 -236 -246v-622h-240zM711 1220h-571v129h571v-129z
" />
    <glyph glyph-name="Rlinebelow" unicode="&#x1e5e;" horiz-adv-x="1246" 
d="M680 1365c318 0 467 -191 467 -424c0 -225 -142 -341 -250 -383l276 -558h-272l-243 519h-268v-519h-240v1365h530zM390 706h251c163 0 256 81 256 228c0 157 -103 237 -251 237h-256v-465zM882 -326h-571v129h571v-129z" />
    <glyph glyph-name="rlinebelow" unicode="&#x1e5f;" horiz-adv-x="752" 
d="M150 0v1058h236v-137h9c26 66 84 153 251 153c32 0 57 -3 78 -7v-207c-19 6 -59 8 -98 8c-176 0 -236 -104 -236 -246v-622h-240zM559 -326h-571v129h571v-129z" />
    <glyph glyph-name="Sdotaccent" unicode="&#x1e60;" horiz-adv-x="1191" 
d="M60 382h235c10 -114 110 -212 299 -212c173 0 273 80 273 204c0 101 -70 154 -214 189l-219 53c-180 41 -339 147 -339 371c0 263 229 408 499 408c275 0 492 -150 496 -401h-230c-9 111 -96 205 -268 205c-152 0 -254 -72 -254 -193c0 -87 63 -148 188 -177l220 -53
c204 -47 363 -144 363 -381c0 -268 -216 -422 -532 -422c-385 0 -513 223 -517 409zM479 1605c0 68 49 118 115 118c68 0 120 -50 120 -118c0 -67 -52 -115 -120 -115c-66 0 -115 48 -115 115z" />
    <glyph glyph-name="sdotaccent" unicode="&#x1e61;" horiz-adv-x="1014" 
d="M93 749c0 232 197 327 416 327c249 0 395 -130 395 -321h-211c-7 71 -53 154 -190 154c-111 0 -184 -53 -184 -139c0 -115 154 -130 270 -151c197 -33 346 -99 346 -297c0 -214 -170 -340 -443 -340c-258 0 -419 122 -419 311h230c11 -82 79 -142 200 -142
c143 0 202 64 202 143c0 107 -122 124 -263 151c-193 39 -349 97 -349 304zM393 1298c0 68 49 118 115 118c68 0 120 -50 120 -118c0 -67 -52 -115 -120 -115c-66 0 -115 48 -115 115z" />
    <glyph glyph-name="Sdotbelow" unicode="&#x1e62;" horiz-adv-x="1191" 
d="M458 -267c0 71 54 124 120 124c72 0 126 -53 126 -124c0 -69 -54 -121 -126 -121c-66 0 -120 52 -120 121zM60 382h235c10 -114 110 -212 299 -212c173 0 273 80 273 204c0 101 -70 154 -214 189l-219 53c-180 41 -339 147 -339 371c0 263 229 408 499 408
c275 0 492 -150 496 -401h-230c-9 111 -96 205 -268 205c-152 0 -254 -72 -254 -193c0 -87 63 -148 188 -177l220 -53c204 -47 363 -144 363 -381c0 -268 -216 -422 -532 -422c-385 0 -513 223 -517 409z" />
    <glyph glyph-name="sdotbelow" unicode="&#x1e63;" horiz-adv-x="1014" 
d="M388 -267c0 71 54 124 120 124c72 0 126 -53 126 -124c0 -69 -54 -121 -126 -121c-66 0 -120 52 -120 121zM93 749c0 232 197 327 416 327c249 0 395 -130 395 -321h-211c-7 71 -53 154 -190 154c-111 0 -184 -53 -184 -139c0 -115 154 -130 270 -151
c197 -33 346 -99 346 -297c0 -214 -170 -340 -443 -340c-258 0 -419 122 -419 311h230c11 -82 79 -142 200 -142c143 0 202 64 202 143c0 107 -122 124 -263 151c-193 39 -349 97 -349 304z" />
    <glyph glyph-name="Sacutedotaccent" unicode="&#x1e64;" horiz-adv-x="1191" 
d="M250 1670c0 63 46 108 104 108c63 0 109 -45 109 -108c0 -60 -46 -105 -109 -105c-58 0 -104 45 -104 105zM567 1547l262 213h249l-304 -213h-207zM60 382h235c10 -114 110 -212 299 -212c173 0 273 80 273 204c0 101 -70 154 -214 189l-219 53
c-180 41 -339 147 -339 371c0 263 229 408 499 408c275 0 492 -150 496 -401h-230c-9 111 -96 205 -268 205c-152 0 -254 -72 -254 -193c0 -87 63 -148 188 -177l220 -53c204 -47 363 -144 363 -381c0 -268 -216 -422 -532 -422c-385 0 -513 223 -517 409z" />
    <glyph glyph-name="sacutedotaccent" unicode="&#x1e65;" horiz-adv-x="1014" 
d="M190 1405c0 67 49 115 111 115c66 0 116 -48 116 -115c0 -64 -50 -111 -116 -111c-62 0 -111 47 -111 111zM93 749c0 232 197 327 416 327c249 0 395 -130 395 -321h-211c-7 71 -53 154 -190 154c-111 0 -184 -53 -184 -139c0 -115 154 -130 270 -151
c197 -33 346 -99 346 -297c0 -214 -170 -340 -443 -340c-258 0 -419 122 -419 311h230c11 -82 79 -142 200 -142c143 0 202 64 202 143c0 107 -122 124 -263 151c-193 39 -349 97 -349 304zM659 1219h-195l198 286h240z" />
    <glyph glyph-name="Scarondotaccent" unicode="&#x1e66;" horiz-adv-x="1191" 
d="M491 1873c0 62 43 109 103 109c62 0 107 -47 107 -109c0 -60 -45 -102 -107 -102c-60 0 -103 42 -103 102zM60 382h235c10 -114 110 -212 299 -212c173 0 273 80 273 204c0 101 -70 154 -214 189l-219 53c-180 41 -339 147 -339 371c0 263 229 408 499 408
c275 0 492 -150 496 -401h-230c-9 111 -96 205 -268 205c-152 0 -254 -72 -254 -193c0 -87 63 -148 188 -177l220 -53c204 -47 363 -144 363 -381c0 -268 -216 -422 -532 -422c-385 0 -513 223 -517 409zM248 1731h195l146 -124h11l145 124h195l-269 -227h-149z" />
    <glyph glyph-name="scarondotaccent" unicode="&#x1e67;" horiz-adv-x="1014" 
d="M387 1713c0 68 50 116 112 116c68 0 118 -48 118 -116c0 -64 -50 -112 -118 -112c-62 0 -112 48 -112 112zM209 1501h182l114 -181h7l105 182h185l-211 -303h-162zM93 749c0 232 197 327 416 327c249 0 395 -130 395 -321h-211c-7 71 -53 154 -190 154
c-111 0 -184 -53 -184 -139c0 -115 154 -130 270 -151c197 -33 346 -99 346 -297c0 -214 -170 -340 -443 -340c-258 0 -419 122 -419 311h230c11 -82 79 -142 200 -142c143 0 202 64 202 143c0 107 -122 124 -263 151c-193 39 -349 97 -349 304z" />
    <glyph glyph-name="Sdotbelowdotaccent" unicode="&#x1e68;" horiz-adv-x="1191" 
d="M458 -267c0 71 54 124 120 124c72 0 126 -53 126 -124c0 -69 -54 -121 -126 -121c-66 0 -120 52 -120 121zM60 382h235c10 -114 110 -212 299 -212c173 0 273 80 273 204c0 101 -70 154 -214 189l-219 53c-180 41 -339 147 -339 371c0 263 229 408 499 408
c275 0 492 -150 496 -401h-230c-9 111 -96 205 -268 205c-152 0 -254 -72 -254 -193c0 -87 63 -148 188 -177l220 -53c204 -47 363 -144 363 -381c0 -268 -216 -422 -532 -422c-385 0 -513 223 -517 409zM479 1605c0 68 49 118 115 118c68 0 120 -50 120 -118
c0 -67 -52 -115 -120 -115c-66 0 -115 48 -115 115z" />
    <glyph glyph-name="sdotbelowdotaccent" unicode="&#x1e69;" horiz-adv-x="1014" 
d="M388 -267c0 71 54 124 120 124c72 0 126 -53 126 -124c0 -69 -54 -121 -126 -121c-66 0 -120 52 -120 121zM93 749c0 232 197 327 416 327c249 0 395 -130 395 -321h-211c-7 71 -53 154 -190 154c-111 0 -184 -53 -184 -139c0 -115 154 -130 270 -151
c197 -33 346 -99 346 -297c0 -214 -170 -340 -443 -340c-258 0 -419 122 -419 311h230c11 -82 79 -142 200 -142c143 0 202 64 202 143c0 107 -122 124 -263 151c-193 39 -349 97 -349 304zM393 1298c0 68 49 118 115 118c68 0 120 -50 120 -118c0 -67 -52 -115 -120 -115
c-66 0 -115 48 -115 115z" />
    <glyph glyph-name="Tdotaccent" unicode="&#x1e6a;" horiz-adv-x="1067" 
d="M419 1605c0 68 49 118 115 118c68 0 120 -50 120 -118c0 -67 -52 -115 -120 -115c-66 0 -115 48 -115 115zM653 0h-240v1160h-396v205h1033v-205h-397v-1160z" />
    <glyph glyph-name="tdotaccent" unicode="&#x1e6b;" horiz-adv-x="715" 
d="M212 1546c0 68 49 118 115 118c68 0 120 -50 120 -118c0 -67 -52 -115 -120 -115c-66 0 -115 48 -115 115zM203 1050v264h230v-264h206v-185h-206v-543c0 -112 44 -144 160 -144c20 0 39 0 52 2v-179c-19 -3 -62 -8 -110 -8c-260 0 -336 92 -336 305v567h-148v185h152z
" />
    <glyph glyph-name="Tdotbelow" unicode="&#x1e6c;" horiz-adv-x="1067" 
d="M414 -267c0 71 54 124 120 124c72 0 126 -53 126 -124c0 -69 -54 -121 -126 -121c-66 0 -120 52 -120 121zM653 0h-240v1160h-396v205h1033v-205h-397v-1160z" />
    <glyph glyph-name="tdotbelow" unicode="&#x1e6d;" horiz-adv-x="715" 
d="M310 -267c0 71 54 124 120 124c72 0 126 -53 126 -124c0 -69 -54 -121 -126 -121c-66 0 -120 52 -120 121zM203 1050v264h230v-264h206v-185h-206v-543c0 -112 44 -144 160 -144c20 0 39 0 52 2v-179c-19 -3 -62 -8 -110 -8c-260 0 -336 92 -336 305v567h-148v185h152z
" />
    <glyph glyph-name="Tlinebelow" unicode="&#x1e6e;" horiz-adv-x="1067" 
d="M820 -326h-571v129h571v-129zM653 0h-240v1160h-396v205h1033v-205h-397v-1160z" />
    <glyph glyph-name="tlinebelow" unicode="&#x1e6f;" horiz-adv-x="715" 
d="M716 -326h-571v129h571v-129zM203 1050v264h230v-264h206v-185h-206v-543c0 -112 44 -144 160 -144c20 0 39 0 52 2v-179c-19 -3 -62 -8 -110 -8c-260 0 -336 92 -336 305v567h-148v185h152z" />
    <glyph glyph-name="Tcircumflexbelow" unicode="&#x1e70;" horiz-adv-x="1067" 
d="M653 0h-240v1160h-396v205h1033v-205h-397v-1160zM233 -401l220 289h162l211 -291h-185l-105 173h-7l-115 -171h-181z" />
    <glyph glyph-name="tcircumflexbelow" unicode="&#x1e71;" horiz-adv-x="715" 
d="M203 1050v264h230v-264h206v-185h-206v-543c0 -112 44 -144 160 -144c20 0 39 0 52 2v-179c-19 -3 -62 -8 -110 -8c-260 0 -336 92 -336 305v567h-148v185h152zM129 -401l220 289h162l211 -291h-185l-105 173h-7l-115 -171h-181z" />
    <glyph glyph-name="Udieresisbelow" unicode="&#x1e72;" horiz-adv-x="1352" 
d="M377 1365v-873c0 -196 117 -311 299 -311c181 0 300 116 300 311v873h241v-892c0 -301 -215 -500 -541 -500s-541 201 -541 503v889h242zM374 -311c0 66 45 111 110 111c67 0 112 -45 112 -111c0 -63 -44 -109 -112 -109c-65 0 -110 46 -110 109zM754 -311
c0 66 45 111 110 111c68 0 113 -45 113 -111c0 -63 -45 -109 -113 -109c-65 0 -110 46 -110 109z" />
    <glyph glyph-name="udieresisbelow" unicode="&#x1e73;" horiz-adv-x="1181" 
d="M1043 1058v-1058h-231v150h-10c-35 -83 -133 -166 -306 -166c-217 0 -366 125 -366 372v702h237v-638c0 -181 103 -234 217 -234c128 0 223 83 223 237v635h236zM289 -311c0 66 45 111 110 111c67 0 112 -45 112 -111c0 -63 -44 -109 -112 -109c-65 0 -110 46 -110 109z
M669 -311c0 66 45 111 110 111c68 0 113 -45 113 -111c0 -63 -45 -109 -113 -109c-65 0 -110 46 -110 109z" />
    <glyph glyph-name="Utildebelow" unicode="&#x1e74;" horiz-adv-x="1352" 
d="M648 -299c-23 23 -47 53 -82 53c-52 0 -63 -50 -66 -94h-131c0 108 57 219 182 219c67 0 106 -26 150 -69c29 -27 47 -53 81 -53c48 0 65 61 67 105h131c0 -113 -72 -223 -184 -223c-80 0 -115 29 -148 62zM377 1365v-873c0 -196 117 -311 299 -311
c181 0 300 116 300 311v873h241v-892c0 -301 -215 -500 -541 -500s-541 201 -541 503v889h242z" />
    <glyph glyph-name="utildebelow" unicode="&#x1e75;" horiz-adv-x="1181" 
d="M563 -299c-23 23 -47 53 -82 53c-52 0 -63 -50 -66 -94h-131c0 108 57 219 182 219c67 0 106 -26 150 -69c29 -27 47 -53 81 -53c48 0 65 61 67 105h131c0 -113 -72 -223 -184 -223c-80 0 -115 29 -148 62zM1043 1058v-1058h-231v150h-10c-35 -83 -133 -166 -306 -166
c-217 0 -366 125 -366 372v702h237v-638c0 -181 103 -234 217 -234c128 0 223 83 223 237v635h236z" />
    <glyph glyph-name="Ucircumflexbelow" unicode="&#x1e76;" horiz-adv-x="1352" 
d="M377 1365v-873c0 -196 117 -311 299 -311c181 0 300 116 300 311v873h241v-892c0 -301 -215 -500 -541 -500s-541 201 -541 503v889h242zM375 -401l220 289h162l211 -291h-185l-105 173h-7l-115 -171h-181z" />
    <glyph glyph-name="ucircumflexbelow" unicode="&#x1e77;" horiz-adv-x="1181" 
d="M1043 1058v-1058h-231v150h-10c-35 -83 -133 -166 -306 -166c-217 0 -366 125 -366 372v702h237v-638c0 -181 103 -234 217 -234c128 0 223 83 223 237v635h236zM290 -401l220 289h162l211 -291h-185l-105 173h-7l-115 -171h-181z" />
    <glyph glyph-name="Utildeacute" unicode="&#x1e78;" horiz-adv-x="1352" 
d="M539 1741l262 213h249l-304 -213h-207zM377 1365v-873c0 -196 117 -311 299 -311c181 0 300 116 300 311v873h241v-892c0 -301 -215 -500 -541 -500s-541 201 -541 503v889h242zM655 1531c-24 22 -46 49 -81 49c-50 0 -62 -47 -64 -88h-128c0 102 55 207 177 207
c66 0 104 -25 147 -65c28 -25 45 -50 79 -50c47 0 63 57 66 99h128c0 -107 -71 -210 -181 -210c-78 0 -111 26 -143 58z" />
    <glyph glyph-name="utildeacute" unicode="&#x1e79;" horiz-adv-x="1181" 
d="M1043 1058v-1058h-231v150h-10c-35 -83 -133 -166 -306 -166c-217 0 -366 125 -366 372v702h237v-638c0 -181 103 -234 217 -234c128 0 223 83 223 237v635h236zM668 1495h-195l198 286h240zM557 1231c-23 23 -47 50 -83 50c-55 0 -68 -52 -70 -99h-140
c0 130 60 252 199 252c63 0 105 -27 153 -75c27 -27 47 -54 83 -54c50 0 67 64 70 111h139c0 -126 -77 -252 -203 -252c-76 0 -114 32 -148 67z" />
    <glyph glyph-name="Umacrondieresis" unicode="&#x1e7a;" horiz-adv-x="1352" 
d="M412 1852c0 58 40 99 99 99s100 -41 100 -99c0 -57 -40 -98 -100 -98c-59 0 -99 41 -99 98zM741 1852c0 58 40 99 99 99c60 0 100 -41 100 -99c0 -57 -40 -98 -100 -98c-59 0 -99 41 -99 98zM377 1365v-873c0 -196 117 -311 299 -311c181 0 300 116 300 311v873h241v-892
c0 -301 -215 -500 -541 -500s-541 201 -541 503v889h242zM961 1516h-572v123h572v-123z" />
    <glyph glyph-name="umacrondieresis" unicode="&#x1e7b;" horiz-adv-x="1181" 
d="M1043 1058v-1058h-231v150h-10c-35 -83 -133 -166 -306 -166c-217 0 -366 125 -366 372v702h237v-638c0 -181 103 -234 217 -234c128 0 223 83 223 237v635h236zM877 1220h-571v129h571v-129zM291 1573c0 66 45 111 110 111c67 0 112 -45 112 -111
c0 -63 -44 -109 -112 -109c-65 0 -110 46 -110 109zM671 1573c0 66 45 111 110 111c68 0 113 -45 113 -111c0 -63 -45 -109 -113 -109c-65 0 -110 46 -110 109z" />
    <glyph glyph-name="Vtilde" unicode="&#x1e7c;" horiz-adv-x="1234" 
d="M597 1531c-24 22 -46 49 -81 49c-50 0 -62 -47 -64 -88h-128c0 102 55 207 177 207c66 0 104 -25 147 -65c28 -25 45 -50 79 -50c47 0 63 57 66 99h128c0 -107 -71 -210 -181 -210c-78 0 -111 26 -143 58zM759 0h-282l-466 1365h279l329 -1084h9l326 1084h270z" />
    <glyph glyph-name="vtilde" unicode="&#x1e7d;" horiz-adv-x="1026" 
d="M479 1231c-23 23 -47 50 -83 50c-55 0 -68 -52 -70 -99h-140c0 130 60 252 199 252c63 0 105 -27 153 -75c27 -27 47 -54 83 -54c50 0 67 64 70 111h139c0 -126 -77 -252 -203 -252c-76 0 -114 32 -148 67zM376 0l-358 1058h258l226 -832h10l247 832h250l-375 -1058h-258
z" />
    <glyph glyph-name="Vdotbelow" unicode="&#x1e7e;" horiz-adv-x="1234" 
d="M498 -267c0 71 54 124 120 124c72 0 126 -53 126 -124c0 -69 -54 -121 -126 -121c-66 0 -120 52 -120 121zM759 0h-282l-466 1365h279l329 -1084h9l326 1084h270z" />
    <glyph glyph-name="vdotbelow" unicode="&#x1e7f;" horiz-adv-x="1026" 
d="M393 -267c0 71 54 124 120 124c72 0 126 -53 126 -124c0 -69 -54 -121 -126 -121c-66 0 -120 52 -120 121zM376 0l-358 1058h258l226 -832h10l247 832h250l-375 -1058h-258z" />
    <glyph glyph-name="Wgrave" unicode="&#x1e80;" horiz-adv-x="1726" 
d="M990 1507h-200l-298 208h242zM595 0h-222l-364 1365h266l220 -1002h9l250 1002h219l249 -1002h10l219 1002h266l-365 -1365h-222l-263 983h-9z" />
    <glyph glyph-name="wgrave" unicode="&#x1e81;" horiz-adv-x="1532" 
d="M898 1222h-195l-248 283h240zM1508 1058l-277 -1058h-242l-215 772h-7l-211 -772h-244l-288 1058h253l164 -797h10l208 797h222l214 -797h10l168 797h235z" />
    <glyph glyph-name="Wacute" unicode="&#x1e82;" horiz-adv-x="1726" 
d="M727 1507l262 213h249l-304 -213h-207zM595 0h-222l-364 1365h266l220 -1002h9l250 1002h219l249 -1002h10l219 1002h266l-365 -1365h-222l-263 983h-9z" />
    <glyph glyph-name="wacute" unicode="&#x1e83;" horiz-adv-x="1532" 
d="M843 1219h-195l198 286h240zM1508 1058l-277 -1058h-242l-215 772h-7l-211 -772h-244l-288 1058h253l164 -797h10l208 797h222l214 -797h10l168 797h235z" />
    <glyph glyph-name="Wdieresis" unicode="&#x1e84;" horiz-adv-x="1726" 
d="M618 1582c0 58 40 99 99 99s100 -41 100 -99c0 -57 -40 -98 -100 -98c-59 0 -99 41 -99 98zM947 1582c0 58 40 99 99 99c60 0 100 -41 100 -99c0 -57 -40 -98 -100 -98c-59 0 -99 41 -99 98zM595 0h-222l-364 1365h266l220 -1002h9l250 1002h219l249 -1002h10l219 1002
h266l-365 -1365h-222l-263 983h-9z" />
    <glyph glyph-name="wdieresis" unicode="&#x1e85;" horiz-adv-x="1532" 
d="M466 1277c0 66 45 111 110 111c67 0 112 -45 112 -111c0 -63 -44 -109 -112 -109c-65 0 -110 46 -110 109zM846 1277c0 66 45 111 110 111c68 0 113 -45 113 -111c0 -63 -45 -109 -113 -109c-65 0 -110 46 -110 109zM1508 1058l-277 -1058h-242l-215 772h-7l-211 -772
h-244l-288 1058h253l164 -797h10l208 797h222l214 -797h10l168 797h235z" />
    <glyph glyph-name="Wdotaccent" unicode="&#x1e86;" horiz-adv-x="1726" 
d="M749 1605c0 68 49 118 115 118c68 0 120 -50 120 -118c0 -67 -52 -115 -120 -115c-66 0 -115 48 -115 115zM595 0h-222l-364 1365h266l220 -1002h9l250 1002h219l249 -1002h10l219 1002h266l-365 -1365h-222l-263 983h-9z" />
    <glyph glyph-name="wdotaccent" unicode="&#x1e87;" horiz-adv-x="1532" 
d="M651 1298c0 68 49 118 115 118c68 0 120 -50 120 -118c0 -67 -52 -115 -120 -115c-66 0 -115 48 -115 115zM1508 1058l-277 -1058h-242l-215 772h-7l-211 -772h-244l-288 1058h253l164 -797h10l208 797h222l214 -797h10l168 797h235z" />
    <glyph glyph-name="Wdotbelow" unicode="&#x1e88;" horiz-adv-x="1726" 
d="M743 -267c0 71 54 124 120 124c72 0 126 -53 126 -124c0 -69 -54 -121 -126 -121c-66 0 -120 52 -120 121zM595 0h-222l-364 1365h266l220 -1002h9l250 1002h219l249 -1002h10l219 1002h266l-365 -1365h-222l-263 983h-9z" />
    <glyph glyph-name="wdotbelow" unicode="&#x1e89;" horiz-adv-x="1532" 
d="M646 -267c0 71 54 124 120 124c72 0 126 -53 126 -124c0 -69 -54 -121 -126 -121c-66 0 -120 52 -120 121zM1508 1058l-277 -1058h-242l-215 772h-7l-211 -772h-244l-288 1058h253l164 -797h10l208 797h222l214 -797h10l168 797h235z" />
    <glyph glyph-name="Xdotaccent" unicode="&#x1e8a;" horiz-adv-x="1167" 
d="M1175 1365l-440 -686l433 -679h-281l-305 500h-12l-306 -500h-265l429 688l-425 677h286l302 -506h11l299 506h274zM469 1605c0 68 49 118 115 118c68 0 120 -50 120 -118c0 -67 -52 -115 -120 -115c-66 0 -115 48 -115 115z" />
    <glyph glyph-name="xdotaccent" unicode="&#x1e8b;" horiz-adv-x="1060" 
d="M748 0l-219 369h-10l-220 -369h-254l337 525l-346 533h276l214 -367h10l221 367h262l-350 -521l348 -537h-269zM415 1298c0 68 49 118 115 118c68 0 120 -50 120 -118c0 -67 -52 -115 -120 -115c-66 0 -115 48 -115 115z" />
    <glyph glyph-name="Xdieresis" unicode="&#x1e8c;" horiz-adv-x="1167" 
d="M1175 1365l-440 -686l433 -679h-281l-305 500h-12l-306 -500h-265l429 688l-425 677h286l302 -506h11l299 506h274zM338 1582c0 58 40 99 99 99s100 -41 100 -99c0 -57 -40 -98 -100 -98c-59 0 -99 41 -99 98zM667 1582c0 58 40 99 99 99c60 0 100 -41 100 -99
c0 -57 -40 -98 -100 -98c-59 0 -99 41 -99 98z" />
    <glyph glyph-name="xdieresis" unicode="&#x1e8d;" horiz-adv-x="1060" 
d="M748 0l-219 369h-10l-220 -369h-254l337 525l-346 533h276l214 -367h10l221 367h262l-350 -521l348 -537h-269zM230 1277c0 66 45 111 110 111c67 0 112 -45 112 -111c0 -63 -44 -109 -112 -109c-65 0 -110 46 -110 109zM610 1277c0 66 45 111 110 111
c68 0 113 -45 113 -111c0 -63 -45 -109 -113 -109c-65 0 -110 46 -110 109z" />
    <glyph glyph-name="Ydotaccent" unicode="&#x1e8e;" horiz-adv-x="1132" 
d="M687 0h-242v539l-456 826h270l305 -587h8l308 587h264l-457 -822v-543zM452 1605c0 68 49 118 115 118c68 0 120 -50 120 -118c0 -67 -52 -115 -120 -115c-66 0 -115 48 -115 115z" />
    <glyph glyph-name="ydotaccent" unicode="&#x1e8f;" horiz-adv-x="1072" 
d="M1036 1058c0 0 -353 -1031 -356 -1039l-27 -72c-67 -180 -159 -327 -413 -327c-52 0 -106 6 -134 11v175c17 -3 57 -6 84 -6c129 0 176 55 197 151l12 43l-373 1064h261l243 -848h9l247 848h250zM421 1298c0 68 49 118 115 118c68 0 120 -50 120 -118
c0 -67 -52 -115 -120 -115c-66 0 -115 48 -115 115z" />
    <glyph glyph-name="Zcircumflex" unicode="&#x1e90;" horiz-adv-x="1167" 
d="M84 0v161l681 993v9h-661v202h955v-160l-678 -993v-9h697v-203h-994zM240 1502l273 240h149l269 -240h-194l-145 134h-11l-147 -134h-194z" />
    <glyph glyph-name="zcircumflex" unicode="&#x1e91;" horiz-adv-x="989" 
d="M190 1221l221 302h162l211 -303h-185l-105 182h-7l-115 -181h-182zM88 0v140l524 723v12h-521v183h809v-151l-512 -711v-11h522v-185h-822z" />
    <glyph glyph-name="Zdotbelow" unicode="&#x1e92;" horiz-adv-x="1167" 
d="M464 -267c0 71 54 124 120 124c72 0 126 -53 126 -124c0 -69 -54 -121 -126 -121c-66 0 -120 52 -120 121zM84 0v161l681 993v9h-661v202h955v-160l-678 -993v-9h697v-203h-994z" />
    <glyph glyph-name="zdotbelow" unicode="&#x1e93;" horiz-adv-x="989" 
d="M375 -267c0 71 54 124 120 124c72 0 126 -53 126 -124c0 -69 -54 -121 -126 -121c-66 0 -120 52 -120 121zM88 0v140l524 723v12h-521v183h809v-151l-512 -711v-11h522v-185h-822z" />
    <glyph glyph-name="Zlinebelow" unicode="&#x1e94;" horiz-adv-x="1167" 
d="M84 0v161l681 993v9h-661v202h955v-160l-678 -993v-9h697v-203h-994zM870 -326h-571v129h571v-129z" />
    <glyph glyph-name="zlinebelow" unicode="&#x1e95;" horiz-adv-x="989" 
d="M781 -326h-571v129h571v-129zM88 0v140l524 723v12h-521v183h809v-151l-512 -711v-11h522v-185h-822z" />
    <glyph glyph-name="hlinebelow" unicode="&#x1e96;" horiz-adv-x="1191" 
d="M141 0v1437h236v-528h10c29 71 120 166 294 166c230 0 380 -160 380 -408v-667h-237v614c0 163 -83 257 -219 257c-138 0 -228 -90 -228 -258v-613h-236zM877 -326h-571v129h571v-129z" />
    <glyph glyph-name="tdieresis" unicode="&#x1e97;" horiz-adv-x="715" 
d="M203 1050v264h230v-264h206v-185h-206v-543c0 -112 44 -144 160 -144c20 0 39 0 52 2v-179c-19 -3 -62 -8 -110 -8c-260 0 -336 92 -336 305v567h-148v185h152zM27 1525c0 66 45 111 110 111c67 0 112 -45 112 -111c0 -63 -44 -109 -112 -109c-65 0 -110 46 -110 109z
M407 1525c0 66 45 111 110 111c68 0 113 -45 113 -111c0 -63 -45 -109 -113 -109c-65 0 -110 46 -110 109z" />
    <glyph glyph-name="wring" unicode="&#x1e98;" horiz-adv-x="1532" 
d="M1508 1058l-277 -1058h-242l-215 772h-7l-211 -772h-244l-288 1058h253l164 -797h10l208 797h222l214 -797h10l168 797h235zM763 1188c-116 0 -207 85 -207 201s90 200 207 200c116 0 206 -84 206 -200s-90 -201 -206 -201zM666 1389c0 -55 42 -98 96 -98
c55 0 96 43 96 98c0 54 -41 97 -96 97c-54 0 -96 -43 -96 -97z" />
    <glyph glyph-name="yring" unicode="&#x1e99;" horiz-adv-x="1072" 
d="M1036 1058c0 0 -353 -1031 -356 -1039l-27 -72c-67 -180 -159 -327 -413 -327c-52 0 -106 6 -134 11v175c17 -3 57 -6 84 -6c129 0 176 55 197 151l12 43l-373 1064h261l243 -848h9l247 848h250zM533 1188c-116 0 -207 85 -207 201s90 200 207 200
c116 0 206 -84 206 -200s-90 -201 -206 -201zM436 1389c0 -55 42 -98 96 -98c55 0 96 43 96 98c0 54 -41 97 -96 97c-54 0 -96 -43 -96 -97z" />
    <glyph glyph-name="Adotbelow" unicode="&#x1ea0;" horiz-adv-x="1241" 
d="M261 0h-244l466 1365h275l465 -1365h-259l-116 368h-471zM618 1120h-9l-179 -568h366zM501 -267c0 71 54 124 120 124c72 0 126 -53 126 -124c0 -69 -54 -121 -126 -121c-66 0 -120 52 -120 121z" />
    <glyph glyph-name="adotbelow" unicode="&#x1ea1;" horiz-adv-x="1086" 
d="M722 136c-45 -80 -138 -152 -294 -152c-205 0 -347 122 -347 320c0 189 131 312 375 312h264v112c0 111 -68 160 -187 160c-122 0 -179 -58 -188 -147h-225c9 182 125 334 421 334c245 0 414 -100 414 -352v-723h-223v136h-10zM502 162c123 0 218 82 218 193v108h-220
c-124 0 -183 -60 -183 -145c0 -107 90 -156 185 -156zM423 -267c0 71 54 124 120 124c72 0 126 -53 126 -124c0 -69 -54 -121 -126 -121c-66 0 -120 52 -120 121z" />
    <glyph glyph-name="Ahookabove" unicode="&#x1ea2;" horiz-adv-x="1241" 
d="M261 0h-244l466 1365h275l465 -1365h-259l-116 368h-471zM618 1120h-9l-179 -568h366zM478 1664v106c18 7 60 17 107 17c123 0 211 -57 211 -163c0 -103 -92 -148 -146 -170l-74 88c38 11 84 36 84 73c0 47 -47 60 -92 60c-38 0 -68 -5 -90 -11z" />
    <glyph glyph-name="ahookabove" unicode="&#x1ea3;" horiz-adv-x="1086" 
d="M722 136c-45 -80 -138 -152 -294 -152c-205 0 -347 122 -347 320c0 189 131 312 375 312h264v112c0 111 -68 160 -187 160c-122 0 -179 -58 -188 -147h-225c9 182 125 334 421 334c245 0 414 -100 414 -352v-723h-223v136h-10zM502 162c123 0 218 82 218 193v108h-220
c-124 0 -183 -60 -183 -145c0 -107 90 -156 185 -156zM404 1436v115c24 10 63 18 111 18c138 0 224 -70 224 -187c0 -109 -75 -163 -164 -210l-72 93c68 38 95 68 95 107c0 46 -41 78 -101 78c-37 0 -72 -6 -93 -14z" />
    <glyph glyph-name="Acircumflexacute" unicode="&#x1ea4;" horiz-adv-x="1241" 
d="M261 0h-244l466 1365h275l465 -1365h-259l-116 368h-471zM618 1120h-9l-179 -568h366zM276 1511l268 240h150l273 -240h-194l-148 134h-10l-145 -134h-194zM827 1709l179 200h198l-263 -235z" />
    <glyph glyph-name="acircumflexacute" unicode="&#x1ea5;" horiz-adv-x="1086" 
d="M722 136c-45 -80 -138 -152 -294 -152c-205 0 -347 122 -347 320c0 189 131 312 375 312h264v112c0 111 -68 160 -187 160c-122 0 -179 -58 -188 -147h-225c9 182 125 334 421 334c245 0 414 -100 414 -352v-723h-223v136h-10zM502 162c123 0 218 82 218 193v108h-220
c-124 0 -183 -60 -183 -145c0 -107 90 -156 185 -156zM198 1204l268 240h150l273 -240h-194l-148 134h-10l-145 -134h-194zM749 1402l179 200h198l-263 -235z" />
    <glyph glyph-name="Acircumflexgrave" unicode="&#x1ea6;" horiz-adv-x="1241" 
d="M261 0h-244l466 1365h275l465 -1365h-259l-116 368h-471zM618 1120h-9l-179 -568h366zM1106 1675h-152l-260 234h195zM967 1511h-194l-148 134h-10l-145 -134h-194l268 240h150z" />
    <glyph glyph-name="acircumflexgrave" unicode="&#x1ea7;" horiz-adv-x="1086" 
d="M722 136c-45 -80 -138 -152 -294 -152c-205 0 -347 122 -347 320c0 189 131 312 375 312h264v112c0 111 -68 160 -187 160c-122 0 -179 -58 -188 -147h-225c9 182 125 334 421 334c245 0 414 -100 414 -352v-723h-223v136h-10zM502 162c123 0 218 82 218 193v108h-220
c-124 0 -183 -60 -183 -145c0 -107 90 -156 185 -156zM1028 1368h-152l-260 234h195zM889 1204h-194l-148 134h-10l-145 -134h-194l268 240h150z" />
    <glyph glyph-name="Acircumflexhookabove" unicode="&#x1ea8;" horiz-adv-x="1241" 
d="M261 0h-244l466 1365h275l465 -1365h-259l-116 368h-471zM618 1120h-9l-179 -568h366zM275 1504l269 227h149l273 -227h-194l-147 124h-11l-145 -124h-194zM763 1954c19 3 58 7 90 7c114 0 190 -50 190 -145c0 -73 -57 -129 -115 -162l-70 74c30 20 50 40 50 70
c0 37 -31 58 -82 58c-19 0 -42 -1 -63 -4v102z" />
    <glyph glyph-name="acircumflexhookabove" unicode="&#x1ea9;" horiz-adv-x="1086" 
d="M722 136c-45 -80 -138 -152 -294 -152c-205 0 -347 122 -347 320c0 189 131 312 375 312h264v112c0 111 -68 160 -187 160c-122 0 -179 -58 -188 -147h-225c9 182 125 334 421 334c245 0 414 -100 414 -352v-723h-223v136h-10zM502 162c123 0 218 82 218 193v108h-220
c-124 0 -183 -60 -183 -145c0 -107 90 -156 185 -156zM197 1197l269 227h149l273 -227h-194l-147 124h-11l-145 -124h-194zM685 1647c19 3 58 7 90 7c114 0 190 -50 190 -145c0 -73 -57 -129 -115 -162l-70 74c30 20 50 40 50 70c0 37 -31 58 -82 58c-19 0 -42 -1 -63 -4
v102z" />
    <glyph glyph-name="Acircumflextilde" unicode="&#x1eaa;" horiz-adv-x="1241" 
d="M261 0h-244l466 1365h275l465 -1365h-259l-116 368h-471zM618 1120h-9l-179 -568h366zM278 1498l268 231h150l273 -231h-194l-148 131h-10l-145 -131h-194zM449 1792h-133c0 96 59 203 185 203c68 0 106 -24 151 -64c29 -24 50 -49 85 -49c48 0 65 57 67 99h133
c0 -112 -74 -206 -187 -206c-82 0 -116 25 -149 56c-24 22 -49 49 -85 49c-53 0 -65 -48 -67 -88z" />
    <glyph glyph-name="acircumflextilde" unicode="&#x1eab;" horiz-adv-x="1086" 
d="M722 136c-45 -80 -138 -152 -294 -152c-205 0 -347 122 -347 320c0 189 131 312 375 312h264v112c0 111 -68 160 -187 160c-122 0 -179 -58 -188 -147h-225c9 182 125 334 421 334c245 0 414 -100 414 -352v-723h-223v136h-10zM502 162c123 0 218 82 218 193v108h-220
c-124 0 -183 -60 -183 -145c0 -107 90 -156 185 -156zM200 1191l268 231h150l273 -231h-194l-148 131h-10l-145 -131h-194zM371 1485h-133c0 96 59 203 185 203c68 0 106 -24 151 -64c29 -24 50 -49 85 -49c48 0 65 57 67 99h133c0 -112 -74 -206 -187 -206
c-82 0 -116 25 -149 56c-24 22 -49 49 -85 49c-53 0 -65 -48 -67 -88z" />
    <glyph glyph-name="Acircumflexdotbelow" unicode="&#x1eac;" horiz-adv-x="1241" 
d="M261 0h-244l466 1365h275l465 -1365h-259l-116 368h-471zM618 1120h-9l-179 -568h366zM501 -267c0 71 54 124 120 124c72 0 126 -53 126 -124c0 -69 -54 -121 -126 -121c-66 0 -120 52 -120 121zM277 1502l273 240h149l269 -240h-194l-145 134h-11l-147 -134h-194z" />
    <glyph glyph-name="acircumflexdotbelow" unicode="&#x1ead;" horiz-adv-x="1086" 
d="M722 136c-45 -80 -138 -152 -294 -152c-205 0 -347 122 -347 320c0 189 131 312 375 312h264v112c0 111 -68 160 -187 160c-122 0 -179 -58 -188 -147h-225c9 182 125 334 421 334c245 0 414 -100 414 -352v-723h-223v136h-10zM502 162c123 0 218 82 218 193v108h-220
c-124 0 -183 -60 -183 -145c0 -107 90 -156 185 -156zM238 1221l221 302h162l211 -303h-185l-105 182h-7l-115 -181h-182zM423 -267c0 71 54 124 120 124c72 0 126 -53 126 -124c0 -69 -54 -121 -126 -121c-66 0 -120 52 -120 121z" />
    <glyph glyph-name="Abreveacute" unicode="&#x1eae;" horiz-adv-x="1241" 
d="M261 0h-244l466 1365h275l465 -1365h-259l-116 368h-471zM618 1120h-9l-179 -568h366zM918 1728c0 -134 -97 -252 -298 -252s-302 116 -302 252h141c2 -70 57 -125 161 -125c106 0 162 53 162 125h136zM512 1732l238 237h201l-265 -237h-174z" />
    <glyph glyph-name="abreveacute" unicode="&#x1eaf;" horiz-adv-x="1086" 
d="M722 136c-45 -80 -138 -152 -294 -152c-205 0 -347 122 -347 320c0 189 131 312 375 312h264v112c0 111 -68 160 -187 160c-122 0 -179 -58 -188 -147h-225c9 182 125 334 421 334c245 0 414 -100 414 -352v-723h-223v136h-10zM502 162c123 0 218 82 218 193v108h-220
c-124 0 -183 -60 -183 -145c0 -107 90 -156 185 -156zM840 1421c0 -134 -97 -252 -298 -252s-302 116 -302 252h141c2 -70 57 -125 161 -125c106 0 162 53 162 125h136zM434 1425l238 237h201l-265 -237h-174z" />
    <glyph glyph-name="Abrevegrave" unicode="&#x1eb0;" horiz-adv-x="1241" 
d="M261 0h-244l466 1365h275l465 -1365h-259l-116 368h-471zM618 1120h-9l-179 -568h366zM917 1728c0 -133 -96 -252 -297 -252s-304 116 -304 252h143c0 -71 55 -125 161 -125c104 0 161 55 162 125h135zM740 1732h-174l-271 237h207z" />
    <glyph glyph-name="abrevegrave" unicode="&#x1eb1;" horiz-adv-x="1086" 
d="M722 136c-45 -80 -138 -152 -294 -152c-205 0 -347 122 -347 320c0 189 131 312 375 312h264v112c0 111 -68 160 -187 160c-122 0 -179 -58 -188 -147h-225c9 182 125 334 421 334c245 0 414 -100 414 -352v-723h-223v136h-10zM502 162c123 0 218 82 218 193v108h-220
c-124 0 -183 -60 -183 -145c0 -107 90 -156 185 -156zM839 1421c0 -133 -96 -252 -297 -252s-304 116 -304 252h143c0 -71 55 -125 161 -125c104 0 161 55 162 125h135zM662 1425h-174l-271 237h207z" />
    <glyph glyph-name="Abrevehookabove" unicode="&#x1eb2;" horiz-adv-x="1241" 
d="M261 0h-244l466 1365h275l465 -1365h-259l-116 368h-471zM618 1120h-9l-179 -568h366zM917 1711c0 -129 -96 -237 -297 -237c-196 0 -302 106 -302 239h141c0 -62 56 -119 161 -119s162 56 162 117h135zM450 1975c21 6 60 13 99 13c121 0 205 -53 205 -152
c0 -74 -74 -140 -129 -156l-79 79c26 8 65 31 65 63c0 37 -46 54 -94 54c-24 0 -45 -2 -67 -7v106z" />
    <glyph glyph-name="abrevehookabove" unicode="&#x1eb3;" horiz-adv-x="1086" 
d="M722 136c-45 -80 -138 -152 -294 -152c-205 0 -347 122 -347 320c0 189 131 312 375 312h264v112c0 111 -68 160 -187 160c-122 0 -179 -58 -188 -147h-225c9 182 125 334 421 334c245 0 414 -100 414 -352v-723h-223v136h-10zM502 162c123 0 218 82 218 193v108h-220
c-124 0 -183 -60 -183 -145c0 -107 90 -156 185 -156zM839 1404c0 -129 -96 -237 -297 -237c-196 0 -302 106 -302 239h141c0 -62 56 -119 161 -119s162 56 162 117h135zM372 1668c21 6 60 13 99 13c121 0 205 -53 205 -152c0 -74 -74 -140 -129 -156l-79 79
c26 8 65 31 65 63c0 37 -46 54 -94 54c-24 0 -45 -2 -67 -7v106z" />
    <glyph glyph-name="Abrevetilde" unicode="&#x1eb4;" horiz-adv-x="1241" 
d="M261 0h-244l466 1365h275l465 -1365h-259l-116 368h-471zM618 1120h-9l-179 -568h366zM918 1700c0 -128 -109 -233 -298 -233s-302 103 -302 233h141c0 -67 64 -116 161 -116s162 49 162 116h136zM597 1817c-23 23 -45 50 -82 50c-50 0 -63 -46 -66 -87h-135
c0 103 68 205 185 205c66 0 101 -21 145 -62c28 -26 47 -49 82 -49c46 0 65 55 67 98h133c0 -117 -76 -210 -186 -210c-79 0 -111 23 -143 55z" />
    <glyph glyph-name="abrevetilde" unicode="&#x1eb5;" horiz-adv-x="1086" 
d="M722 136c-45 -80 -138 -152 -294 -152c-205 0 -347 122 -347 320c0 189 131 312 375 312h264v112c0 111 -68 160 -187 160c-122 0 -179 -58 -188 -147h-225c9 182 125 334 421 334c245 0 414 -100 414 -352v-723h-223v136h-10zM502 162c123 0 218 82 218 193v108h-220
c-124 0 -183 -60 -183 -145c0 -107 90 -156 185 -156zM840 1393c0 -128 -109 -233 -298 -233s-302 103 -302 233h141c0 -67 64 -116 161 -116s162 49 162 116h136zM519 1510c-23 23 -45 50 -82 50c-50 0 -63 -46 -66 -87h-135c0 103 68 205 185 205c66 0 101 -21 145 -62
c28 -26 47 -49 82 -49c46 0 65 55 67 98h133c0 -117 -76 -210 -186 -210c-79 0 -111 23 -143 55z" />
    <glyph glyph-name="Abrevedotbelow" unicode="&#x1eb6;" horiz-adv-x="1241" 
d="M261 0h-244l466 1365h275l465 -1365h-259l-116 368h-471zM618 1120h-9l-179 -568h366zM501 -267c0 71 54 124 120 124c72 0 126 -53 126 -124c0 -69 -54 -121 -126 -121c-66 0 -120 52 -120 121zM291 1760h146c0 -78 68 -141 183 -141s183 63 183 141h144
c0 -147 -99 -277 -327 -277s-329 130 -329 277z" />
    <glyph glyph-name="abrevedotbelow" unicode="&#x1eb7;" horiz-adv-x="1086" 
d="M722 136c-45 -80 -138 -152 -294 -152c-205 0 -347 122 -347 320c0 189 131 312 375 312h264v112c0 111 -68 160 -187 160c-122 0 -179 -58 -188 -147h-225c9 182 125 334 421 334c245 0 414 -100 414 -352v-723h-223v136h-10zM502 162c123 0 218 82 218 193v108h-220
c-124 0 -183 -60 -183 -145c0 -107 90 -156 185 -156zM423 -267c0 71 54 124 120 124c72 0 126 -53 126 -124c0 -69 -54 -121 -126 -121c-66 0 -120 52 -120 121zM228 1461h145c0 -84 49 -164 163 -164s163 80 163 164h144c-1 -146 -98 -297 -307 -297
c-208 0 -309 151 -308 297z" />
    <glyph glyph-name="Edotbelow" unicode="&#x1eb8;" horiz-adv-x="1118" 
d="M455 -267c0 71 54 124 120 124c72 0 126 -53 126 -124c0 -69 -54 -121 -126 -121c-66 0 -120 52 -120 121zM1012 202v-202h-862v1365h862v-202h-621v-375h584v-191h-584v-395h621z" />
    <glyph glyph-name="edotbelow" unicode="&#x1eb9;" horiz-adv-x="1089" 
d="M425 -267c0 71 54 124 120 124c72 0 126 -53 126 -124c0 -69 -54 -121 -126 -121c-66 0 -120 52 -120 121zM561 -18c-305 0 -473 193 -473 500v89c0 307 170 505 459 505c298 0 458 -204 458 -504v-95h-684v-33c0 -147 78 -275 239 -275c129 0 192 67 206 141h228
c-17 -142 -134 -328 -433 -328zM321 636h454v2c0 149 -85 256 -226 256c-142 0 -228 -108 -228 -256v-2z" />
    <glyph glyph-name="Ehookabove" unicode="&#x1eba;" horiz-adv-x="1118" 
d="M1012 202v-202h-862v1365h862v-202h-621v-375h584v-191h-584v-395h621zM432 1664v106c18 7 60 17 107 17c123 0 211 -57 211 -163c0 -103 -92 -148 -146 -170l-74 88c38 11 84 36 84 73c0 47 -47 60 -92 60c-38 0 -68 -5 -90 -11z" />
    <glyph glyph-name="ehookabove" unicode="&#x1ebb;" horiz-adv-x="1089" 
d="M561 -18c-305 0 -473 193 -473 500v89c0 307 170 505 459 505c298 0 458 -204 458 -504v-95h-684v-33c0 -147 78 -275 239 -275c129 0 192 67 206 141h228c-17 -142 -134 -328 -433 -328zM321 636h454v2c0 149 -85 256 -226 256c-142 0 -228 -108 -228 -256v-2zM406 1436
v115c24 10 63 18 111 18c138 0 224 -70 224 -187c0 -109 -75 -163 -164 -210l-72 93c68 38 95 68 95 107c0 46 -41 78 -101 78c-37 0 -72 -6 -93 -14z" />
    <glyph glyph-name="Etilde" unicode="&#x1ebc;" horiz-adv-x="1118" 
d="M1012 202v-202h-862v1365h862v-202h-621v-375h584v-191h-584v-395h621zM554 1531c-24 22 -46 49 -81 49c-50 0 -62 -47 -64 -88h-128c0 102 55 207 177 207c66 0 104 -25 147 -65c28 -25 45 -50 79 -50c47 0 63 57 66 99h128c0 -107 -71 -210 -181 -210
c-78 0 -111 26 -143 58z" />
    <glyph glyph-name="etilde" unicode="&#x1ebd;" horiz-adv-x="1089" 
d="M561 -18c-305 0 -473 193 -473 500v89c0 307 170 505 459 505c298 0 458 -204 458 -504v-95h-684v-33c0 -147 78 -275 239 -275c129 0 192 67 206 141h228c-17 -142 -134 -328 -433 -328zM321 636h454v2c0 149 -85 256 -226 256c-142 0 -228 -108 -228 -256v-2zM511 1231
c-23 23 -47 50 -83 50c-55 0 -68 -52 -70 -99h-140c0 130 60 252 199 252c63 0 105 -27 153 -75c27 -27 47 -54 83 -54c50 0 67 64 70 111h139c0 -126 -77 -252 -203 -252c-76 0 -114 32 -148 67z" />
    <glyph glyph-name="Ecircumflexacute" unicode="&#x1ebe;" horiz-adv-x="1118" 
d="M230 1511l268 240h150l273 -240h-194l-148 134h-10l-145 -134h-194zM781 1709l179 200h198l-263 -235zM1012 202v-202h-862v1365h862v-202h-621v-375h584v-191h-584v-395h621z" />
    <glyph glyph-name="ecircumflexacute" unicode="&#x1ebf;" horiz-adv-x="1089" 
d="M200 1204l268 240h150l273 -240h-194l-148 134h-10l-145 -134h-194zM751 1402l179 200h198l-263 -235zM561 -18c-305 0 -473 193 -473 500v89c0 307 170 505 459 505c298 0 458 -204 458 -504v-95h-684v-33c0 -147 78 -275 239 -275c129 0 192 67 206 141h228
c-17 -142 -134 -328 -433 -328zM321 636h454v2c0 149 -85 256 -226 256c-142 0 -228 -108 -228 -256v-2z" />
    <glyph glyph-name="Ecircumflexgrave" unicode="&#x1ec0;" horiz-adv-x="1118" 
d="M1060 1675h-152l-260 234h195zM921 1511h-194l-148 134h-10l-145 -134h-194l268 240h150zM1012 202v-202h-862v1365h862v-202h-621v-375h584v-191h-584v-395h621z" />
    <glyph glyph-name="ecircumflexgrave" unicode="&#x1ec1;" horiz-adv-x="1089" 
d="M1030 1368h-152l-260 234h195zM891 1204h-194l-148 134h-10l-145 -134h-194l268 240h150zM561 -18c-305 0 -473 193 -473 500v89c0 307 170 505 459 505c298 0 458 -204 458 -504v-95h-684v-33c0 -147 78 -275 239 -275c129 0 192 67 206 141h228
c-17 -142 -134 -328 -433 -328zM321 636h454v2c0 149 -85 256 -226 256c-142 0 -228 -108 -228 -256v-2z" />
    <glyph glyph-name="Ecircumflexhookabove" unicode="&#x1ec2;" horiz-adv-x="1118" 
d="M229 1504l269 227h149l273 -227h-194l-147 124h-11l-145 -124h-194zM717 1954c19 3 58 7 90 7c114 0 190 -50 190 -145c0 -73 -57 -129 -115 -162l-70 74c30 20 50 40 50 70c0 37 -31 58 -82 58c-19 0 -42 -1 -63 -4v102zM1012 202v-202h-862v1365h862v-202h-621v-375
h584v-191h-584v-395h621z" />
    <glyph glyph-name="ecircumflexhookabove" unicode="&#x1ec3;" horiz-adv-x="1089" 
d="M199 1197l269 227h149l273 -227h-194l-147 124h-11l-145 -124h-194zM687 1647c19 3 58 7 90 7c114 0 190 -50 190 -145c0 -73 -57 -129 -115 -162l-70 74c30 20 50 40 50 70c0 37 -31 58 -82 58c-19 0 -42 -1 -63 -4v102zM561 -18c-305 0 -473 193 -473 500v89
c0 307 170 505 459 505c298 0 458 -204 458 -504v-95h-684v-33c0 -147 78 -275 239 -275c129 0 192 67 206 141h228c-17 -142 -134 -328 -433 -328zM321 636h454v2c0 149 -85 256 -226 256c-142 0 -228 -108 -228 -256v-2z" />
    <glyph glyph-name="Ecircumflextilde" unicode="&#x1ec4;" horiz-adv-x="1118" 
d="M1012 202v-202h-862v1365h862v-202h-621v-375h584v-191h-584v-395h621zM232 1498l268 231h150l273 -231h-194l-148 131h-10l-145 -131h-194zM403 1792h-133c0 96 59 203 185 203c68 0 106 -24 151 -64c29 -24 50 -49 85 -49c48 0 65 57 67 99h133
c0 -112 -74 -206 -187 -206c-82 0 -116 25 -149 56c-24 22 -49 49 -85 49c-53 0 -65 -48 -67 -88z" />
    <glyph glyph-name="ecircumflextilde" unicode="&#x1ec5;" horiz-adv-x="1089" 
d="M561 -18c-305 0 -473 193 -473 500v89c0 307 170 505 459 505c298 0 458 -204 458 -504v-95h-684v-33c0 -147 78 -275 239 -275c129 0 192 67 206 141h228c-17 -142 -134 -328 -433 -328zM321 636h454v2c0 149 -85 256 -226 256c-142 0 -228 -108 -228 -256v-2zM202 1191
l268 231h150l273 -231h-194l-148 131h-10l-145 -131h-194zM373 1485h-133c0 96 59 203 185 203c68 0 106 -24 151 -64c29 -24 50 -49 85 -49c48 0 65 57 67 99h133c0 -112 -74 -206 -187 -206c-82 0 -116 25 -149 56c-24 22 -49 49 -85 49c-53 0 -65 -48 -67 -88z" />
    <glyph glyph-name="Ecircumflexdotbelow" unicode="&#x1ec6;" horiz-adv-x="1118" 
d="M455 -267c0 71 54 124 120 124c72 0 126 -53 126 -124c0 -69 -54 -121 -126 -121c-66 0 -120 52 -120 121zM231 1502l273 240h149l269 -240h-194l-145 134h-11l-147 -134h-194zM1012 202v-202h-862v1365h862v-202h-621v-375h584v-191h-584v-395h621z" />
    <glyph glyph-name="ecircumflexdotbelow" unicode="&#x1ec7;" horiz-adv-x="1089" 
d="M240 1221l221 302h162l211 -303h-185l-105 182h-7l-115 -181h-182zM561 -18c-305 0 -473 193 -473 500v89c0 307 170 505 459 505c298 0 458 -204 458 -504v-95h-684v-33c0 -147 78 -275 239 -275c129 0 192 67 206 141h228c-17 -142 -134 -328 -433 -328zM321 636h454v2
c0 149 -85 256 -226 256c-142 0 -228 -108 -228 -256v-2zM425 -267c0 71 54 124 120 124c72 0 126 -53 126 -124c0 -69 -54 -121 -126 -121c-66 0 -120 52 -120 121z" />
    <glyph glyph-name="Ihookabove" unicode="&#x1ec8;" horiz-adv-x="543" 
d="M392 0h-242v1365h242v-1365zM129 1664v106c18 7 60 17 107 17c123 0 211 -57 211 -163c0 -103 -92 -148 -146 -170l-74 88c38 11 84 36 84 73c0 47 -47 60 -92 60c-38 0 -68 -5 -90 -11z" />
    <glyph glyph-name="ihookabove" unicode="&#x1ec9;" horiz-adv-x="553" 
d="M161 0v1058h240v-1058h-240zM141 1436v115c24 10 63 18 111 18c138 0 224 -70 224 -187c0 -109 -75 -163 -164 -210l-72 93c68 38 95 68 95 107c0 46 -41 78 -101 78c-37 0 -72 -6 -93 -14z" />
    <glyph glyph-name="Idotbelow" unicode="&#x1eca;" horiz-adv-x="543" 
d="M392 0h-242v1365h242v-1365zM152 -267c0 71 54 124 120 124c72 0 126 -53 126 -124c0 -69 -54 -121 -126 -121c-66 0 -120 52 -120 121z" />
    <glyph glyph-name="idotbelow" unicode="&#x1ecb;" horiz-adv-x="554" 
d="M159 0v1058h236v-1058h-236zM135 1320c0 73 58 126 140 126c86 0 143 -53 143 -126s-56 -126 -143 -126c-82 0 -140 53 -140 126zM157 -267c0 71 54 124 120 124c72 0 126 -53 126 -124c0 -69 -54 -121 -126 -121c-66 0 -120 52 -120 121z" />
    <glyph glyph-name="Odotbelow" unicode="&#x1ecc;" horiz-adv-x="1338" 
d="M549 -267c0 71 54 124 120 124c72 0 126 -53 126 -124c0 -69 -54 -121 -126 -121c-66 0 -120 52 -120 121zM340 770v-185c0 -276 139 -407 329 -407c189 0 328 131 328 407v185c0 276 -139 417 -328 417c-190 0 -329 -141 -329 -417zM96 586v182c0 388 220 624 574 624
c355 0 572 -237 572 -624v-182c0 -386 -220 -613 -575 -613s-571 227 -571 613z" />
    </font>
</defs>
</svg>
